<svg width="35" height="36" viewBox="0 0 35 36" fill="none" xmlns="http://www.w3.org/2000/svg">
<mask id="mask0_211_1130" style="mask-type:alpha" maskUnits="userSpaceOnUse" x="0" y="0" width="35" height="36">
<rect x="35" y="0.5" width="35" height="35" transform="rotate(90 35 0.5)" fill="#D9D9D9"/>
</mask>
<g mask="url(#mask0_211_1130)">
<path d="M17.5014 14.4271L6.78262 25.1458C6.41803 25.5104 5.99268 25.6866 5.50657 25.6745C5.02046 25.6623 4.59512 25.474 4.23053 25.1094C3.86595 24.7448 3.68366 24.3194 3.68366 23.8333C3.68366 23.3472 3.86595 22.9219 4.23053 22.5573L15.4232 11.3281C15.7149 11.0365 16.043 10.8177 16.4076 10.6719C16.7722 10.526 17.1368 10.4531 17.5014 10.4531C17.8659 10.4531 18.2305 10.526 18.5951 10.6719C18.9597 10.8177 19.2878 11.0365 19.5795 11.3281L30.8087 22.5573C31.1732 22.9219 31.3495 23.3533 31.3373 23.8516C31.3251 24.3498 31.1368 24.7812 30.7722 25.1458C30.4076 25.5104 29.9823 25.6927 29.4962 25.6927C29.01 25.6927 28.5847 25.5104 28.2201 25.1458L17.5014 14.4271Z" fill="#D2DFFF"/>
</g>
</svg>
