<svg width="12" height="8" viewBox="0 0 12 8" fill="none" xmlns="http://www.w3.org/2000/svg">
<path d="M5.9998 4.90002L9.8998 1.00002C10.0831 0.816691 10.3165 0.725024 10.5998 0.725024C10.8831 0.725024 11.1165 0.816691 11.2998 1.00002C11.4831 1.18336 11.5748 1.41669 11.5748 1.70002C11.5748 1.98336 11.4831 2.21669 11.2998 2.40002L6.6998 7.00002C6.5998 7.10002 6.49147 7.17086 6.3748 7.21252C6.25814 7.25419 6.13314 7.27502 5.9998 7.27502C5.86647 7.27502 5.74147 7.25419 5.6248 7.21252C5.50814 7.17086 5.3998 7.10002 5.2998 7.00002L0.699804 2.40002C0.516471 2.21669 0.424804 1.98336 0.424804 1.70002C0.424804 1.41669 0.516471 1.18336 0.699804 1.00002C0.883138 0.816691 1.11647 0.725024 1.3998 0.725024C1.68314 0.725024 1.91647 0.816691 2.0998 1.00002L5.9998 4.90002Z" fill="#D2DFFF"/>
</svg>
