<svg width="35" height="36" viewBox="0 0 35 36" fill="none" xmlns="http://www.w3.org/2000/svg">
<mask id="mask0_211_782" style="mask-type:alpha" maskUnits="userSpaceOnUse" x="0" y="0" width="35" height="36">
<rect y="35.5" width="35" height="35" transform="rotate(-90 0 35.5)" fill="#D9D9D9"/>
</mask>
<g mask="url(#mask0_211_782)">
<path d="M17.4986 21.5729L28.2174 10.8542C28.582 10.4896 29.0073 10.3134 29.4934 10.3255C29.9795 10.3377 30.4049 10.526 30.7695 10.8906C31.1341 11.2552 31.3163 11.6806 31.3163 12.1667C31.3163 12.6528 31.1341 13.0781 30.7695 13.4427L19.5768 24.6719C19.2851 24.9635 18.957 25.1823 18.5924 25.3281C18.2278 25.474 17.8632 25.5469 17.4986 25.5469C17.1341 25.5469 16.7695 25.474 16.4049 25.3281C16.0403 25.1823 15.7122 24.9635 15.4205 24.6719L4.19134 13.4427C3.82676 13.0781 3.65054 12.6467 3.6627 12.1484C3.67485 11.6502 3.86322 11.2188 4.2278 10.8542C4.59239 10.4896 5.01773 10.3073 5.50384 10.3073C5.98995 10.3073 6.4153 10.4896 6.77989 10.8542L17.4986 21.5729Z" fill="#D2DFFF"/>
</g>
</svg>
