<svg width="44" height="44" viewBox="0 0 44 44" fill="none" xmlns="http://www.w3.org/2000/svg">
<rect width="44" height="44" rx="22" fill="#D2DFFF"/>
<path d="M16.1722 22.0098L27.4258 33.2634C27.8086 33.6462 27.9936 34.0928 27.9809 34.6031C27.9681 35.1135 27.7703 35.5601 27.3876 35.9429C27.0048 36.3256 26.5582 36.517 26.0478 36.517C25.5375 36.517 25.0909 36.3256 24.7081 35.9429L12.9187 24.1917C12.6124 23.8854 12.3828 23.5409 12.2297 23.1582C12.0766 22.7754 12 22.3926 12 22.0098C12 21.6271 12.0766 21.2443 12.2297 20.8615C12.3828 20.4787 12.6124 20.1342 12.9187 19.828L24.7081 8.03855C25.0909 7.65578 25.5439 7.47077 26.067 7.48353C26.5901 7.49629 27.0431 7.69405 27.4258 8.07683C27.8086 8.4596 28 8.90618 28 9.41654C28 9.92691 27.8086 10.3735 27.4258 10.7563L16.1722 22.0098Z" fill="#171777"/>
</svg>
