<svg width="44" height="44" viewBox="0 0 44 44" fill="none" xmlns="http://www.w3.org/2000/svg">
<rect x="44" y="44" width="44" height="44" rx="22" transform="rotate(-180 44 44)" fill="#D2DFFF"/>
<path d="M27.8278 21.9902L16.5742 10.7366C16.1914 10.3538 16.0064 9.90722 16.0191 9.39685C16.0319 8.88649 16.2297 8.43991 16.6124 8.05714C16.9952 7.67436 17.4418 7.48298 17.9522 7.48298C18.4625 7.48298 18.9091 7.67436 19.2919 8.05714L31.0813 19.8083C31.3876 20.1146 31.6172 20.4591 31.7703 20.8418C31.9234 21.2246 32 21.6074 32 21.9902C32 22.3729 31.9234 22.7557 31.7703 23.1385C31.6172 23.5213 31.3876 23.8658 31.0813 24.172L19.2919 35.9614C18.9091 36.3442 18.4561 36.5292 17.933 36.5165C17.4099 36.5037 16.9569 36.3059 16.5742 35.9232C16.1914 35.5404 16 35.0938 16 34.5835C16 34.0731 16.1914 33.6265 16.5742 33.2437L27.8278 21.9902Z" fill="#171777"/>
</svg>
