<svg width="219" height="219" viewBox="0 0 219 219" fill="none" xmlns="http://www.w3.org/2000/svg">
<g clip-path="url(#clip0_115_255)">
<path d="M41.7734 90.8229C41.7734 90.8229 44.0298 96.5855 44.9751 97.1103C45.9204 97.6351 52.6232 99.974 53.2656 99.6031C53.9081 99.2322 58.361 97.3036 58.361 97.3036L57.9388 90.268L51.5752 86.6627L44.2433 87.6842L41.7734 90.8229Z" fill="#FFEEAC"/>
<path d="M42.4144 69.6846L45.1525 75.169L51.8553 77.5079L56.1909 75.0048L56.5849 70.4955L52.2839 65.271L45.0066 63.0495L42.4144 69.6846Z" fill="#FFEEAC"/>
<path d="M58.5499 52.019L57.6378 58.9686L62.1357 61.9385L65.7064 63.3025L70.7768 60.5891L69.8116 55.5797L66.2705 50.5588C66.2705 50.5588 63.5273 49.145 62.8851 49.5158C62.243 49.8868 58.5499 52.019 58.5499 52.019Z" fill="#FFEEAC"/>
<path d="M78.2726 49.8384L79.7759 56.8921C79.7759 56.8921 83.7127 62.9691 84.4726 63.1727C85.2324 63.3763 91.0017 62.6146 91.0017 62.6146L91.4568 56.3572L88.1126 49.0817L82.7009 47.4959L78.2726 49.8384Z" fill="#FFEEAC"/>
<path d="M64.898 83.0385C65.0156 83.6129 65.6728 91.7974 65.6728 91.7974L70.3015 98.3313L71.7617 106.052L76.7546 111.733L84.5318 112.596L90.8803 107.646L92.1814 100.258L103.874 97.1469C103.874 97.1469 108.393 89.3993 107.954 89.0102C107.516 88.6212 104.257 80.0114 104.257 80.0114C104.257 80.0114 94.8115 76.2588 93.5516 77.4142C93.5516 77.4142 86.2973 70.0411 79.1757 71.7975C72.0539 73.5541 67.058 77.5091 67.058 77.5091L64.898 83.0385Z" fill="#FFEEAC"/>
<path d="M111.437 106.911C111.437 106.911 112.552 114.403 113.151 114.699C113.75 114.996 119.496 119.386 119.496 119.386C119.496 119.386 124.938 117.315 124.82 116.74C124.703 116.166 123.663 109.915 123.663 109.915L119.979 103.906L111.437 106.911Z" fill="#FFEEAC"/>
<path d="M123.464 85.8366L123.615 93.8852L130.01 99.3994L135.314 92.2692L133.496 86.8957L129.041 83.2589L123.464 85.8366Z" fill="#FFEEAC"/>
<path d="M143.47 80.0669C143.588 80.6413 142.615 89.3391 142.615 89.3391L147.904 94.4212L153.271 91.1087L153.694 82.9424L149.233 77.8106L143.47 80.0669Z" fill="#FFEEAC"/>
<path d="M162.807 89.4561L161.42 98.1786L163.516 104.034L167.358 104.385L173.472 98.2859C173.472 98.2859 172.988 92.9984 172.71 92.5167C172.432 92.0349 168.755 87.5207 168.755 87.5207L162.807 89.4561Z" fill="#FFEEAC"/>
<path d="M132.566 115.694C133.284 117.816 133.397 126.775 133.397 126.775C133.397 126.775 129.909 133.713 129.959 134.541C130.009 135.369 132.5 142.28 132.5 142.28L138.543 146.071L144.59 145.791L152.167 137.777L162.323 140.905C162.323 140.905 169.142 138.253 170.135 134.04C171.128 129.827 169.007 123.558 169.007 123.558L162.779 119.446L159.453 111.089C159.453 111.089 151.433 102.018 145.738 104.021C140.043 106.024 131.657 113.007 132.566 115.694Z" fill="#FFEEAC"/>
<path d="M93.0839 77.5702C92.7684 77.1858 92.4418 76.8071 92.0888 76.4431C85.6708 69.8288 75.4634 69.3229 69.2901 75.3132C63.1169 81.3034 63.3153 91.5212 69.7333 98.1355C70.0865 98.4993 70.4552 98.8371 70.83 99.1641C69.919 102.718 70.873 106.765 73.7547 109.735C78.0335 114.144 84.8382 114.482 88.9538 110.488C91.7257 107.799 92.1923 99.5949 92.532 99.2654C92.8717 98.9357 101.086 98.7162 103.858 96.0265C107.973 92.0331 107.841 85.2212 103.562 80.8116C100.68 77.842 96.664 76.7665 93.0839 77.5702Z" stroke="#FFDD55" stroke-width="4" stroke-miterlimit="10" stroke-linecap="round" stroke-linejoin="round"/>
<path d="M56.3068 75.4304C58.3794 72.8579 57.1401 68.4204 53.5389 65.519C49.9376 62.6175 45.338 62.3509 43.2654 64.9234C41.1928 67.4959 42.4321 71.9334 46.0334 74.8348C49.6347 77.7362 54.2343 78.0029 56.3068 75.4304Z" stroke="#FFDD55" stroke-width="4" stroke-miterlimit="10" stroke-linecap="round" stroke-linejoin="round"/>
<path d="M58.0348 96.8434C59.4807 93.8733 57.2821 89.8246 53.1241 87.8005C48.9661 85.7764 44.4233 86.5433 42.9774 89.5134C41.5315 92.4836 43.7301 96.5322 47.8881 98.5564C52.046 100.581 56.5889 99.8136 58.0348 96.8434Z" stroke="#FFDD55" stroke-width="4" stroke-miterlimit="10" stroke-linecap="round" stroke-linejoin="round"/>
<path d="M90.8227 53.1487C88.8165 48.9819 84.7772 46.7659 81.8008 48.199C78.8244 49.6321 78.0379 54.1717 80.0441 58.3385C82.0504 62.5052 86.0896 64.7213 89.0661 63.2882C92.0425 61.8551 92.829 57.3154 90.8227 53.1487Z" stroke="#FFDD55" stroke-width="4" stroke-miterlimit="10" stroke-linecap="round" stroke-linejoin="round"/>
<path d="M69.2923 62.8535C71.8817 60.8023 71.6531 56.2008 68.7816 52.5758C65.9101 48.9507 61.4832 47.6749 58.8937 49.7261C56.3043 51.7773 56.5329 56.3787 59.4044 60.0038C62.2759 63.6288 66.7028 64.9046 69.2923 62.8535Z" stroke="#FFDD55" stroke-width="4" stroke-miterlimit="10" stroke-linecap="round" stroke-linejoin="round"/>
<path d="M162.854 119.155C162.77 118.665 162.674 118.174 162.547 117.683C160.244 108.759 151.625 103.268 143.296 105.417C134.967 107.567 130.083 116.544 132.386 125.468C132.513 125.959 132.666 126.435 132.83 126.904C130.279 129.542 129.105 133.53 130.139 137.537C131.675 143.486 137.421 147.147 142.973 145.714C146.713 144.749 151.179 137.852 151.637 137.733C152.095 137.615 159.341 141.49 163.081 140.525C168.634 139.092 171.89 133.107 170.355 127.158C169.32 123.15 166.363 120.228 162.854 119.155Z" stroke="#FFDD55" stroke-width="4" stroke-miterlimit="10" stroke-linecap="round" stroke-linejoin="round"/>
<path d="M134.462 89.1046C132.769 84.8009 128.904 82.2927 125.83 83.5023C122.756 84.7118 121.636 89.1812 123.329 93.4848C125.023 97.7885 128.888 100.297 131.962 99.0871C135.036 97.8776 136.156 93.4082 134.462 89.1046Z" stroke="#FFDD55" stroke-width="4" stroke-miterlimit="10" stroke-linecap="round" stroke-linejoin="round"/>
<path d="M122.863 118.556C125.589 116.69 125.683 112.084 123.071 108.267C120.46 104.45 116.133 102.868 113.407 104.733C110.68 106.598 110.586 111.205 113.198 115.022C115.809 118.839 120.136 120.421 122.863 118.556Z" stroke="#FFDD55" stroke-width="4" stroke-miterlimit="10" stroke-linecap="round" stroke-linejoin="round"/>
<path d="M172.985 96.8097C173.304 92.1959 170.891 88.2709 167.595 88.0429C164.299 87.8149 161.369 91.3704 161.05 95.9842C160.73 100.598 163.143 104.523 166.439 104.751C169.735 104.979 172.665 101.424 172.985 96.8097Z" stroke="#FFDD55" stroke-width="4" stroke-miterlimit="10" stroke-linecap="round" stroke-linejoin="round"/>
<path d="M154.113 85.4099C153.412 80.8387 150.197 77.5387 146.931 78.0393C143.666 78.5399 141.587 82.6514 142.288 87.2227C142.989 91.7939 146.204 95.0938 149.469 94.5932C152.734 94.0927 154.813 89.9811 154.113 85.4099Z" stroke="#FFDD55" stroke-width="4" stroke-miterlimit="10" stroke-linecap="round" stroke-linejoin="round"/>
</g>
<defs>
<clipPath id="clip0_115_255">
<rect width="160.2" height="160.2" fill="white" transform="translate(0 80.1) rotate(-30)"/>
</clipPath>
</defs>
</svg>
