<svg width="136" height="104" viewBox="0 0 136 104" fill="none" xmlns="http://www.w3.org/2000/svg">
<path d="M2 46.327C2 46.327 4.2564 52.0896 5.2017 52.6144C6.147 53.1392 12.8498 55.4781 13.4922 55.1072C14.1347 54.7363 18.5876 52.8077 18.5876 52.8077L18.1654 45.7721L11.8018 42.1668L4.4699 43.1883L2 46.327Z" fill="#FFEEAC"/>
<path d="M2.64062 25.1887L5.37873 30.6731L12.0815 33.012L16.4171 30.5089L16.8111 25.9996L12.5101 20.7751L5.23283 18.5536L2.64062 25.1887Z" fill="#FFEEAC"/>
<path d="M18.7764 7.52311L17.8643 14.4727L22.3622 17.4426L25.9329 18.8066L31.0033 16.0932L30.0381 11.0838L26.497 6.06291C26.497 6.06291 23.7538 4.64911 23.1116 5.01991C22.4695 5.39091 18.7764 7.52311 18.7764 7.52311Z" fill="#FFEEAC"/>
<path d="M38.499 5.3425L40.0023 12.3962C40.0023 12.3962 43.9391 18.4732 44.699 18.6768C45.4588 18.8804 51.2281 18.1187 51.2281 18.1187L51.6832 11.8613L48.339 4.5858L42.9273 3L38.499 5.3425Z" fill="#FFEEAC"/>
<path d="M25.125 38.5426C25.2426 39.117 25.8998 47.3015 25.8998 47.3015L30.5285 53.8354L31.9887 61.5561L36.9816 67.2371L44.7588 68.1001L51.1073 63.1501L52.4084 55.7621L64.101 52.651C64.101 52.651 68.62 44.9034 68.181 44.5143C67.743 44.1253 64.484 35.5155 64.484 35.5155C64.484 35.5155 55.0385 31.7629 53.7786 32.9183C53.7786 32.9183 46.5243 25.5452 39.4027 27.3016C32.2809 29.0582 27.285 33.0132 27.285 33.0132L25.125 38.5426Z" fill="#FFEEAC"/>
<path d="M71.6641 62.4151C71.6641 62.4151 72.7791 69.9071 73.3781 70.2031C73.9771 70.5001 79.7231 74.8901 79.7231 74.8901C79.7231 74.8901 85.1651 72.8191 85.0471 72.2441C84.9301 71.6701 83.8901 65.4191 83.8901 65.4191L80.2061 59.4101L71.6641 62.4151Z" fill="#FFEEAC"/>
<path d="M83.6904 41.3407L83.8414 49.3893L90.2364 54.9035L95.5404 47.7733L93.7224 42.3998L89.2674 38.763L83.6904 41.3407Z" fill="#FFEEAC"/>
<path d="M103.697 35.571C103.815 36.1454 102.842 44.8432 102.842 44.8432L108.131 49.9253L113.498 46.6128L113.921 38.4465L109.46 33.3147L103.697 35.571Z" fill="#FFEEAC"/>
<path d="M123.033 44.9602L121.646 53.6827L123.742 59.5381L127.584 59.8891L133.698 53.79C133.698 53.79 133.214 48.5025 132.936 48.0208C132.658 47.539 128.981 43.0248 128.981 43.0248L123.033 44.9602Z" fill="#FFEEAC"/>
<path d="M92.7931 71.1981C93.5111 73.3201 93.6241 82.2791 93.6241 82.2791C93.6241 82.2791 90.1361 89.2171 90.1861 90.0451C90.2361 90.8731 92.7271 97.7841 92.7271 97.7841L98.7701 101.575L104.817 101.295L112.394 93.2811L122.55 96.4091C122.55 96.4091 129.369 93.7571 130.362 89.5441C131.355 85.3311 129.234 79.0621 129.234 79.0621L123.006 74.9501L119.68 66.5931C119.68 66.5931 111.66 57.5221 105.965 59.5251C100.27 61.5281 91.8841 68.5111 92.7931 71.1981Z" fill="#FFEEAC"/>
<path d="M53.3106 33.0743C52.9951 32.6899 52.6685 32.3112 52.3155 31.9472C45.8975 25.3329 35.6901 24.827 29.5168 30.8173C23.3436 36.8075 23.542 47.0253 29.96 53.6396C30.3132 54.0034 30.6819 54.3412 31.0567 54.6682C30.1457 58.2221 31.0997 62.2691 33.9814 65.2391C38.2602 69.6481 45.0649 69.9861 49.1805 65.9921C51.9524 63.3031 52.419 55.099 52.7587 54.7695C53.0984 54.4398 61.3127 54.2203 64.0847 51.5306C68.1997 47.5372 68.0677 40.7253 63.7887 36.3157C60.9067 33.3461 56.8907 32.2706 53.3106 33.0743Z" stroke="#FFDD55" stroke-width="4" stroke-miterlimit="10" stroke-linecap="round" stroke-linejoin="round"/>
<path d="M16.5337 30.9345C18.6063 28.362 17.367 23.9245 13.7658 21.0231C10.1645 18.1216 5.56492 17.855 3.49232 20.4275C1.41972 23 2.65902 27.4375 6.26032 30.3389C9.86162 33.2403 14.4612 33.507 16.5337 30.9345Z" stroke="#FFDD55" stroke-width="4" stroke-miterlimit="10" stroke-linecap="round" stroke-linejoin="round"/>
<path d="M18.2615 52.3475C19.7074 49.3774 17.5088 45.3287 13.3508 43.3046C9.19284 41.2805 4.65005 42.0474 3.20415 45.0175C1.75825 47.9877 3.95684 52.0363 8.11484 54.0605C12.2727 56.0851 16.8156 55.3177 18.2615 52.3475Z" stroke="#FFDD55" stroke-width="4" stroke-miterlimit="10" stroke-linecap="round" stroke-linejoin="round"/>
<path d="M51.0494 8.65279C49.0432 4.48599 45.0039 2.26999 42.0275 3.70309C39.0511 5.13619 38.2646 9.67579 40.2708 13.8426C42.2771 18.0093 46.3163 20.2254 49.2928 18.7923C52.2692 17.3592 53.0557 12.8195 51.0494 8.65279Z" stroke="#FFDD55" stroke-width="4" stroke-miterlimit="10" stroke-linecap="round" stroke-linejoin="round"/>
<path d="M29.5188 18.3576C32.1082 16.3064 31.8796 11.7049 29.0081 8.0799C26.1366 4.4548 21.7097 3.179 19.1202 5.2302C16.5308 7.2814 16.7594 11.8828 19.6309 15.5079C22.5024 19.1329 26.9293 20.4087 29.5188 18.3576Z" stroke="#FFDD55" stroke-width="4" stroke-miterlimit="10" stroke-linecap="round" stroke-linejoin="round"/>
<path d="M123.081 74.6591C122.997 74.1691 122.901 73.6781 122.774 73.1871C120.471 64.2631 111.852 58.7721 103.523 60.9211C95.1938 63.0711 90.3098 72.0481 92.6128 80.9721C92.7398 81.4631 92.8928 81.9391 93.0568 82.4081C90.5058 85.0461 89.3318 89.0341 90.3658 93.0411C91.9018 98.9901 97.6478 102.651 103.2 101.218C106.94 100.253 111.406 93.3561 111.864 93.2371C112.322 93.1191 119.568 96.9941 123.308 96.0291C128.861 94.5961 132.117 88.6111 130.582 82.6621C129.547 78.6541 126.59 75.7321 123.081 74.6591Z" stroke="#FFDD55" stroke-width="4" stroke-miterlimit="10" stroke-linecap="round" stroke-linejoin="round"/>
<path d="M94.689 44.6087C92.996 40.305 89.131 37.7968 86.057 39.0064C82.983 40.2159 81.863 44.6853 83.556 48.9889C85.25 53.2926 89.115 55.8011 92.189 54.5912C95.263 53.3817 96.383 48.9123 94.689 44.6087Z" stroke="#FFDD55" stroke-width="4" stroke-miterlimit="10" stroke-linecap="round" stroke-linejoin="round"/>
<path d="M83.0896 74.0601C85.8156 72.1941 85.9096 67.5881 83.2976 63.7711C80.6866 59.9541 76.3596 58.3721 73.6336 60.2371C70.9066 62.1021 70.8126 66.7091 73.4246 70.5261C76.0356 74.3431 80.3626 75.9251 83.0896 74.0601Z" stroke="#FFDD55" stroke-width="4" stroke-miterlimit="10" stroke-linecap="round" stroke-linejoin="round"/>
<path d="M133.212 52.3138C133.531 47.7 131.118 43.775 127.822 43.547C124.526 43.319 121.596 46.8745 121.277 51.4883C120.957 56.1021 123.37 60.0271 126.666 60.2551C129.962 60.4831 132.892 56.9281 133.212 52.3138Z" stroke="#FFDD55" stroke-width="4" stroke-miterlimit="10" stroke-linecap="round" stroke-linejoin="round"/>
<path d="M114.34 40.914C113.639 36.3428 110.424 33.0428 107.158 33.5434C103.893 34.044 101.814 38.1555 102.515 42.7268C103.216 47.298 106.431 50.5979 109.696 50.0973C112.961 49.5968 115.04 45.4852 114.34 40.914Z" stroke="#FFDD55" stroke-width="4" stroke-miterlimit="10" stroke-linecap="round" stroke-linejoin="round"/>
</svg>
