<svg width="34" height="41" viewBox="0 0 34 41" fill="none" xmlns="http://www.w3.org/2000/svg">
<path d="M3.43782 13.3276C3.43782 13.3276 2.17742 16.5207 2.34551 16.7728C2.5136 17.0248 3.77399 20.0498 3.77399 20.0498C3.77399 20.0498 6.37878 20.47 6.46288 20.2179C6.54687 19.9658 7.55518 17.2769 7.55518 17.2769L7.47119 14.0839L3.43782 13.3276Z" fill="#D2DFFF"/>
<path d="M12.9325 7.78174L11.168 10.9747L12.4284 14.5879L16.1256 12.9913L16.6297 10.4705L15.7054 8.03382L12.9325 7.78174Z" fill="#D2DFFF"/>
<path d="M22.0911 10.0505C22.0071 10.3026 19.6543 13.4957 19.6543 13.4957L20.5786 16.6887L23.4355 16.6047L25.4521 13.4958L24.864 10.4708L22.0911 10.0505Z" fill="#D2DFFF"/>
<path d="M27.5533 18.1169L25.0325 21.2259L24.5283 23.9988L25.9568 25.0071L29.738 23.9988C29.738 23.9988 30.7463 21.814 30.7463 21.562C30.7463 21.3099 30.3261 18.7051 30.3261 18.7051L27.5533 18.1169Z" fill="#D2DFFF"/>
<path d="M9.74034 21.562C9.54119 22.5576 7.55562 26.0994 7.55562 26.0994C7.55562 26.0994 4.61465 28.0321 4.44667 28.3681C4.27858 28.7042 3.69043 31.9812 3.69043 31.9812L5.20291 34.8381L7.63971 36.0985L12.4292 34.67L15.7063 38.1991C15.7063 38.1991 18.9833 38.7033 20.3277 37.2748C21.6721 35.8463 22.2603 32.9055 22.2603 32.9055L20.7478 29.8805L21.336 25.8472C21.336 25.8472 20.2437 20.4696 17.5548 19.9654C14.8659 19.4614 9.99242 20.3016 9.74034 21.562Z" fill="#D2DFFF"/>
<path d="M20.8412 29.7832C20.9194 29.5718 20.9928 29.3574 21.0543 29.136C22.1724 25.1118 20.0341 21.0038 16.2782 19.9601C12.5223 18.9165 8.57122 21.3328 7.4531 25.357C7.39159 25.5784 7.3439 25.7999 7.30175 26.0213C5.70306 26.4785 4.33861 27.7778 3.83656 29.5847C3.09112 32.2675 4.51668 35.0063 7.02063 35.702C8.70704 36.1706 12.0226 34.4755 12.2292 34.533C12.4358 34.5904 14.4016 37.7529 16.0881 38.2215C18.592 38.9172 21.2261 37.3063 21.9716 34.6236C22.4735 32.8165 21.9749 30.9995 20.8412 29.7832Z" stroke="#171777" stroke-width="2" stroke-miterlimit="10" stroke-linecap="round" stroke-linejoin="round"/>
<path d="M16.5071 11.5563C16.8177 9.48363 15.8692 7.62352 14.3886 7.40165C12.908 7.17979 11.456 8.68019 11.1454 10.7529C10.8348 12.8256 11.7833 14.6857 13.2639 14.9076C14.7444 15.1294 16.1965 13.629 16.5071 11.5563Z" stroke="#171777" stroke-width="2" stroke-miterlimit="10" stroke-linecap="round" stroke-linejoin="round"/>
<path d="M5.28187 20.4863C6.77458 20.3721 7.85504 18.5855 7.69513 16.4958C7.53523 14.4061 6.19551 12.8047 4.7028 12.9189C3.21008 13.0331 2.12963 14.8197 2.28954 16.9094C2.44944 18.9991 3.78915 20.6005 5.28187 20.4863Z" stroke="#171777" stroke-width="2" stroke-miterlimit="10" stroke-linecap="round" stroke-linejoin="round"/>
<path d="M29.8794 23.3091C31.0501 21.5707 30.9924 19.4835 29.7506 18.6472C28.5088 17.811 26.5531 18.5423 25.3824 20.2808C24.2117 22.0192 24.2694 24.1064 25.5112 24.9426C26.753 25.7789 28.7087 25.0475 29.8794 23.3091Z" stroke="#171777" stroke-width="2" stroke-miterlimit="10" stroke-linecap="round" stroke-linejoin="round"/>
<path d="M25.057 14.5587C25.8178 12.6059 25.3036 10.5823 23.9087 10.0389C22.5137 9.49544 20.7662 10.638 20.0054 12.5908C19.2446 14.5436 19.7588 16.5672 21.1537 17.1107C22.5487 17.6541 24.2962 16.5116 25.057 14.5587Z" stroke="#171777" stroke-width="2" stroke-miterlimit="10" stroke-linecap="round" stroke-linejoin="round"/>
</svg>
