<svg width="50" height="50" viewBox="0 0 50 50" fill="none" xmlns="http://www.w3.org/2000/svg">
<rect x="50" y="50" width="50" height="50" rx="25" transform="rotate(-180 50 50)" fill="#D2DFFF"/>
<path d="M30.8278 24.9902L19.5742 13.7366C19.1914 13.3538 19.0064 12.9072 19.0191 12.3969C19.0319 11.8865 19.2297 11.4399 19.6124 11.0571C19.9952 10.6744 20.4418 10.483 20.9522 10.483C21.4625 10.483 21.9091 10.6744 22.2919 11.0571L34.0813 22.8083C34.3876 23.1146 34.6172 23.4591 34.7703 23.8418C34.9234 24.2246 35 24.6074 35 24.9902C35 25.3729 34.9234 25.7557 34.7703 26.1385C34.6172 26.5213 34.3876 26.8658 34.0813 27.172L22.2919 38.9614C21.9091 39.3442 21.4561 39.5292 20.933 39.5165C20.4099 39.5037 19.9569 39.3059 19.5742 38.9232C19.1914 38.5404 19 38.0938 19 37.5835C19 37.0731 19.1914 36.6265 19.5742 36.2437L30.8278 24.9902Z" fill="#171777"/>
</svg>
