<svg width="50" height="50" viewBox="0 0 50 50" fill="none" xmlns="http://www.w3.org/2000/svg">
<rect width="50" height="50" rx="25" fill="#D2DFFF"/>
<path d="M19.1722 25.0098L30.4258 36.2634C30.8086 36.6462 30.9936 37.0928 30.9809 37.6031C30.9681 38.1135 30.7703 38.5601 30.3876 38.9429C30.0048 39.3256 29.5582 39.517 29.0478 39.517C28.5375 39.517 28.0909 39.3256 27.7081 38.9429L15.9187 27.1917C15.6124 26.8854 15.3828 26.5409 15.2297 26.1582C15.0766 25.7754 15 25.3926 15 25.0098C15 24.6271 15.0766 24.2443 15.2297 23.8615C15.3828 23.4787 15.6124 23.1342 15.9187 22.828L27.7081 11.0386C28.0909 10.6558 28.5439 10.4708 29.067 10.4835C29.5901 10.4963 30.0431 10.6941 30.4258 11.0768C30.8086 11.4596 31 11.9062 31 12.4165C31 12.9269 30.8086 13.3735 30.4258 13.7563L19.1722 25.0098Z" fill="#171777"/>
</svg>
