<svg width="55" height="62" viewBox="0 0 55 62" fill="none" xmlns="http://www.w3.org/2000/svg">
<g clip-path="url(#clip0_163_3108)">
<path d="M4.8931 18.1802C4.8931 18.1802 2.79245 23.5019 3.0726 23.922C3.35274 24.3422 5.45339 29.3837 5.45339 29.3837C5.45339 29.3837 9.79469 30.084 9.93485 29.6639C10.0748 29.2437 11.7554 24.7623 11.7554 24.7623L11.6154 19.4406L4.8931 18.1802Z" fill="#FFEEAC"/>
<path d="M20.7183 8.9375L17.7773 14.2591L19.878 20.281L26.04 17.6201L26.8802 13.4188L25.3397 9.35763L20.7183 8.9375Z" fill="#FFEEAC"/>
<path d="M35.9832 12.7183C35.8432 13.1384 31.9219 18.4601 31.9219 18.4601L33.4624 23.7818L38.2238 23.6418L41.5849 18.4603L40.6046 13.4187L35.9832 12.7183Z" fill="#FFEEAC"/>
<path d="M45.0845 26.1631L40.8832 31.3446L40.043 35.9661L42.4238 37.6466L48.7257 35.9661C48.7257 35.9661 50.4063 32.3249 50.4063 31.9048C50.4063 31.4846 49.706 27.1433 49.706 27.1433L45.0845 26.1631Z" fill="#FFEEAC"/>
<path d="M15.3956 31.9046C15.0637 33.5639 11.7545 39.4669 11.7545 39.4669C11.7545 39.4669 6.85287 42.688 6.57289 43.2481C6.29275 43.8082 5.3125 49.2699 5.3125 49.2699L7.83329 54.0313L11.8946 56.132L19.8771 53.7512L25.3388 59.633C25.3388 59.633 30.8005 60.4733 33.0411 58.0925C35.2818 55.7117 36.2622 50.8103 36.2622 50.8103L33.7414 45.7687L34.7217 39.0466C34.7217 39.0466 32.9012 30.0839 28.4197 29.2436C23.9382 28.4035 15.8158 29.8039 15.3956 31.9046Z" fill="#FFEEAC"/>
<path d="M33.9013 45.6065C34.0316 45.2543 34.1539 44.8968 34.2564 44.528C36.12 37.821 32.5561 30.9742 26.2963 29.2348C20.0365 27.4955 13.4514 31.5225 11.5878 38.2295C11.4853 38.5986 11.4058 38.9678 11.3356 39.3368C8.67111 40.0988 6.39702 42.2643 5.56029 45.2758C4.31788 49.747 6.69381 54.3116 10.8671 55.4712C13.6777 56.2521 19.2036 53.427 19.548 53.5228C19.8923 53.6186 23.1687 58.8894 25.9795 59.6703C30.1526 60.8299 34.5428 58.1451 35.7852 53.6739C36.6218 50.662 35.7907 47.6337 33.9013 45.6065Z" stroke="#171777" stroke-width="3" stroke-miterlimit="10" stroke-linecap="round" stroke-linejoin="round"/>
<path d="M26.68 15.2282C27.1977 11.7737 25.6169 8.67351 23.1493 8.30374C20.6816 7.93397 18.2616 10.4346 17.7439 13.8891C17.2263 17.3436 18.8071 20.4438 21.2747 20.8136C23.7423 21.1833 26.1624 18.6827 26.68 15.2282Z" stroke="#171777" stroke-width="3" stroke-miterlimit="10" stroke-linecap="round" stroke-linejoin="round"/>
<path d="M7.96976 30.1118C10.4576 29.9214 12.2584 26.9438 11.9919 23.461C11.7253 19.9782 9.4925 17.3092 7.00465 17.4995C4.5168 17.6899 2.71605 20.6676 2.98256 24.1504C3.24907 27.6332 5.48191 30.3022 7.96976 30.1118Z" stroke="#171777" stroke-width="3" stroke-miterlimit="10" stroke-linecap="round" stroke-linejoin="round"/>
<path d="M48.9673 34.8157C50.9184 31.9184 50.8223 28.4397 48.7526 27.046C46.683 25.6522 43.4234 26.8711 41.4723 29.7685C39.5212 32.6659 39.6173 36.1445 41.6869 37.5383C43.7566 38.932 47.0161 37.7131 48.9673 34.8157Z" stroke="#171777" stroke-width="3" stroke-miterlimit="10" stroke-linecap="round" stroke-linejoin="round"/>
<path d="M40.926 20.2324C42.1939 16.9777 41.3371 13.6051 39.0122 12.6993C36.6872 11.7936 33.7747 13.6978 32.5067 16.9525C31.2388 20.2072 32.0957 23.5799 34.4206 24.4856C36.7455 25.3914 39.6581 23.4871 40.926 20.2324Z" stroke="#171777" stroke-width="3" stroke-miterlimit="10" stroke-linecap="round" stroke-linejoin="round"/>
</g>
<defs>
<clipPath id="clip0_163_3108">
<rect width="54.0004" height="61.3059" fill="white" transform="translate(0.5 0.634277)"/>
</clipPath>
</defs>
</svg>
