<svg width="329" height="329" viewBox="0 0 329 329" fill="none" xmlns="http://www.w3.org/2000/svg">
<g clip-path="url(#clip0_163_2881)">
<path d="M63.7167 155.411C63.7167 155.411 67.1031 164.059 68.5218 164.847C69.9405 165.634 80 169.145 80.9642 168.588C81.9283 168.031 88.6113 165.137 88.6113 165.137L87.9777 154.578L78.4272 149.167L67.4236 150.7L63.7167 155.411Z" fill="#FFEEAC"/>
<path d="M64.6788 123.687L68.7882 131.918L78.8477 135.428L85.3544 131.671L85.9458 124.903L79.4909 117.063L68.5692 113.729L64.6788 123.687Z" fill="#FFEEAC"/>
<path d="M88.8946 97.1742L87.5258 107.604L94.2762 112.061L99.6351 114.108L107.245 110.036L105.796 102.518L100.482 94.9826C100.482 94.9826 96.3648 92.8609 95.4009 93.4174C94.4372 93.9742 88.8946 97.1742 88.8946 97.1742Z" fill="#FFEEAC"/>
<path d="M118.493 93.9015L120.75 104.488C120.75 104.488 126.658 113.608 127.798 113.914C128.939 114.219 137.597 113.076 137.597 113.076L138.28 103.685L133.261 92.7658L125.139 90.386L118.493 93.9015Z" fill="#FFEEAC"/>
<path d="M98.4207 143.728C98.5972 144.59 99.5836 156.873 99.5836 156.873L106.53 166.679L108.722 178.267L116.215 186.793L127.887 188.087L137.415 180.659L139.367 169.57L156.915 164.902C156.915 164.902 163.697 153.274 163.039 152.69C162.381 152.106 157.491 139.185 157.491 139.185C157.491 139.185 143.315 133.553 141.424 135.287C141.424 135.287 130.537 124.222 119.849 126.858C109.16 129.494 101.662 135.429 101.662 135.429L98.4207 143.728Z" fill="#FFEEAC"/>
<path d="M168.269 179.555C168.269 179.555 169.941 190.8 170.841 191.244C171.74 191.689 180.364 198.278 180.364 198.278C180.364 198.278 188.53 195.17 188.354 194.307C188.178 193.445 186.617 184.064 186.617 184.064L181.089 175.045L168.269 179.555Z" fill="#FFEEAC"/>
<path d="M186.317 147.927L186.543 160.007L196.141 168.282L204.101 157.581L201.373 149.517L194.687 144.059L186.317 147.927Z" fill="#FFEEAC"/>
<path d="M216.342 139.268C216.519 140.13 215.058 153.184 215.058 153.184L222.996 160.811L231.051 155.84L231.687 143.584L224.991 135.882L216.342 139.268Z" fill="#FFEEAC"/>
<path d="M245.363 153.36L243.281 166.45L246.427 175.238L252.194 175.764L261.368 166.611C261.368 166.611 260.643 158.676 260.225 157.953C259.808 157.23 254.29 150.455 254.29 150.455L245.363 153.36Z" fill="#FFEEAC"/>
<path d="M199.977 192.737C201.055 195.922 201.225 209.368 201.225 209.368C201.225 209.368 195.99 219.78 196.065 221.022C196.139 222.265 199.879 232.637 199.879 232.637L208.947 238.326L218.023 237.906L229.394 225.879L244.636 230.574C244.636 230.574 254.87 226.593 256.36 220.27C257.851 213.947 254.668 204.539 254.668 204.539L245.321 198.368L240.33 185.826C240.33 185.826 228.292 172.212 219.746 175.218C211.199 178.225 198.613 188.704 199.977 192.737Z" fill="#FFEEAC"/>
<path d="M140.725 135.521C140.252 134.944 139.762 134.376 139.232 133.83C129.6 123.903 114.281 123.144 105.016 132.134C95.7513 141.124 96.0491 156.459 105.681 166.385C106.211 166.932 106.765 167.438 107.327 167.929C105.96 173.263 107.392 179.337 111.717 183.794C118.138 190.412 128.351 190.918 134.527 184.924C138.687 180.888 139.387 168.576 139.897 168.081C140.407 167.586 152.735 167.257 156.895 163.22C163.071 157.227 162.872 147.004 156.451 140.386C152.126 135.929 146.099 134.315 140.725 135.521Z" stroke="#FFDD55" stroke-width="8" stroke-miterlimit="10" stroke-linecap="round" stroke-linejoin="round"/>
<path d="M85.5307 132.31C88.6412 128.449 86.7813 121.789 81.3765 117.435C75.9717 113.08 69.0687 112.68 65.9582 116.541C62.8477 120.402 64.7076 127.062 70.1124 131.416C75.5172 135.77 82.4202 136.171 85.5307 132.31Z" stroke="#FFDD55" stroke-width="8" stroke-miterlimit="10" stroke-linecap="round" stroke-linejoin="round"/>
<path d="M88.1228 164.446C90.2928 159.989 86.9932 153.912 80.7529 150.875C74.5126 147.837 67.6948 148.988 65.5248 153.445C63.3548 157.903 66.6544 163.979 72.8947 167.017C79.1349 170.055 85.9528 168.904 88.1228 164.446Z" stroke="#FFDD55" stroke-width="8" stroke-miterlimit="10" stroke-linecap="round" stroke-linejoin="round"/>
<path d="M137.33 98.8696C134.319 92.6161 128.257 89.2903 123.79 91.4411C119.323 93.5919 118.143 100.405 121.154 106.658C124.165 112.912 130.227 116.238 134.694 114.087C139.161 111.936 140.341 105.123 137.33 98.8696Z" stroke="#FFDD55" stroke-width="8" stroke-miterlimit="10" stroke-linecap="round" stroke-linejoin="round"/>
<path d="M105.018 113.434C108.904 110.356 108.561 103.45 104.251 98.0098C99.9419 92.5694 93.2979 90.6546 89.4117 93.733C85.5254 96.8113 85.8685 103.717 90.178 109.158C94.4876 114.598 101.132 116.513 105.018 113.434Z" stroke="#FFDD55" stroke-width="8" stroke-miterlimit="10" stroke-linecap="round" stroke-linejoin="round"/>
<path d="M245.435 197.931C245.309 197.195 245.164 196.459 244.974 195.722C241.518 182.329 228.582 174.088 216.082 177.314C203.582 180.54 196.251 194.012 199.708 207.405C199.898 208.142 200.128 208.856 200.374 209.561C196.546 213.52 194.784 219.505 196.336 225.519C198.641 234.448 207.264 239.942 215.598 237.791C221.21 236.343 227.913 225.991 228.6 225.814C229.288 225.636 240.163 231.451 245.775 230.003C254.109 227.852 258.996 218.87 256.692 209.942C255.139 203.928 250.7 199.542 245.435 197.931Z" stroke="#FFDD55" stroke-width="8" stroke-miterlimit="10" stroke-linecap="round" stroke-linejoin="round"/>
<path d="M202.825 152.832C200.284 146.373 194.484 142.609 189.87 144.424C185.256 146.239 183.576 152.947 186.117 159.406C188.659 165.865 194.459 169.629 199.073 167.814C203.686 165.998 205.366 159.291 202.825 152.832Z" stroke="#FFDD55" stroke-width="8" stroke-miterlimit="10" stroke-linecap="round" stroke-linejoin="round"/>
<path d="M185.417 197.032C189.509 194.233 189.649 187.319 185.731 181.591C181.812 175.862 175.318 173.488 171.226 176.287C167.134 179.087 166.993 186 170.912 191.728C174.831 197.457 181.325 199.831 185.417 197.032Z" stroke="#FFDD55" stroke-width="8" stroke-miterlimit="10" stroke-linecap="round" stroke-linejoin="round"/>
<path d="M260.639 164.396C261.118 157.471 257.496 151.581 252.55 151.239C247.604 150.896 243.206 156.232 242.727 163.157C242.248 170.081 245.869 175.972 250.815 176.314C255.762 176.656 260.16 171.32 260.639 164.396Z" stroke="#FFDD55" stroke-width="8" stroke-miterlimit="10" stroke-linecap="round" stroke-linejoin="round"/>
<path d="M232.315 147.287C231.263 140.426 226.438 135.474 221.537 136.225C216.637 136.976 213.517 143.147 214.568 150.008C215.62 156.868 220.445 161.82 225.346 161.069C230.247 160.318 233.367 154.147 232.315 147.287Z" stroke="#FFDD55" stroke-width="8" stroke-miterlimit="10" stroke-linecap="round" stroke-linejoin="round"/>
</g>
<defs>
<clipPath id="clip0_163_2881">
<rect width="240.427" height="240.427" fill="white" transform="translate(0 120.213) rotate(-30)"/>
</clipPath>
</defs>
</svg>
