<svg xmlns="http://www.w3.org/2000/svg" width="182" height="44" fill="none" xmlns:v="https://vecta.io/nano"><g clip-path="url(#A)" fill="#171777"><path d="M49.681 23.264V.886h1.404v42.25h-1.404V23.264zm65.881-3.262c-.54.086-.777-.173-.993-.583l-3.932-7.733-.043.691.108 6.999c0 .475-.108.648-.605.648-1.771 0-1.771.022-1.771-1.75V6.934l1.815.022c.216.022.432.302.561.518l3.543 6.999c.108.194.216.389.432.54v-8.1l2.03.022c.087 0 .238.324.238.497v2.462 9.159c0 .627-.324.929-.951.929h-.453l.021.022zm-25.467-3.326l-.194-.605c-.626-1.836-.648-1.836-2.722-1.534v.67 4.212c0 .454-.151.583-.605.583-1.836 0-1.836.043-1.836-1.814V6.977l5.789.043c1.49.108 2.484 1.08 2.83 2.57.367 1.534.173 2.938-1.188 3.953-.346.259-.432.518-.281.929l1.642 4.709c.086.216.13.454.238.799h-2.376c-.108 0-.259-.259-.324-.432l-.994-2.851m-2.894-5.659v1.231h2.182.389c.756-.065 1.296-.648 1.382-1.404.065-.799-.324-1.577-1.037-1.663-.95-.108-1.922-.022-2.916-.022v1.858zm-17.022 6.653c-.605 1.534-1.771 2.225-3.283 2.29l-4.73.022c-.324 0-.475-.108-.475-.454V7.171c0-.065.043-.108.065-.194l5.681.043c1.685.151 2.808 1.318 2.894 3.002.13 2.29.043 4.579.022 6.869 0 .259-.108.497-.194.799m-2.095-4.579v-2.527c-.022-.886-.605-1.447-1.49-1.469h-2.009c-.324 0-.454.108-.454.454v7.776c0 .367.13.497.497.497h1.879c1.037-.043 1.577-.605 1.599-1.642v-3.046l-.022-.043zm56.051-3.996c-.432-.043-.626.065-.605.497v2.138c0 .389.13.54.519.518h3.369c.475 0 .583.151.583.605 0 1.599.022 1.599-1.576 1.599h-2.398c-.367 0-.518.108-.497.475v2.333c0 .454.195.54.583.54h4.213c.41 0 .561.086.583.54.043 1.663.043 1.663-1.599 1.663h-6.134V6.999h7.711l-.021 1.75c0 .151-.324.367-.519.367h-4.212zM97.051 15.79V6.977h7.733l-.022 1.901c0 .086-.324.238-.497.238h-4.147c-.562 0-.713.173-.67.713.043.648.022 1.296 0 1.944 0 .389.151.518.54.518h3.37c.454 0 .583.151.583.605 0 1.598 0 1.598-1.577 1.598h-2.332c-.389 0-.605.086-.584.54v2.268c0 .432.151.562.584.562h4.795v1.944c0 .086-.238.238-.367.238h-6.956c-.13 0-.367-.324-.389-.497v-3.694l-.065-.065zm37.411 1.858c.713.518 1.49.454 2.225.259 1.08-.302 1.339-1.728.475-2.441-.41-.346-.929-.562-1.382-.821l-2.355-1.361c-1.339-.95-1.642-2.333-1.296-3.866.367-1.512 1.382-2.333 2.895-2.614 2.052-.367 3.65.259 4.6 1.75.324.497.303.821-.302 1.015-.108.022-.194.086-.281.151-.367.173-.756.497-1.101.475-.281-.022-.497-.518-.756-.799-.8-.864-2.355-.54-2.7.583-.195.626 0 1.123.518 1.469.475.281 1.015.497 1.49.756.692.367 1.404.691 2.031 1.145 1.404 1.037 1.901 2.787 1.339 4.471-.497 1.49-1.75 2.355-3.564 2.398-.518 0-1.037 0-1.555-.022-1.318-.108-2.225-.843-2.873-1.966-.216-.367-.216-.626.237-.799.389-.151.8-.346 1.167-.583.389-.238.626-.173.799.259.065.194.238.367.389.562v-.022zm-59.811-6.459l-2.268-4.255 2.549.022c.173 0 .367.259.475.454l1.555 3.197.389.734.367-.605c.432-.886.95-1.771 1.274-2.7.346-.929.886-1.274 1.836-1.123.432.065.886 0 1.469 0l-.346.756-3.111 5.832a2.43 2.43 0 0 0-.259 1.102v4.795c0 .454-.151.583-.605.605-1.836 0-1.836.043-1.836-1.814v-.972c.259-2.182-.216-4.19-1.512-6.026h.022zm-4.277 16.546c.108.994-.151 1.814-.799 2.506-.324.346-.346.626 0 .994.972 1.08 1.015 2.354.648 3.65-.367 1.318-1.296 2.247-2.657 2.355-1.922.13-3.888.043-5.854.043V24.365c.173 0 .324-.065.497-.065h4.407c2.203.043 3.478 1.188 3.78 3.456m-2.419 5.184c-.302-.821-.691-1.102-1.534-1.123h-1.944c-.324 0-.475.108-.454.454l.022 2.462c0 .151.281.41.454.432.497.065.994.022 1.49.022 1.598 0 2.095-.518 1.987-2.225m-3.974-4.428v.389c-.086.583.151.778.713.713.562-.043 1.123 0 1.685 0 .95 0 1.555-.626 1.577-1.534.022-.929-.583-1.62-1.534-1.642-.648-.022-1.296 0-1.944 0-.41 0-.54.173-.518.54v1.555l.022-.022zm34.365.303l.13.605.518-.626 3.024-3.974c.302-.41.626-.583 1.145-.54.669.043 1.317 0 2.138 0l-.497.713-3.434 4.234c-.281.346-.302.583-.065.95l3.975 6.394c.129.194.216.41.41.734-1.015 0-1.879.022-2.765-.022-.151 0-.302-.281-.41-.454l-2.722-4.342-.454-.67c-.475.605-1.037 1.015-1.015 1.836v3.111c0 .41-.13.583-.562.562-.605-.022-1.21 0-1.836 0V24.279l2.074.022c.108 0 .302.324.302.497v4.018l.043.022zm47.586 6.329h2.463v2.138c-.13 0-.303.043-.475.043h-6.632c-.367 0-.604-.022-.604-.518V24.625c0-.086.021-.173.043-.302h7.668v2.117h-4.363c-.627 0-.951.324-.951.95v1.555c-.043.497.108.691.648.67h3.24c.432 0 .605.108.605.583 0 1.62.022 1.62-1.577 1.62h-2.397c-.411 0-.54.151-.519.54v2.268c0 .432.151.562.562.562h2.268l.021-.021zm32.854-10.887h1.879c.389 0 .584.086.584.54.043 1.663.043 1.663-1.599 1.663h-3.24c-.389 0-.54.13-.518.518v2.635h3.845c.475 0 .669.13.626.626s0 .994 0 1.577h-2.959c-1.512 0-1.512 0-1.491 1.49 0 .605-.151 1.382.151 1.728.26.302 1.102.13 1.664.13h2.916c.432 0 .605.108.605.583 0 1.62.021 1.62-1.577 1.62h-6.156V24.322h5.248l.022-.043zM75.45 37.347h-1.512V24.322c.173 0 .324-.065.497-.065h6.631c.497 0 .626.151.626.627 0 1.555 0 1.555-1.555 1.555H76.4v3.154h3.218c.778 0 1.166.389 1.166 1.166v.454c.065.454-.151.605-.583.583-1.102-.022-2.203 0-3.305 0-.432 0-.562.13-.562.562v2.786h3.823c1.642 0 1.814.194 1.512 1.836-.022.151-.346.324-.54.324H75.47l-.022.043zm86.791-2.441l1.944-.95.108.238c.475 1.318 1.447 1.275 2.57 1.145.583-.086.972-.475 1.123-1.058s.043-1.102-.432-1.469c-.432-.324-.929-.562-1.382-.821l-2.355-1.361c-1.36-.972-1.663-2.376-1.274-3.931.367-1.512 1.426-2.333 2.938-2.549 1.749-.259 3.348 0 4.428 1.598.172.238.28.518.432.842l-1.858.907c-.13.043-.497-.173-.605-.346-.432-.713-1.058-1.015-1.857-.842-.627.13-1.059.497-1.188 1.123-.152.626.108 1.123.648 1.404l2.203 1.08c1.317.67 2.397 1.534 2.678 3.111.454 2.398-.929 4.298-3.348 4.514-.756.065-1.512.022-2.268-.065-1.209-.173-2.009-.95-2.549-2.009-.064-.13 0-.346.044-.54v-.022zm-70.396-3.737c1.037 1.166 1.21 2.484.821 3.866-.13.497-.432 1.015-.778 1.383-1.728 1.901-5.789 1.469-7.128-.691-.302-.475-.346-.799.281-1.037.497-.194.972-.475 1.469-.713.086.065.173.108.194.194.519 1.361 1.447 1.275 2.506 1.166.605-.065 1.015-.454 1.188-1.037.173-.605.022-1.145-.475-1.512-.454-.324-.972-.562-1.447-.842-.778-.454-1.62-.842-2.333-1.382-1.318-.994-1.577-2.398-1.188-3.91.389-1.447 1.382-2.268 2.851-2.506 1.771-.281 3.37-.043 4.493 1.577.108.151.194.281.259.454.065.108.086.238.151.432l-1.858.907c-.13.043-.432-.173-.562-.346-.583-.821-1.058-1.058-1.901-.864-.626.13-1.037.518-1.166 1.166-.13.605.108 1.08.648 1.361l1.922.95c.713.41 1.361.907 2.074 1.383h-.022zm22.183-.583c-.151.583-.388 1.102-.41 1.642v4.536c0 .454-.13.583-.583.605-1.815 0-1.815.022-1.815-1.814 0-1.383.238-2.83-.086-4.126s-1.21-2.462-1.858-3.694l-1.469-2.743-.324-.691h2.549c.151 0 .324.259.411.432l1.598 3.262.41.713.411-.713 1.598-3.262c.13-.216.476-.432.735-.454.669-.065 1.361 0 2.268 0l-3.37 6.329-.065-.022zm45.728 5.228v1.49l-.453.043h-6.739c-.411 0-.562-.108-.562-.54v-12.01c0-.367.086-.562.518-.54h1.88c0 .281.043.518.043.734v9.288c0 3.089.302.864.885.864h3.888c.476 0 .627.173.562.67h-.022zm-24.732-2.917v3.888c0 .41-.108.583-.54.562-.583-.022-1.166 0-1.793 0 0-.302-.043-.562-.043-.821v-9.331c0-.626-.194-.799-.778-.756-.626.043-1.231 0-1.879 0V24.3h7.625v2.139h-1.728c-.605 0-.885.281-.885.864v5.573l.021.022zm-12.68 4.256v-9.979c0-.518-.108-.756-.669-.713-.519.043-1.037 0-1.556 0-.324 0-.496-.108-.453-.454v-.065c-.043-1.102.475-1.663 1.577-1.663h6.134v2.182h-2.03c-.497-.022-.627.151-.627.626v9.483.842l-2.333-.259h-.043zM.734 29.83c-.95-5.983-1.145-11.923.562-17.734C3.283 5.379 7.905 1.49 14.817.454c4.082-.626 8.208-.626 12.269.151 6.459 1.253 10.779 5.076 12.571 11.362 1.879 6.588 1.901 13.349.022 19.937-1.901 6.739-6.588 10.584-13.522 11.643-4.104.626-8.251.648-12.334-.173C6.761 41.97 2.635 37.52.907 30.651c-.065-.259-.108-.518-.173-.821zm24.257 6.415c-.086.475-.13.972-.259 1.447-.043.173-.259.389-.432.41-.626.043-1.253 0-1.858 0 0-.842-.086-.907-.821-.691-.41.108-.799.324-1.188.497l-1.836.756c-.497.194-1.145.281-1.426.648-.454.562-.972.778-1.598.95-.194.043-.475.302-.497.497a.74.74 0 0 0 .41.562c.54.216 1.102.389 1.685.454 1.08.151 2.182.151 3.197.67.367.194.843.194 1.253.216.259 0 .518-.13.778-.194-.13-.238-.259-.454-.367-.691 0-.022 0-.086 0 .043 1.058-.562 2.182-.95 3.089-1.642 1.059-.778 1.944-1.814 2.895-2.743.108-.108.108-.302.173-.454-.151-.043-.324-.151-.454-.13-.389.043-.756.173-1.145.238-.756.151-1.037-.086-1.037-.886h10.325c3.435 0 .281.022.389 0 .108-.065.259-.194.259-.302s-.13-.281-.238-.324c-.151-.065-.346-.022-.518-.022H5.486c-.194 0-.41-.022-.583.043-.108.043-.194.216-.194.346 0 .086.13.238.216.259.194.043.389.022.583.022h12.528l6.977.043M36.44 18.879c.583.022 1.015-.173 1.253-.713.259-.54-.108-.886-.41-1.253-.518-.648-1.08-1.274-1.555-1.987-.389-.605-.54-1.382-1.361-1.598.799-1.08.821-1.253.259-1.771-.194.281-.324.648-.583.799-.583.302-1.08.626-1.123 1.123-.454.194-.778.281-1.08.454-.238.13-.389.41-.648.518-1.62.648-3.218.043-4.86-.065.194-1.188.259-2.29.95-3.262.389-.54.605-1.253.713-1.922.108-.583.151-1.318-.108-1.771-.281-.475-.259-.864-.194-1.318.108-.67.238-1.318.324-1.987.022-.216 0-.432 0-.648-.086 0-.173-.022-.281-.043l-.583 3.218c-.821.108-1.188.842-.864 1.534.194.41.454.972.324 1.318-.281.756-.843 1.404-1.706 1.685-.259-.778-.518-1.49-.734-2.246-.259-.886-.842-1.361-1.706-1.598-.216-.065-.389-.259-.583-.389.173-.151.346-.389.54-.432.475-.13.583-.389.454-.821-.173-.626-.324-1.253-.518-1.879-.238-.734-.734-1.166-1.512-1.21-.756-.043-1.836.54-2.03 1.166-.108.346-.173.799-.043 1.123.281.691.713 1.339 1.102 2.074-.324.454-.864.713-1.49.864-.346.086-.821.259-.972.518-.41.778-.691 1.62-1.037 2.441l-.626 1.577c-.583-.497-1.059-.842-1.469-1.253-1.75-1.642-3.823-2.376-6.221-2.268-.259 0-.518-.13-.778-.238l-1.49-.583c.108.367.108.54.194.648.346.41.259.842.151 1.339-.151.691-.194 1.404-.238 2.117-.043.864-.043 1.728-.043 2.57 0 .583-.043 1.166 0 1.75 0 .216.173.497.346.648.778.648 1.922.324 2.268-.648.281-.842.756-1.534 1.577-1.987.691 1.123 1.188 2.225.562 3.586-.432.907-.41 1.901 0 2.83.324.713 0 1.577-.778 1.771-1.771.497-3.24 1.469-4.32 2.938-.54.734-1.102 1.166-2.03.691 0 0-.065.043-.238.13.173.238.302.497.475.691.842.886.842 2.462-.022 3.348-.259.259-.259.454-.043.713.454.518 1.058.367 1.62.389.173 0 .346-.302.54-.454.238-.216.475-.432.734-.626l1.814-1.339c.173-.13.367-.216.605-.367.108 1.08.259 2.009-.497 2.808-.065.086 0 .454.043.454.389 0 .821.043 1.188-.043.389-.108.497-.41.54-.842.043-.54.259-1.058.41-1.577.259 1.123.367 2.203.54 3.262.043.302.216.713.432.799 1.598.648 3.197 1.382 4.882.216a.29.29 0 0 1 .173-.065c1.037 0 2.095-.173 3.089 0 1.383.259 2.549-.648 2.787-1.901.108-.605.259-1.188.367-1.771l.54-3.391h.216c0 .367.043.756 0 1.102l-.907 5.638c-.022.194 0 .389.022.583h.259l.907-5.271c.778 1.274.518 2.527.54 3.737 0 .497 0 .994-.605 1.231-.13.043-.216.346-.259.54a.48.48 0 0 0 .281.259c.562.043 1.123 0 1.339-.626.151-.454.302-.907.389-1.361.13-.778.194-1.555.281-2.333h.216c.432 1.469.41 2.916-.54 4.298 1.361.173 1.555.086 1.771-1.058.173-.929.216-1.901.346-2.83.043-.259.086-.518.194-.735.389-.929 1.339-.972 2.117-1.145.302-.065.821.173 1.037.432.475.605.799 1.318 1.21 1.987.389.648.281 1.166-.367 1.642-.151.108-.281.389-.238.518s.302.302.475.302c.367 0 .713-.086 1.08-.151.238.216.54.432.799.389.281-.043.799-.367.778-.497-.13-1.037.281-2.16-.583-3.067-.497-.518-.691-1.188-.41-1.793.734.086 1.404.194 2.074.238.151 0 .324-.259.497-.389-.173-.086-.346-.216-.518-.281-.54-.238-1.123-.41-1.62-.713-.13-.086-.216-.497-.13-.691.259-.605.626-1.188.907-1.793.216-.454.562-.605 1.08-.518.022.259.065.518.108.864.454-.432.864-.778 1.231-1.166.065-.065.065-.324 0-.432-.41-.583-.843-1.123-1.296-1.685-.194-.238-.432-.454-.605-.713-.259-.324-.497-.67-.756-1.015l-.238.13.194 1.339c-.691.108-.907.497-.691 1.145-.821.605-1.793.173-2.722.389 0-.173 0-.302.022-.389l1.339-3.694c.065-.173.302-.411.432-.389 1.037.13 2.095-.367 3.24.13M11.232 4.687c-.259.302-.497.626-.756.929 0 .065.022.13.043.194.799-.346 1.339.043 1.901.475.151.108.497.108.67 0 .799-.54 1.62-.778 2.571-.562.065 0 .324-.302.302-.367-.259-.454-.497-.886-1.21-.778-.95.151-1.879 0-2.527-.864-.108-.151-.259-.302-.432-.389-.13-.086-.367-.194-.454-.151-.13.086-.259.302-.238.475 0 .324.13.648.151 1.08l-.022-.043z"/><path d="M16.092 12.55l1.166-3.024c.259-.734.648-1.231 1.512-1.361.821-.13 1.469-.67 1.771-1.598-1.08-.194-.972-1.253-1.447-1.901-.065-.086-.065-.324 0-.367.454-.367.886-.799 1.426-1.015.238-.108.821.151.972.389.432.734.735 1.534 1.102 2.333-.302.13-.518.173-.648.302-.173.173-.454.454-.411.626.065.281.324.713.54.756 1.102.173 1.642.821 1.879 1.858.173.734.454 1.426.734 2.311l1.728-1.058c.086 1.08-.778 2.333-1.836 2.484-.216.022-.562-.281-.734-.518-.346-.432-.605-.929-.886-1.404-.518.13-.67.432-.562.886l.994 4.946c.238 1.598.281 3.219.41 4.817l-.238.173-1.793-.518c-.475-.173-.735-.065-.778.41-.022.281 0 .626.13.864.216.367.54.67.821.994.734.821 1.382 1.599 1.123 2.851l-.95 5.227c-.216 1.037-1.015 1.512-2.03 1.426-.562-.043-1.123 0-1.663 0h-1.663c-.108-.929-.475-1.361-1.102-1.296.216-.907.216-1.814.799-2.614.302-.41.367-1.037.367-1.555s-.108-.799.281-1.166c.389-.346.259-1.015-.194-1.555-.13-.173-.238-.432-.216-.648.13-1.037.54-2.095.454-3.11-.173-2.419.281-4.73.929-7.02.13-.475.324-.972.324-1.447 0-.734-.151-1.49-.238-2.225-.086 0-.194-.022-.281-.043-.151.302-.367.605-.454.929-.324 1.339-1.188 2.376-1.879 3.521-.475.778-.734 1.685-1.102 2.549-.691-.216-.799.778-1.534.756.259-.346.432-.756.756-1.037.583-.518.907-1.123 1.145-1.836.346-1.015.799-2.009 1.231-3.046l.043-.043z"/><path d="M15.357 16.503l1.447-2.506c.756.194.972.518.734 1.21-.691 2.009-.907 4.083-.713 6.199.043.454-.043.907-.086 1.469-1.901-1.037-3.823-.95-6.005-.389.67-.756.454-1.339.173-1.966-.389-.886-.173-1.793.194-2.635.67-1.62-.281-2.786-1.015-4.082-.886.842-1.706 1.577-2.03 2.722-.151.54-.67.648-1.166.583-.475-.065-.691-.41-.67-.886l.086-1.555.043-2.376c.043-.821.173-1.62.259-2.441l.108-.778 2.808.389c1.274.238 2.441.756 3.456 1.555l2.376 1.879-1.166 3.391c-.151.389-.583.67-.886 1.015-.475.562-.994 1.123-.648 1.966.043.108.13.194.259.367l.95-1.08c.475.54.799.475.994-.173l.475-1.814.022-.065zm16.589 3.931l-1.08 2.743c-.065.13-.324.238-.497.238-.994 0-1.987-.043-2.981-.086-.799-.022-1.555.022-2.138.713-.065 0-.13-.022-.173-.043 0-.583-.108-1.166 0-1.728l1.058-6.653c.065-.454.216-.648.713-.562.389.086.821.086 1.21.194 1.274.389 2.441.086 3.586-.432.281-.13.497-.432.842-.756.454.151.821-.086.972-.756.043-.216.216-.41.432-.54.108.605.216.994.778 1.123.151.043.281.259.367.432.475 1.08 1.123 2.03 2.009 2.851.259.238.562.54.259.95-.281.389-.67.389-1.102.302s-.864-.108-1.296-.13c-.454 0-.907.086-1.361.022-.605-.065-.95.238-1.145.735-.173.41-.259.864-.389 1.361l-.065.022z"/><path d="M11.275 22.875c1.339-.238 2.635-.389 3.91 0 .259.065.497.151.734.281.238.151.454.367.67.562l-.605.583c-.54.41-1.296.497-1.577 1.253-.13.324-.302.648-.54.907-.216.259-.518.497-.842.583-1.447.432-3.11 2.484-3.175 4.018-.022.562-.346.648-.929.626.929-1.102.41-2.333.626-3.694l-1.404.821c-.886.648-1.685 1.426-2.635 1.944-.324.173-.972.864-1.49.043.864-1.102 1.015-2.938.367-3.715.324-.259.756-.432.972-.756 1.447-2.009 3.456-3.089 5.919-3.499v.043zm21.687 9.137l-.454-1.253-1.059-1.922c-.043-.086-.108-.259-.151-.259-.562.086-1.037-.475-1.663-.151-.691.367-1.62.324-1.966 1.21-.13.346-.238.691-.302 1.037l-.389 3.024c-.043.324-.173.648-.67.497.821-1.123.497-2.376.432-3.586-.022-.389-.346-.821-.648-1.08-.389-.346-.454.108-.497.346l-.324 2.7c-.065.41-.216.842-.367 1.231-.065.151-.259.259-.346.324.13-.54.302-1.08.346-1.62.108-1.382-.065-2.722-.475-4.082-.389-1.274-.583-2.614-1.361-3.737-.281-.432-.648-.799-.972-1.188-.367-.432-.886-.799-.691-1.426l1.728.324c.67.108 1.426.864 1.555 1.534.108.562 1.123 1.296 1.771 1.296h4.45c1.015.043 1.944.454 2.441 1.469l.497.907c-.626.691-.648 1.814-.108 2.678.259.432.432.907.605 1.426-.086.151-.13.216-.194.281l-.54-.994-.54.95c-.086.043-.108.043-.13.043l.022.022zM11.34 29.528c.324-1.058 1.058-1.598 2.03-1.901.216-.065.432-.259.562-.454.346-.518.583-1.145.972-1.62.281-.346.734-.562 1.102-.821 1.21 1.663 1.21 1.685.302 2.074.065.41.194.821.194 1.253 0 .389-.108.799-.238 1.166l-.799 2.009c-.108.302-.065.648-.151.95-.151.518-.302 1.058-1.015 1.123.432.54 1.274.475 1.836-.086.022.497-.108.713-.583.734-1.231.086-2.419-.043-3.542-.605-.151-.086-.346-.259-.367-.41l-.324-3.456.022.043z"/><path d="M34.755 24.689l-1.015 1.793c-.907-1.296-2.117-1.706-3.629-1.62-.951.065-1.922-.173-2.873-.259-.346-.022-.691 0-1.037 0-.216 0-.41-.043-.713-.086.432-.67.929-.778 1.512-.691 1.512.238 3.024.432 4.558.065.497-.13 1.037-.043 1.534-.151.346-.065.691-.216.994-.41.389-.259.734-.583.086-1.166l.886.13.13-.67 2.009 2.16-.648.432c-.518-.518-1.361-.302-1.836.497l.043-.022zm-9.851-4.017l-.346 2.03c-.043 0-.108.043-.151.065-.108-.216-.346-.432-.324-.648.173-2.138-.151-4.234-.475-6.329v-.281l2.225-.475-.907 5.638h-.022zm1.103-6.826c-.022.346-.086.583-.475.605-.713.065-1.404.216-2.203.367l-.562-2.722c.043-.022.108-.043.151-.065l.518.799c.67.994.972 1.058 1.966.41l.756-.475-.151 1.08zm1.058-3.996c-.086-.583-.108-1.166-.302-1.663-.173-.454-.216-.756.151-1.08.799.194.821.842.734 1.447-.086.713-.281 1.426-.432 2.138-.086 0-.173-.043-.259-.043l.108-.799zm-9.051 1.987v2.139l-.799-.497.799-1.62v-.022zm16.158 20.218c.043-.13.108-.194.173-.281l.173 1.058c.108.605-.216.734-.842.648.691-.324.734-.821.497-1.426zm-1.232-.022c.043-.043.065-.022.13-.022a2.68 2.68 0 0 1-.065.583c-.086.454-.324.67-.713.691l.626-1.231.022-.022z"/><path d="M33.372 32.681l.173-.756c.583.583.54.886-.173 1.123v-.367zM13.068 18.663c0 .043 0 .065-.043.086 0-.043 0-.065.043-.086zm11.6 21.406c-1.253.734-2.462 1.49-4.018.929 0 .065 0 .13-.022.194l1.188.907c0 .065-.043.13-.043.194-.432-.086-.929-.043-1.296-.238-1.037-.562-2.16-.518-3.262-.691-.605-.086-1.188-.303-1.771-.454 0-.086 0-.151.022-.238.238-.065.497-.108.713-.238.367-.194.691-.454 1.037-.648.324-.194.67-.389 1.037-.475.842-.238 1.728-.302 2.376-1.037.259-.302.778-.389 1.339-.626-.086.324-.194.475-.173.626 0 .151.151.41.238.41h2.203c.583-.065 1.015-.389.929-1.102 0-.173.022-.346.043-.648.648.95 1.447.518 2.225.389l-.303-.259-2.462 3.002zM12.528 4.558l1.944.432c.194.043.389 0 .583 0v.194c-.108.022-.216.043-.302.086-.497.173-1.015.281-1.49.497-.389.173-.67.302-1.037-.065-.216-.216-.54-.324-.907-.54l.583-.475-.518-.929c.043-.022.086-.065.13-.108l.972.907h.043z"/></g><defs><clipPath id="A"><path fill="#fff" d="M0 0h181.379v44H0z"/></clipPath></defs></svg>