<svg xmlns="http://www.w3.org/2000/svg" width="83" height="88" fill="none" xmlns:v="https://vecta.io/nano"><g clip-path="url(#A)" fill="#D2DFFF"><path d="M66.985 75.906c-5.221 4.171-11.084 6.89-17.61 8.157a40.55 40.55 0 0 1-12.837.438c-7.471-.936-14.191-3.723-20.103-8.4-6.117-4.844-10.539-10.934-13.188-18.292-1.451-4.054-2.221-8.235-2.338-12.542-.185-6.841 1.169-13.351 4.295-19.432 5.094-9.911 12.925-16.733 23.473-20.358 5.367-1.842 10.909-2.436 16.568-1.92 9.263.848 17.318 4.454 24.116 10.798 6.253 5.837 10.285 12.981 12.058 21.371.623 2.963.925 5.954.857 8.985-.224 10.067-3.633 18.906-10.295 26.468-1.519 1.715-3.175 3.294-4.997 4.746m-12.077 6.149c7.266-2.573 13.344-6.851 18.106-12.903 7.685-9.765 10.334-20.865 7.977-33.027-1.987-10.291-7.441-18.516-15.895-24.675-7.441-5.418-15.827-7.864-25.022-7.572-2.805.088-5.581.468-8.298 1.169-8.016 2.047-14.834 6.14-20.269 12.367C3.052 27.121-.065 38.426 2 51.075c1.422 8.693 5.474 16.089 11.873 22.132 8.269 7.816 18.145 11.46 29.512 11.061 3.925-.136 7.743-.887 11.522-2.202v.01z"/><path d="M30.323 45.774l-.458.214c0-.185-.049-.38 0-.546.273-1.023.896-1.803 1.743-2.417.409-.302.653-.682.818-1.16.38-1.033.672-2.134 1.237-3.06.692-1.15 1.169-2.378 1.753-3.567l1.5-2.904c.36-.721.925-1.189 1.666-1.462.653-.244 1.286-.526 1.782-1.053.204-.224.302-.419.204-.721-.088-.302-.117-.624-.156-.936-.049-.361-.107-.692-.331-1.033-.195-.302-.146-.809-.078-1.199.019-.117.458-.166.74-.263.078-.526-.253-.838-.838-.624-.136.049-.283.292-.283.448-.01.468-.058.867-.526 1.16-.321.205.02 1.004.429 1.121.127.039.234.166.341.244-.146.068-.282.214-.419.205-.643-.029-1.169-1.091-.867-1.705l.156-.253c-.808-.858-.799-1.169.039-2.047.088-.088.127-.234.156-.361.175-.799.653-1.15 1.451-.965a.89.89 0 0 0 .857-.214c.506-.429 1.013-.429 1.578-.058a.6.6 0 0 0 .37.088c.974-.049 1.256.107 1.666.984.166.361.312.721.409 1.101.059.234 0 .507-.039.76-.01.078-.166.136-.253.205-.068-.097-.204-.214-.185-.302.156-.721-.253-1.286-.536-1.881-.068-.156-.273-.283-.438-.351-.526-.185-.643-.068-.555.478.916.253 1.032.409 1.159 1.355.156 1.208-.136 2.349-.594 3.45-.068.156-.292.273-.292.419-.01.283.127.517.458.594l1.149.283c1.032.302 1.812.916 2.396 1.832l2.143 3.177 1.558-1.861c.039-.049.088-.098.088-.156.117-1.053.312-2.105-.36-3.07-.477-.682-.448-1.803.068-2.456.175-.214.487-.322.74-.478.039.039.088.068.127.107l.244-2.144.204-1.803c.02-.127.175-.224.263-.341.068.127.195.253.185.38l-.39 3.937c0 .146.029.36.127.438.74.604.896 1.374.808 2.28l-.185 3.479c-.107 1.403-.643 2.631-1.558 3.703-.156.185-.282.438-.312.672l-.507 4.746v.361l1.149-1.247a4.47 4.47 0 0 1 3.633-1.189c.36.039.731.02 1.091.029.312.01.429.156.322.478-.263.77-.77 1.306-1.578 1.394-.633.068-1.295-.039-1.938-.107-.107-.01-.205-.205-.302-.312.136-.049.282-.146.409-.136.507.029 1.023.136 1.529.117.614-.02 1.071-.331 1.334-.936-3.575-.604-5.561 1.666-5.922 4.366l-.653 5.954-.584 5.555c-.02.156-.185.292-.273.438-.068-.175-.205-.351-.185-.517l1.149-11.158.789-7.455v-.273c-.808.731-1.51.361-2.143-.166-.448-.37-.847-.819-1.237-1.267-.088-.097-.059-.312-.088-.468.146.059.321.078.438.175.516.458.964 1.014 1.529 1.403.701.497 1.529.049 1.627-.809l.282-2.602c-.039-.019-.068-.039-.107-.049l-.653.897c-.224.37-.399.78-.623 1.16-.058.098-.234.117-.36.175-.02-.117-.107-.283-.058-.361.156-.253.068-.439-.088-.653l-2.347-3.401c-.204-.283-.468-.526-.701-.789l-.127.068.185.906c.575 1.92.477 3.869.253 5.808-.068.585-.029 1.111.224 1.627a40.96 40.96 0 0 0 .73 1.462c.711 1.325.789 2.777.828 4.239.059 2.134-.088 4.239-.73 6.286-.127.419-.282.828-.458 1.228-.39.867-.526 1.783-.438 2.709.175 1.861-.117 3.645-.701 5.399l-.896 3.05a3.96 3.96 0 0 0-.117.487c-.146.819.175 1.462.916 1.861.156.088.36.166.438.302.117.195.204.448.185.672 0 .088-.302.205-.477.234-.896.146-1.792.361-2.688 0-.049-.019-.117 0-.175 0-.964.361-1.919.107-2.864-.068-.117-.02-.292-.322-.253-.4.117-.263.312-.487.507-.702.127-.136.321-.214.477-.322.711-.516.701-1.199.477-1.949l-1.188-4.044a10.39 10.39 0 0 1-.468-4.083c.107-1.277-.078-2.466-.584-3.625-.078-.175-.049-.39-.068-.594.185.019.38 0 .555.058.886.263 1.724.341 2.542-.283.575-.438 1.286-.429 1.87 0 .76.565 1.588.624 2.464.507.146-.02.331-.214.37-.351l.701-3.274c.224-1.744.234-3.518-.068-5.253-.136-.77-.507-1.511-.799-2.251a27.35 27.35 0 0 0-.808-1.822c-.059-.127-.195-.273-.321-.302-1.802-.37-3.584-.234-5.328.351-.166.059-.341.205-.419.361-.74 1.374-1.208 2.836-1.266 4.415 0 .166-.175.322-.263.487-.068-.166-.205-.322-.195-.487.039-1.618.497-3.128 1.256-4.551.127-.244.136-.409 0-.663-.916-1.744-1.247-3.615-1.13-5.584v-1.208c-.039-.029-.078-.049-.117-.078-.253.263-.584.477-.76.789-.964 1.676-1.919 3.362-2.513 5.224-.02.068-.039.156-.088.205-1.071 1.277-1.5 2.855-2.055 4.366-.205.546-.477 1.004-.964 1.335-.789.536-1.276 1.316-1.656 2.163-.019.049.01.117.049.205.019.02.029.02.029.02m21.272-9.755c.545-.721.945-1.54 1.032-2.436l.282-4.424c.068-.867-.448-1.335-1.062-1.744-.088-.059-.312-.029-.38.049-.36.37-.438 1.433-.136 1.861.419.604.643 1.267.623 1.998 0 .468-.058.936-.107 1.403l-.37 3.304c0 .029 0 .049.019.078 0-.02.029-.049.107-.088M42.868 57.39c-.127-.575-.185-1.169-.39-1.715-.136-.38-.146-.711-.049-1.092.253-.935.156-1.881-.01-2.836-.73.283-1.588.361-2.571.253l.253.731c.078.263.185.517.224.78.097.672.127.702.799.555.117-.029.253.059.38.088-.088.117-.146.312-.253.351-.263.088-.545.097-.808.136-.136 1.53-.175 3.041.282 4.522l.818 2.787a38.16 38.16 0 0 1 .604 2.738.9.9 0 0 1-.166.672c-.341.39-.76.721-1.149 1.072l-.351.292 1.948.156c.545 0 .643-.098.633-.633l-.185-8.839m3.516-4.317l.312-.945c-.915.156-1.734.058-2.532-.4-.146 1.062-.234 2.066.039 3.06.058.205.039.438-.01.643-.136.585-.409 1.16-.429 1.754l-.224 9.122c0 .37.166.546.506.536l1.948-.136c0-.049.01-.097.019-.146-.136-.078-.282-.146-.399-.244-.555-.458-1.227-.848-1.178-1.705a6.4 6.4 0 0 1 .205-1.208l.906-3.089c.643-1.861.857-3.762.614-5.681l-.925-.214c-.068-.019-.146-.205-.117-.283.02-.068.175-.107.282-.127.049 0 .117.039.175.049.506.136.614.068.691-.439l.117-.556m-4.402-19.49c.954 1.228 1.588 2.621 1.89 4.112l2.143.224c.205-1.491.312-2.972.117-4.444-.107-.848-.409-1.676-.506-2.524-.059-.487-.273-.643-.672-.731a2.41 2.41 0 0 1-.263-.058l-1.11 1.842c-.175.292-.438.39-.77.361l-1.841-.117 1.013 1.335zm-3.126-1.93l.097 3.304c.117 1.199.536 2.31 1.091 3.304l3.312-.624c-.224-1.218-.73-2.339-1.461-3.352-.779-1.092-1.724-2.076-2.016-3.45-.263.107-.487.166-.662.292-.146.107-.234.292-.351.526m3.701-3.284c.283-.058.75-.049.808-.195.282-.672.448-1.384.672-2.154h-.536v1.092c-.049.438-.429.351-.711.341-.107 0-.292-.136-.282-.205.02-.38.351-.146.526-.244.01 0 .02-.02.078-.058v-.458c-.049-.585.243-.906.857-.974l-.088-.702c-.049-.273-.097-.585-.438-.594-.448-.01-.935-.195-1.334.185l-.867.77c0 .643-.331 1.033-.984 1.169l.39.663c.068.117.205.244.205.361a5.96 5.96 0 0 0 .789 3.128c.049.098-.029.263-.039.39-.127-.059-.292-.088-.36-.185-.156-.205-.253-.439-.39-.672l-.282.253c-.321.302-.146 1.286.282 1.364.692.127 1.403.156 2.114.224.049 0 .127-.02.166-.058.468-.517.818-1.091 1.003-1.832-.73-.078-1.032-.497-1.081-1.014l-1.558-.487c-.088-.029-.117-.234-.175-.361.127-.019.273-.068.39-.039.273.068.536.175.886.283m-3.74-3.625c-.36.497-.292.799.224 1.072.107-1.121.331-1.471 1.588-1.238.244.049.604 0 .75-.166.38-.38.73-.741 1.373-.78-.146-.312-.282-.672-.507-.741-.243-.078-.623.068-.847.234-.351.273-.682.331-1.091.234-.584-.136-.818.049-.974.614-.078.263-.302.487-.506.77m4.305 26.595c-.428.068-.253.409-.234.614.088 1.023.175 2.047-.136 3.05a.56.56 0 0 0 .02.253l.497 1.52c.088-.897.555-1.598.341-2.514-.185-.78-.019-1.647.01-2.475.01-.322-.068-.497-.497-.458v.01zm-9.771 9.024l-.594 3.664c-.029.253.097.546.234.789.321.585.838.76 1.5.692.584-.058 1.169 0 1.812 0-.097-.575-.039-1.111-.682-1.423-.234-.117-.351-.565-.438-.877-.107-.39-.078-.828-.205-1.199-.136-.38-.419-.711-.614-1.082-.068-.117-.088-.253-.127-.38.146 0 .331-.049.429.02.575.39.75 1.004.877 1.637.068.37.068.76.166 1.121.049.175.195.38.36.458.331.166.516.4.575.75l.175 1.023c.049.263-.068.399-.341.399h-3.049c-.097 0-.243-.029-.282-.097-.468-.75-1.101-1.394-.808-2.456.302-1.101.438-2.251.633-3.391a1.27 1.27 0 0 1 .652-.936l1.646-.848c.195-.107.428-.263.516-.458.321-.682.662-1.374.857-2.095.117-.429-.039-.926-.049-1.384 0-.292-.029-.614.068-.887l1.325-3.567c.263-.565.73-1.091 1.218-1.491.633-.526.857-1.189.847-1.91 0-.361-.36-.721-.584-1.072-.029-.039-.195-.029-.273.01-.107.049-.205.127-.292.214-.643.614-1.403.887-2.289.945-.857.049-1.656.965-1.802 1.832-.117.721.039 1.257.721 1.618.253.136.409.448.614.692.516-.322.721-.897.516-1.647-.097-.351-.253-.682-.36-1.023-.029-.097.078-.224.117-.331.107.049.273.078.312.166.312.672.575 1.364.438 2.144-.097.585-.428.984-.945 1.257-.292.156-.458.088-.594-.224-.146-.322-.38-.604-.633-1.004l-1.071 1.579c-.243.39-.584.624-1.003.809l-1.967.926c-.74.341-1.519.253-2.279.136l-3.837-.702c-.925-.166-1.851-.146-2.718.234-1.286.565-2.62.497-3.964.4-1.938-.146-3.487-1.218-5.113-2.095-.088-.049-.107-.234-.156-.361.127-.019.292-.097.39-.039l2.357 1.257c2.045.916 4.149 1.199 6.292.39 1.295-.477 2.571-.37 3.886-.097l3.799.614c.516.068.994-.068 1.461-.361.497-.312 1.081-.468 1.597-.75.331-.175.633-.439.896-.712.224-.234.38-.546.565-.819.205-.322.448-.575.214-1.043-.156-.322-.029-.789-.029-1.189-.399.244-.594.819-.477 1.423.039.195.234.477-.107.546-.088.02-.322-.322-.351-.517-.166-1.023.127-1.569 1.042-2.037.049-.029.088-.068.127-.107.604-.809 1.305-1.481 2.406-1.472.74 0 1.237-.448 1.743-.867.604-.497.857-.516 1.442.244.643.838.477 2.319-.312 3.011-.838.731-1.51 1.549-1.821 2.651-.214.75-.507 1.491-.808 2.212-.205.477-.175.955-.078 1.423.127.672.039 1.296-.253 1.9l-.867 1.793c-.059.136-.059.312-.049.468.136 1.501.75 2.855 1.266 4.239l.399 1.014c.146.273.36.507.545.75.185.253.399.487.555.76.039.068-.068.224-.107.341-.097-.049-.224-.068-.292-.136-.234-.234-.458-.477-.652-.731-.185-.234-.38-.478-.487-.75l-1.325-3.528c-.214-.653-.292-1.355-.448-2.105-.779.458-1.821.526-2.045 1.686v-.029h-.01v-.01z"/><path d="M13.377 36.165l.438 1.062c.049.117.029.253.049.38-.136-.02-.312 0-.39-.078-.555-.556-.672-1.267-.604-2.017.02-.253.234-.253.409-.136.204.127.399.283.594.419.623.429 1.217.458 1.763-.097l-.127-1.189c-.01-.322.214-.429.448-.234.73.604 1.558.809 2.484.819.331 0 .672.176.974.331.477.253.565.468.711 1.335l.643-.166c1.295-.448 2.474-.059 3.623.507.136.068.205.38.205.575s-.136.39-.224.624l1.227-.185c.76-.156 1.5-.049 2.24.166 1.286.36 2.562.741 3.916.663.088 0 .195.127.282.205-.117.088-.253.263-.36.244l-2.737-.312a1.06 1.06 0 0 1-.302-.078c-1.422-.546-2.863-.585-4.315-.175l-1.48.497c-.604.195-1.188.448-1.812.575-.682.146-1.013-.117-1.237-.75-.049-.146-.185-.253-.263-.39-.058-.088-.078-.205-.117-.302.117-.039.292-.146.341-.107.185.156.419.341.468.546.107.497.399.604.828.526 1.013-.195 1.938-.585 2.737-1.247.175-.146.283-.38.468-.643-1.052-.448-2.026-.858-3.146-.526-.38.117-.799.166-1.198.185a.5.5 0 0 1-.341-.351c.039-.78-.312-1.209-1.13-1.277-.351-.029-.701 0-1.042-.088-.448-.107-.877-.302-1.305-.458-.049.633.467 1.267 1.217 1.472.205.058.594-.01.507.351-.097.38-.458.166-.653.088-.341-.136-.691-.322-.974-.555-.224-.185-.39-.195-.604-.059-.429.263-.692.614-.633 1.15.078.682.019 1.325-.467 1.881-.078.088-.039.37.049.468.467.526.604 1.13.565 1.813-.049.974.078 1.968-.36 3.011h1.208c.263.02.614.01.77.166.107.107 0 .487-.078.731-.029.097-.205.156-.312.224-.049-.117-.117-.224-.136-.341-.01-.078.039-.175.059-.263l-1.744-.078c.02 1.13 1.091 1.881 2.192 1.491.536-.195 1.003-.468 1.286-1.053.36-.741 1.14-.994 1.86-1.277.263-.107.545-.185.818-.263.633-.175.906-.653 1.042-1.247.029-.127.166-.224.253-.331.068.146.205.302.185.438-.127.643-.36 1.228-1.052 1.481l-1.062.38-.711.283 1.929 1.072c1.188.594 1.87 1.53 2.065 2.846.039.283.234.546.331.828.039.107-.01.234-.019.351-.117-.019-.302 0-.351-.068a3.23 3.23 0 0 1-.37-.76c-.107-.331-.166-.672-.253-1.014-.185-.702-.604-1.208-1.208-1.471l.273 2.426c.049.711.37 1.296.75 1.871.078.127.029.331.039.497-.146-.078-.321-.127-.419-.244-.721-.828-.857-1.842-.906-2.885-.029-.702-.156-1.374-.545-1.988-.292-.468-1.412-1.072-1.938-.955-.127.029-.253.205-.321.341-.477.916-1.461 1.423-2.474 1.247a1.2 1.2 0 0 0-.273-.039c-.993-.088-1.48-.672-1.568-1.618-.029-.283-.01-.643.136-.858.37-.536.39-1.14.429-1.735.019-.331-.02-.672 0-1.004.058-.682-.068-1.286-.565-1.793-.321-.331-.175-.692.058-.994.331-.409.419-.838.36-1.355-.039-.341.029-.692.049-1.043l-1.062-.516c-.049 0-.059.029-.068.058h-.02v-.01zm43.02-5.36c-.097-.672-.205-1.267-.682-1.774-.429-.458-.36-1.286 0-1.813.331-.468.458-.955.312-1.54-.088-.38-.019-.789-.019-1.325-.653-.477-1.12-1.277-1.286-2.261-.02-.117-.049-.244-.029-.361s.078-.273.166-.331c.068-.039.253.02.321.088.428.458.925.809 1.539 1.004.107.029.156.244.224.37-.146.02-.302.088-.419.049-.409-.146-.799-.341-1.169-.507-.029.38.536 1.364.925 1.511.078.029.205 0 .273-.058l1.198-1.023-.916-2.544c-.107-.302.029-.439.38-.37a3.31 3.31 0 0 1 1.87 1.053c.467.507.847 1.101 1.276 1.647.127.156.263.331.438.429 2.25 1.306 3.876 3.128 4.743 5.594.253.702.682 1.238 1.286 1.657.682.477 1.052 1.16 1.266 1.939.039.127-.049.292-.088.439-.117-.097-.312-.175-.351-.292a3.51 3.51 0 0 0-1.383-1.91c-.565-.39-.916-.945-1.149-1.588-.828-2.358-2.386-4.103-4.519-5.379a2.24 2.24 0 0 1-.682-.672c-.506-.799-1.071-1.54-1.889-2.056-.107-.068-.214-.117-.322-.175-.049-.02-.107-.02-.224-.039l.565 1.744c.214.507.546.936 1.091 1.16.088.039.136.195.204.292-.127.049-.263.156-.36.127a1.43 1.43 0 0 1-.546-.302c-.224-.214-.438-.214-.701-.088a2.14 2.14 0 0 0-1.188 2.339c.107.546-.039 1.052-.341 1.511-.429.663-.39 1.043.088 1.666.214.273.399.643.428.975l.321 4.795c0 .059 0 .136-.019.175-.526.926.282 1.511.565 2.232.029.068.097.117.156.156.711.409 2.445-.205 2.708-.965.039-.127.039-.273.029-.4-.146-1.618.448-3.021 1.364-4.278.409-.555.526-1.091.458-1.725-.019-.136.097-.292.156-.439.097.127.263.244.282.38.146.741 0 1.374-.487 2.027-.886 1.199-1.461 2.534-1.305 4.103.029.263-.068.595-.234.799-.477.594-1.003 1.15-1.89 1.033-.166-.02-.331-.01-.497 0-.662.058-1.179-.117-1.325-.721l-2.581.331c-.458.088-.886.351-1.334.517-.146.049-.312.039-.468.058.059-.136.068-.331.166-.409.584-.507 1.305-.682 2.065-.682s1.237-.029 1.812-.409c-.37-.546-.331-1.062-.166-1.686s.049-1.325.02-1.988l-.166-2.076h.039v-.01zm.342 32.13c-.253-1.569.117-2.943 1.101-4.142.234-.283.643-.419.877-.711a15.48 15.48 0 0 0 1.237-1.832c.282-.477.477-1.013.74-1.501.068-.117.253-.175.38-.253.02.146.097.322.039.429l-1.558 3.089.38.848c.243.682.73 1.082 1.432 1.169a3.91 3.91 0 0 0 1.305-.039c.614-.127 1.198-.156 1.782.049.682.234 1.237 0 1.665-.507.341-.4.594-.867.867-1.286l-1.831-1.053c-.195-.146-.263-.517-.312-.809-.107-.575-.38-.819-.935-.711-.097.02-.175.127-.263.195.058.068.117.156.185.214.136.117.341.205.39.341.039.136-.088.322-.136.487-.136-.068-.283-.127-.409-.214-.068-.049-.097-.185-.166-.214-.312-.117-.448-.39-.341-.653.097-.244.331-.546.565-.614.312-.078.682 0 1.013.088l1.909.575c.731.185 1.325-.117 1.724-.828-.614-.097-.877-.517-1.091-1.062-.458-1.16-2.367-1.316-3.234-.283-.088.107-.146.244-.253.312-.088.068-.224.068-.341.107 0-.117-.078-.292-.02-.351.263-.302.536-.614.857-.858.195-.156.292-.263.253-.536-.107-.916-.545-1.627-1.217-2.212-1.266-1.091-2.678-1.968-4.198-2.67-1.023-.468-2.104-.458-3.165-.351l-4.305.614c-.117.019-.243-.078-.37-.127.088-.117.166-.302.273-.331l3.029-.546c.779-.098 1.568-.068 2.357-.127 1.062-.078 2.055.185 2.961.702l3.214 2.037c1.071.76 1.851 1.744 1.909 3.118l1.412.214c.662.156 1.14.546 1.344 1.218.127.409.38.643.818.643s.419.214.302.517c-.38.974-1.344 1.481-2.396 1.247l-1.169-.322c-.049.419 0 .75.438.945a11.18 11.18 0 0 1 1.48.76c.127.078.253.39.195.497-.36.624-.711 1.277-1.178 1.803a1.63 1.63 0 0 1-1.831.458c-.73-.263-1.432-.068-2.143.029-1.217.156-2.552-.331-2.864-1.764-.029-.127-.146-.244-.234-.37-1.607.916-2.104 2.339-2.055 4.035 0 .156.146.312.243.458l.565.867c.039.078-.078.244-.127.37-.097-.068-.224-.117-.302-.214l-.769-.984-.029.039zm-6.205-1.169c.068-.517.282-1.004-.029-1.491a.31.31 0 0 1 .107-.253c.097-.019.282.029.292.088.097.37.253.76.195 1.111-.058.38-.049.692.107 1.043l1.208 2.972c.214.614.088.711-.565.711h-3.545c-.604 0-.925-.185-.984-.77a12.71 12.71 0 0 1 0-2.436c.097-1.179.428-2.31.964-3.382.536-1.082 1.315-1.793 2.503-2.017.331-.058.458-.214.545-.546l.877-2.573c.136-.322.497-.546.75-.809.097-.107.224-.195.302-.312a2.25 2.25 0 0 1 1.422-.974c.321-.068.506.058.429.37-.166.633-.039 1.082.545 1.462.214.136.244.575.341.877.058.185.058.39.127.565.224.546.195.75-.263 1.13-.195.166-.419.283-.672.439.487.867.312 1.754-.117 2.583-.711 1.394-.438 2.855-.399 4.317.019.663.351 1.082.74 1.501.088.098.302.107.458.107h5.045a.87.87 0 0 1 .38.088c.039.02.049.214 0 .234a.67.67 0 0 1-.36.127h-5.23c-.36.019-.711.039-.808-.439 0-.049-.058-.117-.107-.136-.545-.253-.536-.75-.565-1.228l-.175-2.67c0-.331.097-.682.204-1.014l.594-1.666c.253-.585.127-1.13-.117-1.657-.049-.117-.214-.185-.331-.263-.078-.049-.195-.049-.243-.107-.146-.156-.409-.419-.37-.497.175-.322.38-.02.555.068.351.175.692.185 1.032-.029.312-.195.497-.409.273-.809a1.22 1.22 0 0 1-.146-.614c.039-.487-.224-.77-.604-.906-.448-.156-.487-.419-.37-.799.049-.146.039-.312.058-.487-.097 0-.156 0-.185.02-.692.624-1.529 1.131-1.919 1.998-.351.78-.536 1.637-.77 2.465-.088.312-.224.507-.555.555-1.393.195-2.182 1.092-2.698 2.329-.594 1.442-.818 2.943-.789 4.483.01.828.185.945 1.023.945h3.302c-.107-.351-.166-.643-.282-.906l-1.052-2.31c-.068-.146-.107-.312-.156-.507l.02.02h.01zM31.259 29.538l1.023 2.855c.146.448.409.643.857.643l1.588-.029c.166 0 .331.146.497.234-.156.088-.302.234-.468.244-.584.029-1.169.01-1.792.107.136.097.292.185.409.302s.127.234.088.302-.234.146-.292.107c-.253-.166-.565-.312-.691-.556-.341-.633-.594-1.316-.877-1.978l-1.042-2.349a.57.57 0 0 0-.409-.263c-.097 0-.185.214-.302.312-.097.088-.224.146-.331.214-.039-.117-.127-.234-.117-.341.039-.429.331-.712.76-.663s.857.166 1.266.302c1.198.419 2.055-.107 2.23-1.452l-2.299.283-1.442.117c-.682 0-1.247-.419-1.344-.926-.146-.77.136-1.238.877-1.588l5.406-2.661c.818-.448 1.549-1.121 2.211-1.793 1.091-1.101 1.325-3.197.614-4.58-.078-.146-.117-.312-.175-.468.36-.166.477.02.584.234.516.975.477 2.008.37 3.06-.117 1.14-.808 1.93-1.597 2.661-1.412 1.277-3.068 2.154-4.792 2.904l-2.484 1.111c-.448.195-.614.507-.555.974.049.429.409.555.721.555.672 0 1.354-.068 2.026-.136l1.938-.224c.477-.039.584.078.458.555-.117.399-.253.819-.468 1.169-.497.819-1.188 1.004-2.347.692-.068.01-.078.049-.097.078v-.01zm-5.143-8.878c-.36.458-.604.926-.653 1.501-.068.858.117 1.559.877 2.037.779.497 1.062 1.199.867 2.105-.078.37-.136.76.477.653.078-.01.175.127.253.195-.088.088-.156.224-.253.244-.321.078-.662.088-.974.185a2.22 2.22 0 0 0-.662.37l-1.062.896c-.107.098-.175.253-.312.468l.614-.195c.039.029.078.068.107.097-.088.166-.146.361-.273.478-.584.546-1.091 1.179-1.889 1.452-.156.058-.292.195-.438.292 0 .058.01.107.02.166l1.071.049c.146.01.282.068.428.107l-.302.36-.536.536c-.078.078-.175.195-.243.185-.088-.01-.195-.136-.205-.234-.029-.136.019-.292.039-.458l-.448-.146c-.01.936.516 1.54 1.451 1.169a4 4 0 0 1 1.86-.263c.565.049 1.149-.049 1.705-.156.487-.088.896-.351 1.13-.828.049-.097.224-.136.331-.205.02.146.117.361.058.429-.292.331-.604.663-.974.906-.263.175-.623.214-1.062.361l.692 2.583c.068.244.205.477.273.721.029.088-.058.205-.088.312-.107-.039-.244-.039-.312-.107a.91.91 0 0 1-.166-.322l-.75-2.797c-.068-.292-.146-.39-.448-.409-.828-.039-1.617.01-2.406.331-.575.234-1.276-.127-1.558-.682-.575-1.16-.341-1.832.818-2.388.107-.049.234-.088.331-.156.38-.273.828-.468.76-1.101-.049-.507.205-.897.701-1.111.156-.068.273-.224.419-.331.331-.253.643-.546 1.003-.75.214-.127.321-.224.292-.468a.76.76 0 0 1 .02-.36c.244-.838-.088-1.394-.76-1.891-1.101-.819-1.325-2.475-.555-3.615.896-1.316 1.909-2.514 3.302-3.323.205-.117.516-.448.701-.107.204.37-.263.39-.468.517-1.14.692-2.006 1.657-2.815 2.729v-.029h.01zm8.669 47.927c.896.75 1.851 1.199 3.029.926.331-.078.409.068.341.409-.058.322.02.663.02.994s-.058.263-.088.39c-.117-.068-.312-.107-.341-.205-.117-.322-.166-.663-.243-.965l-2.133-.409c1.393 2.183 4.042 2.855 6.535 1.861l-.419-.283c-.273-.185-.302-.399 0-.555l1.899-.858c.253-.088.633 0 .886.136.331.185.565.166.896 0 .73-.38 1.5-.692 2.26-1.014.097-.039.204-.039.312-.039.828 0 1.042.263.847 1.062-.506 1.988-1.88 3.041-3.808 3.45-1.403.292-2.805.166-4.188-.097-.117-.02-.205-.195-.312-.302.136-.049.282-.166.409-.146 1.412.224 2.825.37 4.237.019 1.675-.419 2.825-1.394 3.224-3.138.019-.068.019-.146.049-.351-.37.039-.731 0-1.023.107-.604.234-1.188.526-1.753.848-1.383.789-2.747 1.589-4.334 1.93-2.902.624-5.483-.672-6.701-3.382-.058-.136-.039-.302-.049-.458l.448.068zm8.561 2.465l.877-.477c-.536-.37-1.354-.166-2.143.487.39.565.799.195 1.266 0v-.01zM31.697 59.398l.097 3.119c0 .244-.244.477-.331.731-.049.146-.068.361 0 .477.37.634.243 1.325.253 1.988 0 .078-.234.234-.36.234H26.36c-.117 0-.244-.156-.351-.263-.185-.185-.331-.429-.545-.555-.584-.322-.896-.799-.984-1.433l-.224-2.261c-.01-.487.136-.974.214-1.452l.214-1.325c.039-.331 0-.672.088-.984a1.71 1.71 0 0 1 2.347-1.13c.088.039.185.185.175.263s-.156.185-.253.195c-.195.019-.39-.029-.584-.039-.731-.029-.955.136-1.237.955.351-.029.682 0 .984-.088.614-.146 1.149 0 1.685.312.974.585 2.026.994 3.282 1.13l-.506-1.218c-.049-.136.02-.312.029-.477.136.088.331.146.39.263.224.497.399 1.014.604 1.559m-3.594 6.081h3.165c-.068-.594.097-1.14-.282-1.628-.205-.273-.136-.565.049-.848.117-.185.282-.4.292-.594l.01-2.592-1.763-.419c-.555-.185-1.149-.36-1.607-.711-.896-.672-1.802-.361-2.688-.263-.058.468-.01.945-.185 1.316-.38.799-.38 1.598-.273 2.436l.156 1.394c.068.487.263.887.75 1.111.175.078.399.185.468.331.234.526.662.468 1.101.458h.818l-.01.01zm38.55-27.853c.789 1.452.682 2.953.351 4.454-.166.78-.244 1.55-.127 2.339.146.975-.156 1.793-.847 2.475-.263.253-.341.517-.38.877-.049.516-.185 1.033-.321 1.54-.029.117-.234.185-.36.273-.029-.146-.097-.292-.078-.429l.321-1.725c.068-.273.205-.575.399-.77.614-.624.925-1.345.779-2.222-.146-.858-.058-1.696.146-2.524.438-1.715.214-3.323-.711-4.843l-.662-1.208c-.049.731-.039 1.374-.156 1.998-.088.507-.312 1.004-.516 1.491-.039.088-.243.098-.37.146-.019-.107-.088-.244-.049-.312.662-1.15.633-2.417.555-3.674-.097-1.676-.146-3.372-.73-4.97l-1.753-4.229c-.059-.146 0-.341 0-.517.146.098.351.156.419.292 1.393 2.602 2.367 5.331 2.474 8.322 0 .253.136.517.253.75l1.325 2.466h.049-.01zM48.927 15.865c.331.263.672.478.935.76.555.575.497 1.179-.136 1.667-.224.175-.487.302-.721.448l1.217 1.481c.409.565.341.76-.331.877-.448.078-.916 0-1.373-.039-.088 0-.146-.234-.224-.36.127-.02.263-.068.39-.068l1.14.098c.039-.059.068-.127.107-.185l-1.13-1.247c-.701-.672-.711-.663.146-1.082 1.042-.516 1.081-.897.185-1.618-.633-.507-1.364-.809-2.152-1.043l.341 1.335c.039.214.02.458 0 .682-.068.789-.175.887-.945.926a2.03 2.03 0 0 0-.536.078c-.536.136-.633.361-.39.936.39-.341.74-.253 1.101.078.399.37.867.351 1.354.117.146-.068.341-.019.516-.029-.107.156-.175.37-.321.448-.779.409-1.49.224-2.104-.351-.058.02-.088.029-.107.049-.429.585-.584.556-.896-.117-.419-.896-.02-1.549 1.023-1.666.828-.088.916-.195.857-1.043-.039-.594-.302-1.091-.672-1.559-.097-.127-.127-.322-.185-.478.166-.01.351-.078.487-.029l2.425.945v-.01zM16.873 53.687l2.445.78c.75.205 1.247.575 1.558 1.355.302.78.789 1.501 1.276 2.183.818 1.14.984 2.339.584 3.654-.058.195-.029.517.097.653.847.916 1.169 2.066 1.519 3.206.029.107-.068.253-.107.38-.117-.088-.282-.146-.331-.263l-.818-2.105c-.136-.312-.37-.585-.594-.848-.292-.351-.419-.692-.253-1.16.409-1.111.243-2.144-.419-3.138-.575-.877-1.003-1.852-1.578-2.738-.195-.302-.604-.526-.964-.663l-3.243-1.121c-.136-.049-.205-.263-.302-.399.156 0 .331-.068.477-.029.214.049.419.166.662.263h-.01v-.01zM49.287 9.472l-1.218 2.368c-.088.156-.282.263-.419.39-.097-.175-.263-.351-.292-.536l-.224-2.3a.65.65 0 0 0-.146-.39l-.477 2.485c-.02.088 0 .205-.049.263-.068.088-.185.146-.282.214-.059-.097-.185-.214-.175-.302l.692-3.654c.019-.097.214-.224.331-.234.283-.029.438.117.458.429l.185 2.212.088.965c.107-.166.175-.253.214-.351L49.2 8.556c.136-.292.321-.351.623-.263.331.097.224.322.185.507l-.643 3.382c-.029.127-.195.234-.302.351-.049-.146-.166-.312-.146-.448l.468-2.583c0-.029 0-.058-.01-.088a.59.59 0 0 0-.107.088l.02-.029zm25.597 38.563c.672.088 1.315.107 1.919.263 1.042.273 1.383 1.169.906 2.124-.097.195-.059.458-.088.672l-2.562-.244c-.263-.029-.536-.117-.779-.234-.584-.283-.857-.877-.721-1.511l.282-1.092h1.033m1.821 1.978l.429.312c.399-.448.428-.984.029-1.277-.672-.477-1.461-.458-2.26-.429l1.802 1.394zm-2.484-1.16c-.321.575-.253 1.072.253 1.316.623.302 1.305.38 1.997.37l.058-.117-2.308-1.569zM13.396 24.237c-.321-.283-.643-.517-.896-.809a1.33 1.33 0 0 1 .214-1.998c.205-.156.458-.253.448-.585 0-.039.107-.088.078-.068.351.195.662.331.935.536l1.734 1.364c.458.448.448 1.14.068 1.627-.146.185-.37.302-.526.487-.136.156-.214.361-.302.507l-1.763-1.062m1.023.049c.02 0 .039 0 .068-.01l-.049-.146-1.081-2.475c-.76.331-.935.984-.399 1.501.429.419.945.741 1.471 1.13m.838-1.598l-1.237-.945-.107.088 1.149 2.573c.838-.4.906-.975.195-1.715zm45.183-5.331c-.399.185-.662.029-.604-.351l.448-2.456c.029-.175.049-.351-.02-.594l-.253.302-1.227 1.852c-.078.107-.253.146-.38.224 0-.156-.058-.361 0-.478l1.928-2.963c.068-.097.331-.195.39-.146.127.098.263.302.243.439l-.438 2.505a1.35 1.35 0 0 0 0 .624l.682-1.033.799-1.208c.088-.117.273-.156.409-.234 0 .166.039.361-.039.477l-1.968 3.041m-.02-3.46c0-.039-.019-.068-.039-.107 0 .049 0 .097.039.107zM8.039 40.541l-2.571-.234c-.136-.01-.253-.146-.38-.224.136-.078.282-.214.419-.205l3.477.283c.136.01.36.195.36.283 0 .146-.146.37-.282.419l-2.756.906-.448.166 2.961.273c.136.02.253.166.38.253-.146.068-.292.195-.438.185l-3.341-.263c-.205-.019-.477.029-.506-.322-.029-.331.195-.4.438-.468l2.63-.858c.049-.02.058-.117.058-.195zm47.277-26.966c-.107.224-.175.429-.292.595-.078.107-.234.156-.36.224-.02-.146-.078-.312-.039-.439.117-.322.282-.633.438-.945l1.052-2.163c.078-.146.292-.312.438-.312.292 0 .312.263.302.507l-.097 3.177 1.13-2.349c.049-.107.078-.244.166-.322s.224-.107.331-.156c.029.117.107.263.068.341l-1.607 3.352c-.049.098-.282.195-.341.166-.136-.098-.302-.273-.292-.409l.058-3.245-.945 1.959v.02h-.01zM36.8 36.974l.731-1.033c.078-.088.243-.107.37-.156 0 .146.059.312 0 .429-.127.244-.321.438-.458.672l-1.188 2.28a8.42 8.42 0 0 1-1.588 2.466c-.604.653-1.003 1.345-1.023 2.3 0 .526-.312 1.062-.516 1.579-.039.107-.253.136-.39.205 0-.146-.049-.292-.01-.429.156-.624.409-1.228.487-1.861.078-.711.38-1.257.828-1.774.73-.838 1.412-1.686 1.812-2.758.243-.663.623-1.267.964-1.93h-.02v.01zm31.276 29.752l-3.419 3.489c-.039.039-.088.107-.136.107h-.399c.029-.117 0-.273.088-.351l1.159-1.082a34.16 34.16 0 0 0 5.552-6.909c.058-.088.097-.205.175-.263.088-.059.205-.068.312-.097.029.107.078.214.078.322s-.068.166-.127.234l-3.282 4.541v.01zm-52.294.049l3 3.011c.049.049.136.088.166.156.058.117.078.253.117.38-.146 0-.341.049-.428-.029l-1.889-1.764c-1.86-1.891-3.497-3.976-4.87-6.247-.107-.175-.175-.585-.117-.614.322-.185.37.175.506.351l3.516 4.765v-.01zm1.997-45.725a.87.87 0 0 0 .896-.672c.166-.575-.244-.887-.633-1.238-.166.146-.302.312-.477.419-.088.058-.234.01-.351.019a2.34 2.34 0 0 1 .029-.361c0-.02.039-.049.058-.068.302-.185.429-.75.867-.565.662.273 1.159 1.208 1.042 1.774-.204 1.043-1.354 1.569-2.191.926-.575-.429-1.081-.974-1.52-1.54-.419-.536-.302-1.228.146-1.705.448-.468 1.091-.604 1.607-.302.146.088.224.302.341.448-.185 0-.39.059-.545-.01a.85.85 0 0 0-.964.136c-.302.253-.438.624-.263.936.448.789 1.013 1.501 1.977 1.803h-.02zM7.737 57.429c.234-.273.399-.604.672-.75.565-.302 1.179-.556 1.792-.741.623-.195 1.179.097 1.471.672.156.312.282.633.419.955.107.244.029.39-.214.497l-3.302 1.384c-.107.039-.351 0-.38-.068-.263-.614-.701-1.189-.468-1.959m3.789.02l-.136-.331c-.292-.672-.643-.858-1.325-.614a9.55 9.55 0 0 0-1.442.643c-.448.244-.545.604-.37 1.082.088.234.205.468.312.702l.458-.166 2.416-1.033c.058-.029.088-.146.097-.283h-.01zm62.15-2.807l.536.156c.068-.214.117-.419.214-.604.039-.088.166-.136.253-.205.068.107.205.214.195.302a3.85 3.85 0 0 1-.253.867c-.039.088-.253.175-.36.156-.321-.068-.643-.156-.954-.283-.555-.224-.838-.789-.74-1.413.097-.653.526-1.15 1.13-1.189.974-.059 1.889.234 2.698.76.497.322.594.867.458 1.423s-.497.936-1.081 1.033a.87.87 0 0 1-.448-.02c-.097-.039-.166-.175-.243-.263.097-.068.195-.195.292-.195.672-.059.945-.244 1.042-.78.078-.439-.175-.819-.76-1.033a12.42 12.42 0 0 0-1.48-.429c-.526-.117-.945.136-1.081.594-.156.507.039.877.594 1.13h-.01v-.01z"/><path d="M5.341 50.013c-.078-.653.127-1.15.692-1.442s1.091-.195 1.529.253c.195.195.331.127.506 0l1.188-.877c.234.292.205.477-.049.653l-.808.585c-.331.244-.438.594-.321 1.033l1.276-.175c.127 0 .263.117.399.175-.107.097-.205.253-.331.273l-3.399.565c-.38.068-.565-.02-.584-.419 0-.195-.058-.39-.097-.624zm2.162-.078c-.117-.789-.487-1.13-1.081-.994-.516.127-.75.721-.526 1.384.029.088.195.185.282.175a9.2 9.2 0 0 0 1.159-.185c.078-.02.127-.195.175-.38h-.01zm5.221-21.849c.107.068.224.088.253.156.058.117.068.253.097.39-.117 0-.263.059-.36.01l-1.101-.633-1.958-1.14c-.302-.166-.38-.351-.175-.653.146-.214.253-.448.39-.663.321-.468.76-.682 1.325-.604.545.078.984.468 1.052 1.043.049.409.244.487.594.477h1.325c-.02.409-.127.565-.448.536l-1.081-.068c-.477-.078-.701.146-.818.614l.896.536m-2.708-1.598l1.344.799.36-.614c.214-.419.088-.877-.282-1.111-.38-.244-.838-.146-1.11.253a2.31 2.31 0 0 0-.312.682v-.01zm44.929 51.717c-.409.507-.916.702-1.51.555-.497-.127-.799-.497-.877-.994-.039-.283.029-.585.059-.955-.068-.058-.214-.166-.331-.292a1.19 1.19 0 0 1-.107-1.501c.292-.439.906-.624 1.402-.439.526.195.857.692.76 1.247-.058.331.029.497.292.692.536.39.633.975.312 1.696m-1.539.019c.117.029.234.097.341.097.399 0 .76-.156.838-.556a1.22 1.22 0 0 0-.204-.858c-.234-.331-.614-.263-.945-.097-.565.283-.604.838-.029 1.413zm-.925-2.768c-.088.487.078.828.468.936a.82.82 0 0 0 .916-.487c.107-.351-.078-.76-.438-.877-.399-.136-.701 0-.945.439v-.01zM72.693 34.43c.253-.302.487-.594.769-.828.068-.059.292.058.448.097-.088.117-.146.273-.263.331-.39.195-.575.497-.497.926.068.38.282.672.701.721.438.049.779-.205.828-.643.029-.283 0-.575.029-.858.039-.682.409-1.062 1.032-1.101.575-.039 1.071.361 1.218.955.146.624-.127 1.208-.682 1.403-.117.039-.273-.049-.419-.078.078-.117.117-.283.234-.351.487-.302.594-.916.156-1.247a.88.88 0 0 0-.662-.117c-.146.039-.282.292-.331.478-.058.195-.019.419-.019.633 0 .936-.507 1.481-1.315 1.442-.76-.029-1.286-.682-1.237-1.55 0-.058.019-.117.029-.214h-.019zM41.739 8.664c0 .458-.175.809-.506 1.053-.205.146-.214.292-.088.497l.584 1.023c.049.107 0 .263 0 .39-.136-.049-.341-.059-.409-.156-.205-.292-.399-.614-.536-.945-.185-.468-.487-.614-.984-.448l-.01 1.286c0 .127-.146.244-.224.361-.078-.127-.224-.244-.234-.37l-.117-3.499c-.01-.331.107-.478.448-.448.214.019.429 0 .633 0 .857 0 1.305.38 1.451 1.277m-1.958.838c.263 0 .536.019.799-.029.429-.068.662-.409.653-.838-.01-.38-.292-.731-.682-.78-.273-.039-.555 0-.847 0-.01.127-.029.175-.019.234l.097 1.413zm-7.985 13.456c1.081-.984 1.13-2.163.75-3.44-.039-.127-.117-.253-.127-.39 0-.097.068-.205.107-.302.107.049.292.068.321.146.136.37.244.75.321 1.13.39 1.803-.682 3.313-2.133 3.918a7.25 7.25 0 0 1-1.334.409c-.653.127-1.12-.263-1.013-.906.107-.624.38-1.228.614-1.832.029-.078.204-.107.312-.156.029.127.107.273.078.38l-.506 1.403c-.146.536.029.741.565.614.73-.166 1.471-.361 2.045-.975zm-8.415 51.592c-.516.711-1.198.867-1.87.448-.614-.39-.838-1.091-.506-1.686.068-.117.263-.175.399-.253.02.146.088.312.049.439-.166.536-.01.955.468 1.16.409.175.877.039 1.023-.38.078-.214.029-.526-.078-.75-.127-.263-.38-.468-.555-.711-.38-.516-.321-1.052.127-1.462s1.11-.39 1.617.029c.448.37.584 1.033.282 1.462-.068.097-.234.117-.36.175-.02-.136-.088-.283-.058-.4.136-.546-.068-.994-.545-1.023-.224-.02-.536.117-.682.292-.097.127-.039.458.049.643.136.263.38.468.555.711.292.4.37.819.097 1.306h-.01zm9.243-64.163c.838.175 1.178.526 1.218 1.218.029.565-.37 1.101-.964 1.286-.614.195-1.227-.019-1.549-.546-.039-.068-.107-.136-.097-.205.02-.156.068-.302.107-.448.117.078.273.136.331.244.292.526.799.682 1.295.37.321-.205.419-.507.331-.867-.078-.331-.302-.516-.643-.536-.273-.02-.545 0-.818-.029-.653-.039-1.032-.361-1.091-.936-.058-.633.292-1.14.886-1.296.623-.166 1.237.097 1.432.643.049.127-.049.302-.078.458l-.351-.244c-.224-.146-.468-.4-.692-.39-.234 0-.526.224-.662.429-.224.331.02.75.429.799.282.039.575.02.906.029v.019h.01zm35.881 10.077c-.166.068-.312.107-.468.156l.078-.458c.02-.244.127-.536.029-.721a.93.93 0 0 0-.623-.419c-.468-.068-.76.351-.575.799.107.283.273.546.38.819.263.672.088 1.208-.507 1.559-.545.331-1.218.205-1.675-.312-.428-.487-.477-1.189-.058-1.657.097-.117.321-.117.487-.175-.029.156 0 .331-.088.448-.253.399-.243.77.088 1.111s.701.39 1.052.127c.282-.214.409-.487.263-.828-.097-.234-.224-.468-.331-.692-.292-.594-.224-1.082.205-1.442.438-.361.984-.361 1.461-.01.487.361.653.955.419 1.491-.029.068-.078.127-.136.224v-.02z"/><path d="M8.321 32.033a2 2 0 0 1-.419.01c-.506-.01-.896.536-.73 1.014.175.477.711.585 1.042.205.214-.253.38-.546.604-.799.458-.517 1.091-.565 1.665-.146.507.361.643 1.111.322 1.725-.302.565-.994.858-1.539.633-.097-.039-.146-.185-.214-.283.117-.058.244-.166.36-.166.594.019.877-.127 1.023-.594.127-.39.029-.731-.331-.945s-.701-.166-.974.166c-.175.214-.312.448-.477.663-.409.536-.945.653-1.471.331-.497-.302-.682-.926-.438-1.52.234-.575.789-.867 1.354-.721.224.058.36.166.205.448l.019-.02zm-1.042 13.76c.078.107.156.214.224.214l1.188-.049v-1.364c0-.127.136-.244.205-.37.097.117.263.234.273.37l.049 1.452c.019.292-.097.419-.38.429l-3.497.127c-.302.01-.438-.068-.438-.4l-.039-1.501c0-.107.136-.205.214-.312.088.098.234.185.253.283l.078 1.384h1.315v-1.238c0-.156.166-.302.253-.448.078.146.195.283.214.429.039.312.029.633.058.994h.029zM60.42 72.866c-.117.234-.195.448-.282.653-.049.117-.107.322-.166.322a.54.54 0 0 1-.37-.166l-.994-1.52c-.058-.088 0-.341.078-.4a15.66 15.66 0 0 1 1.364-.897c.088-.058.263.019.399.039-.058.117-.078.283-.175.351l-1.188.809.594.926c.36-.536.808-.819 1.432-.653.662.166 1.003.653 1.169 1.267.146.516-.078 1.082-.506 1.355-.419.283-.993.302-1.364 0-.136-.107-.282-.4-.224-.497.146-.273.292.019.458.068.234.078.555.156.75.058.204-.097.399-.39.429-.624.107-.741-.653-1.335-1.412-1.091h.01zm-19.811 3.732c.146.097.253.185.351.273-.107.068-.224.185-.331.195h-1.393l-.049 1.062c0 .097.156.244.253.263.341.049.701.02 1.042.078.127.02.224.175.341.263-.127.068-.253.205-.38.205-.419 0-.838-.039-1.295-.058l-.078 1.452 1.383.107c.117 0 .214.136.331.205-.117.088-.224.244-.341.253-.516 0-1.032-.02-1.539-.088-.127-.02-.331-.234-.322-.361l.175-3.586c.01-.273.146-.37.409-.351l1.441.078v.01zM35.554 11.87l-.536-3.489c-.059-.341.058-.478.38-.517l1.256-.175c.175 0 .497.068.516.146.049.331-.263.292-.468.341a5.57 5.57 0 0 1-.808.117c-.263.019-.39.097-.331.39.068.322.107.653.156 1.023l1.247-.166c.146 0 .292.117.438.175-.117.097-.234.253-.37.283-.39.088-.799.136-1.237.205l.224 1.442 1.403-.195c.107 0 .234.117.341.175-.088.097-.166.273-.273.292l-1.607.244c-.097 0-.214-.166-.331-.292zm17.278 1.277c.107.146.185.283.263.419-.136.02-.282.088-.399.049l-1.422-.478c-.282-.078-.312-.224-.234-.468l1.139-3.401c.078-.244.224-.302.448-.234l1.451.507c.107.039.146.234.224.361-.127.029-.273.107-.39.078l-1.305-.429-.438 1.296 1.188.429c.127.058.205.224.302.351-.156.029-.331.117-.477.078-.38-.098-.74-.244-1.169-.38l-.468 1.384 1.286.448v-.01zm19.012 14.627l-.604-1.062-1.276.721.662 1.199c.058.117-.02.302-.029.448-.127-.068-.302-.097-.37-.205l-.74-1.296c-.136-.234-.107-.38.136-.517l3.117-1.764c.234-.136.38-.107.506.146l.721 1.316c.058.107-.019.283-.029.429-.127-.068-.312-.097-.38-.195-.243-.361-.438-.75-.682-1.179l-1.198.663.594 1.082c.058.137.097.39.029.458-.224.195-.331-.029-.448-.234h-.01v-.01zm-3.224-4.18l-.974.663c-.097.058-.253.02-.39.029.029-.136 0-.341.097-.409l2.971-2.173c.088-.058.253 0 .38 0-.029.127-.019.312-.107.38-.312.273-.662.507-1.081.819l1.87.117c.243.01.448.068.468.477l-2.523-.127-.526 2.115c-.039.156-.195.283-.302.419-.058-.185-.195-.38-.166-.546.088-.536.244-1.062.39-1.647v-.205c-.029.029-.068.049-.097.078h-.01v.01zM7.406 37.295c.068-.351.107-.672.205-.965s.214-.253.331-.38c.049.156.146.312.127.458-.049.4-.146.789-.224 1.228l1.422.283.282-1.286c.039-.136.205-.244.312-.361.058.146.175.302.156.438l-.302 1.462c-.049.234-.146.322-.409.263L5.8 37.704c-.282-.058-.36-.175-.302-.429l.321-1.51c.029-.107.185-.175.282-.263.058.136.185.273.175.4-.058.448-.166.877-.263 1.345l1.11.234c.078.01.185-.088.282-.175v-.01zm56.17-17.532c-.156.058-.36.146-.448.088-.419-.302-.799-.653-1.188-.984-.204-.166-.214-.341-.049-.546l2.328-2.738c.078-.088.38-.107.477-.029a10.94 10.94 0 0 1 1.149.965c.088.088.078.273.117.419-.146-.02-.331.01-.429-.068-.351-.253-.672-.555-1.042-.858l-.877 1.043.974.848c.097.088.097.273.146.409-.156-.02-.351.02-.458-.068-.331-.234-.633-.517-.984-.799l-.916 1.072 1.208 1.247h-.01zm13.558 20.466c.234-.01.438-.058.623-.029.127.02.243.136.37.205-.117.088-.214.234-.341.253-.399.058-.799.078-1.305.117l1.354.965c.097.068.224.127.282.214.068.107.078.263.117.39-.127 0-.292.029-.38-.029l-1.773-1.267-1.558 1.53c-.117.107-.409.234-.458.185-.224-.214-.039-.399.127-.565l1.325-1.374-.993.088c-.136.01-.282.049-.409 0-.107-.029-.185-.156-.273-.234.088-.078.166-.214.263-.224l3.019-.253v.029h.01zm-50.726-25.28l-2.386-2.592c-.097-.107-.107-.292-.166-.439.185.039.419.02.526.127l1.841 2.008c.097.107.127.273.195.409l.214-.166-.448-2.339c-.049-.263-.136-.536-.136-.799s.136-.312.214-.468c.088.117.214.234.244.361l.672 3.518c.029.175-.058.438-.185.565-.214.224-.409.02-.584-.175m.224-.555s-.029.019-.029.029.019.02.019.029c0 0 .02-.019 0-.058h.01zM23.048 24.5l-1.042-.926c-.39-.4-.38-.906-.224-1.403.029-.088.166-.195.253-.185.068 0 .204.156.195.234-.049.38-.146.741.166 1.072.477.497.964.955 1.675 1.121a8.35 8.35 0 0 1 .994.302c.575.214.993.935.857 1.53-.029.127-.156.273-.282.322a1.96 1.96 0 0 1-1.782-.205c-.097-.068-.117-.253-.175-.39.136 0 .292-.058.39-.01.419.205.838.351 1.295.166.049-.672-.029-.789-.643-1.004l-1.685-.614h.01v-.01zm12.817-6.071c-.351-.214-.672-.487-1.023-.565-1.013-.195-1.49-.906-1.831-1.764-.049-.117.049-.283.078-.429.107.078.253.127.331.234.117.156.185.341.273.516.253.497.623.848 1.198.945.019 0 .029 0 .049.01 1.519.302 1.792 1.189 1.256 2.66-.253.692-.789 1.179-1.432 1.52-.146.078-.351.02-.526.029.088-.136.156-.331.282-.409.74-.439 1.266-1.033 1.412-1.9.039-.263-.02-.536-.049-.838h-.02v-.01zM31.61 76.978l1.11.351c.127.049.205.205.312.312-.146.049-.312.156-.448.136-.399-.078-.779-.214-1.217-.331l-.448 1.491c-.039.127-.205.205-.312.312-.049-.146-.175-.312-.136-.439l.964-3.401c.078-.273.204-.361.487-.263.468.166.964.273 1.432.429.107.039.175.185.263.292-.136.058-.282.185-.399.156-.438-.097-.867-.234-1.364-.38l-.244 1.345v-.01zM9.051 53.765l-2.24 1.764c-.321-.214-.282-.419-.029-.614l1.617-1.238-1.646-.156c-.166-.02-.351 0-.487-.049-.117-.049-.185-.195-.273-.302.117-.058.234-.185.351-.175l1.802.185c.594.107 1.13.019 1.685-.166.205-.068.506-.263.614.097.107.351-.263.302-.438.37l-.935.302-.019-.02zm9.05-11.958c-.039.049-.049.078-.068.097-.185.166-.37.439-.633.205-.068-.059.097-.37.166-.575-.292-.117-.584.068-.623.497-.02.224 0 .458-.049.682-.02.107-.136.195-.214.283-.078-.088-.244-.185-.234-.263l.243-2.154c.039-.205.341-.409.575-.497.39-.156.818-.195.984-.692.029-.098.282-.127.438-.195-.019.146-.01.302-.049.448-.156.565-.614.721-1.11.867-.195.058-.341.244-.516.37l1.178.409c.049.02-.019.322-.058.517h-.029zm2.96 23.409c-.146-.263-.341-.507-.36-.76-.068-.643-.019-1.296-.078-1.949-.039-.38-.166-.77-.292-1.13-.166-.458-.068-.819.234-1.169l.594-.721c.058-.058.214-.117.263-.088.078.058.175.214.146.273-.117.234-.253.487-.448.663-.36.322-.487.634-.263 1.111.399.867.263 1.813.282 2.729 0 .322.058.575.341.789.166.127.292.312.37.507.049.117-.029.283-.049.429-.117-.059-.263-.098-.351-.185-.136-.136-.243-.302-.39-.477v-.02zm14.581 11.343c-.234-.049-.429-.058-.614-.127-.088-.029-.195-.175-.185-.234.02-.088.166-.214.234-.205l2.182.361c.058 0 .146.185.127.234-.039.088-.166.205-.243.195-.253 0-.507-.058-.808-.097l-.477 2.758c-.039.205-.029.429-.107.624-.058.136-.214.224-.321.331-.049-.136-.166-.283-.146-.4l.468-2.855c.029-.185-.039-.38-.107-.585zm-10.081.283c-.146.088-.273.146-.39.205-.01-.146-.088-.331-.029-.448l1.266-2.563.243-.497c-.214-.117-.438-.205-.623-.351-.097-.078-.136-.244-.195-.37.127-.029.282-.117.38-.068l1.782.887c.097.049.117.224.175.341-.136.029-.292.097-.419.068-.214-.058-.409-.185-.652-.302l-1.539 3.089v.01zM54.206 43.25l.701 1.14c.175.341.049.507-.341.526-1.188.059-2.289-.828-2.503-1.998-.058-.302.078-.409.36-.429.721-.068 1.286.224 1.782.77m-.867.828l1.042.409c-.419-1.053-1.149-1.618-1.889-1.462l.847 1.052zm-33.31-28.046l1.568 2.037c.078.107.049.302.068.458-.146-.049-.351-.058-.438-.166l-2.123-2.69c-.214.166-.39.331-.594.448-.097.058-.263 0-.39 0 .02-.117 0-.292.068-.351l1.646-1.277c.068-.049.234.02.36.039-.029.117-.019.273-.088.341-.166.175-.37.312-.594.487l.516.682v-.01zm55.79 14.696l-.078.507c-.127-.098-.273-.175-.36-.302-.107-.156-.166-.351-.263-.575l-2.172.897c-.292.117-.575.273-.876.361-.166.049-.487.058-.526-.02-.136-.273.127-.341.331-.419l2.094-.877.955-.409c-.088-.244-.195-.458-.243-.682-.029-.117.029-.253.058-.39.127.068.331.097.38.205l.721 1.705h-.02zM73.286 58.17l-1.734-.76c-.117-.058-.166-.224-.253-.341.156-.029.331-.136.458-.088l3.146 1.364c.107-.234.185-.468.312-.663.068-.107.224-.146.341-.224.039.127.146.283.107.38l-.818 1.871c-.039.088-.214.107-.321.156-.039-.127-.127-.263-.097-.38.059-.224.175-.439.283-.682l-1.422-.633zM57.225 75.731l-.195-2.485-1.441.721c-.117.049-.282 0-.428-.02.068-.127.107-.312.214-.38l1.49-.77c.399-.195.584-.088.623.37l.175 2.222.088 1.491c0 .497-.156.273-.234.4-.068-.127-.175-.244-.195-.38l-.097-1.169zm-13.373.789c.273 0 .497-.058.721-.029.117 0 .224.136.331.214-.107.088-.195.224-.312.253-.214.049-.448.039-.721.049l.097 1.988.078 1.491c0 .117-.107.234-.166.351-.097-.117-.273-.234-.292-.361l-.195-2.943c0-.146-.02-.292-.039-.468h-.701c-.127-.019-.243-.127-.37-.205.107-.088.214-.234.331-.253.39-.058.779-.068 1.218-.097h.02v.01zm32.824-32.081l1.218.068c.146.02.273.156.409.244-.136.078-.273.224-.409.224l-3.175-.107c-.058 0-.117 0-.234.02l-.068 1.199c-.019.146-.146.273-.234.409-.078-.136-.224-.273-.224-.409-.02-.448.019-.906.019-1.364s.146-.39.428-.38l2.269.088v.01zm-50.443 2.524c-.088-.244-.468-.477-.136-.682.321-.195.39.214.526.409.477.653.584 1.345.292 2.134-.37.984.127 1.822.584 2.651.107.185.429.419.127.614-.322.205-.419-.185-.546-.38-.653-1.072-1.032-2.183-.516-3.44.195-.487-.097-.877-.331-1.296v-.01zm24.038 31.155l-.448-1.842-.779 1.345c-.058 0-.117 0-.175-.02 0-.195-.058-.419.01-.575.195-.419.438-.828.691-1.218.078-.117.263-.253.38-.244.097 0 .214.214.253.361l.808 3.304c.039.156-.068.331-.097.497-.117-.127-.282-.234-.331-.37-.127-.39-.205-.789-.312-1.218v-.019zm18.253-42.187c.029.253.078.458.059.672 0 .097-.136.185-.214.273-.078-.078-.214-.146-.224-.224-.146-1.774-.984-3.245-1.997-4.639-.068-.088 0-.263-.02-.39.127.039.312.029.38.117.964 1.238 1.734 2.582 2.016 4.19zm-9.945-1.754l.049-1.491c0-.146.146-.292.224-.429.088.146.243.302.243.448l-.088 2.271c0 .195-.107.409-.214.585-.195.322-.263.594.029.897.059.068.029.224.029.351-.136 0-.302.029-.409-.039-.302-.195-.448-.867-.214-1.199.302-.419.302-.867.341-1.374v-.02h.01zm1.851-5.399c-.185.049-.351.068-.506.088l.146-.429c.039-.117.058-.234.097-.4-.409.059-.448.292-.507.585-.049.244-.195.477-.341.682-.029.049-.234-.019-.351-.029 0-.107 0-.224.049-.322.039-.136.136-.253.156-.39.088-.643.331-.887.964-.994.097-.02.224-.195.234-.312 0-.137-.117-.283-.136-.419 0-.097.039-.263.117-.292.068-.029.263.029.292.097.107.224.253.497.214.721-.078.478-.253.936-.419 1.423h-.01v-.01zm-.399 34.391c.097.224.205.409.253.614.02.097-.078.224-.127.341-.107-.058-.273-.107-.292-.185a1.46 1.46 0 0 0-.857-.994c-.127-.049-.214-.205-.292-.341-.409-.721-.633-1.511-.565-2.349 0-.127.146-.253.224-.38.078.127.195.234.224.37l.175 1.209c.127.546.331 1.062.906 1.325.136.058.234.234.36.38l-.01.01zm.876-19.081l1.071-1.501c.078-.098.253-.127.39-.195 0 .146.078.331 0 .419l-1.734 2.193c-.234.302-.419.653-.643.965-.078.107-.195.175-.302.263-.049-.136-.185-.312-.146-.39a11.56 11.56 0 0 1 .808-1.228c.136-.195.351-.331.546-.526h.01zm-8.406 17.639c.244-.351.399-.244.468.078l.458 2.358c.078.322.253.624.39.926.039.098.136.185.146.273 0 .185-.029.38-.049.565-.117-.117-.263-.214-.36-.351-.896-1.121-.701-2.544-1.042-3.859l-.01.01zM28.356 10.632c-.068-.175-.146-.312-.166-.458-.01-.098.049-.205.078-.312.117.039.244.058.351.117.049.029.058.136.088.205l1.227 3.167c.049.146-.039.341-.068.507-.127-.107-.312-.195-.37-.331l-1.14-2.894zm14.6 37.578l-.058-2.924c0-.965.127-.312.195-.468.097.127.244.244.273.39.244 1.277.195 2.553-.049 3.82-.02.117-.195.195-.302.302-.049-.117-.146-.244-.146-.361 0-.244.058-.477.097-.76h-.01zm-14.59 30.191c-.331 0-.38-.156-.282-.409l1.344-3.411c.039-.097.214-.136.321-.205.049.107.156.244.127.322l-1.52 3.694h.01v.01zm17.776-61.015c-.156-.039-.38-.078-.419-.185-.322-.887-.964-1.394-1.821-1.696-.127-.049-.214-.224-.321-.351.156-.029.331-.136.468-.088.945.302 1.695.858 2.055 1.822.049.146.039.312.039.487v.01z"/><path d="M43.755 44.526l-.068-.848c0-.263.136-.166.205-.244.078.078.214.146.234.234l.36 2.612c0 .059.02.136 0 .175-.068.117-.166.214-.243.331-.078-.107-.224-.205-.234-.312l-.243-1.929v-.02h-.01zm-19.987-22.93c-.029-.741.341-1.247.818-1.686.088-.088.282-.058.428-.088-.029.146-.02.341-.107.419-.643.585-.789 1.286-.623 2.105.029.127-.107.283-.166.429-.097-.107-.253-.205-.282-.331-.058-.263-.049-.536-.068-.848zm4.004 8.244c-.019.058-.019.107-.039.117l-1.685.936c-.078.039-.224-.068-.341-.117.049-.097.068-.224.136-.292l.682-.692c.399-.478.954-.478 1.237.049h.01zm3.896 16.109c-.175.214-.195.604-.565.458-.039-.02.039-.448.127-.653.127-.302.282-.614.497-.858.166-.195.419-.322.653-.439.058-.029.224.059.282.136a.33.33 0 0 1-.078.263c-.545.166-.633.692-.916 1.111v-.019zm-1.354-.166c.136-.244.253-.497.419-.731.058-.078.214-.097.331-.146.029.117.107.253.078.351l-.633 1.637c-.039.098-.185.146-.282.224-.058-.107-.175-.224-.166-.322.058-.322.175-.633.263-.984v-.029h-.01zm7.48 1.092c.341-.029.429.156.331.39s-.283.439-.429.663c-.078-.059-.224-.107-.234-.166 0-.322-.078-.682.331-.887zm16.724 7.933c.214-.039.438-.088.604-.02.078.029.117.351.049.478-.097.195-.292.166-.409-.039l-.243-.429v.01zm-7.714 15.475c.019.175.039.341 0 .487 0 .029-.234.049-.312 0a.46.46 0 0 1-.136-.292c.127-.097.282-.146.448-.195zm4.694-34.245c0 .029-.019.049-.039.068v-.078h.039v.01zm-38.112.117c0-.02 0-.049.029-.058 0 .019-.019.039-.029.058zm17.892-6.636c0-.02.01-.049.039-.068 0 .029 0 .039-.039.068zm-16.859-5.312c.029.01.039.039.049.068h-.088c0-.029 0-.039.029-.068h.01zm45.952-10.291c-.02-.029-.02-.078 0-.127 0 .039.019.068 0 .127zm8.279 9.707c0-.058.039-.078.078-.107 0 .049.019.097.019.166-.029 0-.049-.01-.088-.059h-.01zm-41.999-9.21c0 .029 0 .039-.02.049 0-.01-.019-.019-.019-.029s.019-.02.039-.01v-.01zM42.528 26.01c-.224.029-.429.068-.614.029-.088-.02-.146-.185-.214-.283.195-.059.39-.156.584-.156s.399.097.253.399h-.01v.01z"/></g><defs><clipPath id="A"><path fill="#fff" transform="translate(.5)" d="M0 0h82v88H0z"/></clipPath></defs></svg>