<svg xmlns="http://www.w3.org/2000/svg" width="149" height="46" fill="none" xmlns:v="https://vecta.io/nano"><g fill="#f77"><path d="M24.559 1.069c-4.847 1.044-8.739 4.812-10.225 9.906-.354 1.185-.372 1.751-.425 13.568l-.071 12.33-6.05 3.75-6.669 4.175-.619.407 68.372-.035 68.373-.053 1.149-.371c5.449-1.804 8.916-5.625 9.818-10.844.372-2.141.39-19.778.018-21.9-.973-5.431-5.165-9.8-10.543-10.95-1.663-.354-111.501-.336-113.129.018zm40.157 6.51c0 .106.265.248.584.318.796.159.867.265.531.92-.159.318-.336.708-.389.885-.088.265-.265.318-1.114.265-.902-.053-1.026-.106-1.079-.442a1.05 1.05 0 0 0-.318-.584c-.548-.478-.195-1.061.654-1.061.212 0 .336-.124.336-.336 0-.195.106-.371.23-.425.248-.088.566.159.566.46zm3.768.248c-.035.212-.195.301-.46.265-.531-.071-.495.248.053.389.371.088.442.212.442.725 0 .672-.389.92-1.168.725-.584-.159-.442-.566.177-.513.566.035.602-.248.035-.46-.495-.195-.637-.513-.442-1.044.124-.301.283-.389.778-.389.513 0 .637.053.584.301zm1.061.495c.018.389.088.831.142.973.159.442.425-.177.425-1.026 0-.548.071-.743.265-.743.212 0 .265.23.265 1.061 0 .973-.035 1.097-.442 1.274a.97.97 0 0 1-.885 0c-.407-.195-.442-.301-.442-1.291 0-.92.035-1.061.318-1.008.212.035.318.248.354.761zm2.512-.142l.354.672-.053-.619c-.018-.46.035-.619.283-.672.283-.053.318.053.265 1.132-.035.708-.142 1.221-.265 1.256-.106.035-.407-.212-.655-.584l-.442-.655-.053.601c-.088 1.044-.407.655-.46-.601-.053-1.097-.018-1.185.301-1.185.23 0 .495.23.725.655zm2.671-.478c.248.142.336.372.336.938 0 .991-.195 1.221-.991 1.256l-.69.018-.053-1.203-.053-1.185h.548c.301 0 .708.088.902.177zm1.221.265c0 .548.478.601.566.053.035-.23.195-.425.372-.46.283-.053.318.053.265 1.15-.035.92-.106 1.203-.318 1.203-.159 0-.283-.195-.318-.495-.071-.584-.566-.655-.566-.071 0 .513-.124.655-.46.531-.265-.088-.371-1.999-.124-2.229.265-.283.584-.106.584.318zm3.007-.088c0 .265-.124.354-.478.371l-.495.035.495.071c.601.088.637.584.035.584-.248 0-.442.071-.442.177 0 .088.212.177.46.177.336 0 .442.071.389.301-.035.23-.23.318-.672.318h-.619l-.053-1.203-.053-1.185h.725c.584 0 .708.053.708.354zm1.84-.071c.159.159.283.566.283.955 0 .548-.088.761-.425.991-.248.142-.619.248-.849.212-.371-.053-.407-.159-.46-1.256l-.053-1.185h.619c.336 0 .743.124.885.283zm1.964.071c0 .177-.141.248-.389.212-.548-.071-.513.212.053.46.336.159.442.318.389.69-.035.248-.177.531-.336.637-.389.248-1.221 0-1.221-.336 0-.212.106-.265.425-.177.619.159.743-.177.159-.46-.92-.442-.637-1.451.371-1.344.354.035.548.159.548.318zm1.769 0c0 .177-.142.248-.389.212-.548-.071-.513.248.035.389.371.088.442.212.442.725 0 .672-.389.92-1.168.725-.531-.142-.478-.548.071-.548.584-.018.654-.23.141-.425-.354-.142-.46-.301-.46-.69 0-.655.142-.778.796-.708.336.035.531.159.531.318zm1.999-.071c-.035.142-.124.248-.23.212-.088-.035-.212.389-.265.92-.071.708-.159.973-.354.973s-.283-.23-.319-.796c-.035-.46-.177-.849-.318-.938a.51.51 0 0 1-.248-.389c0-.195.23-.265.902-.265.708 0 .885.053.832.283zm.867.071c.053.195.159.354.23.354.088 0 .212-.159.265-.354.124-.425.619-.478.619-.071 0 .142-.089.442-.212.655-.106.212-.248.619-.301.902-.124.548-.548.867-.548.407 0-.142-.159-.601-.354-1.026s-.354-.884-.354-1.008c0-.354.548-.248.654.142zm2.866-.195c.177.106.212.372.141.885-.053.407-.018.778.071.831.212.124.195.602-.018.602-.106 0-.318-.159-.478-.354-.389-.442-.513-.442-.637 0-.053.23-.177.318-.371.248-.212-.088-.283-.354-.283-1.114 0-.566.053-1.079.124-1.132.159-.177 1.168-.142 1.451.035zm2.14.195c0 .265-.124.354-.478.371l-.495.035.495.071c.601.088.637.584.035.584-.248 0-.442.071-.442.177 0 .088.212.177.46.177.336 0 .442.071.389.301-.035.23-.23.318-.672.318h-.619l-.053-1.203-.053-1.185h.725c.584 0 .708.053.708.354zm1.026.584c.053.69.106.831.407.831.248 0 .336.106.301.301-.035.23-.23.318-.672.318h-.619l-.053-1.203c-.053-1.097-.018-1.203.265-1.15.248.035.336.248.372.902zm2.424-.584c0 .177-.142.248-.389.212-.548-.071-.513.248.035.389.371.088.442.212.442.725 0 .672-.389.92-1.168.725-.602-.159-.584-.708.018-.601.619.124.743-.177.177-.389s-.708-.566-.442-1.061c.159-.283.336-.354.761-.318.354.035.566.142.566.318zm1.857 0c0 .248-.124.354-.389.371l-.407.035.407.071c.478.088.513.584.035.584-.195 0-.354.071-.354.177 0 .088.159.177.354.177.248 0 .354.124.354.371 0 .301-.088.354-.654.301l-.672-.053-.053-1.203-.053-1.185H97c.584 0 .708.053.708.354zm1.398.301l.354.672.018-.672c0-.46.071-.655.265-.655.23 0 .266.212.23 1.185-.053 1.362-.319 1.592-.849.725-.354-.584-.354-.584-.354-.124 0 .442-.371.796-.601.566-.053-.071-.106-.619-.106-1.238 0-.991.035-1.114.354-1.114.212 0 .478.23.69.655zm9.658 8.102c2.265.602 4.175 2.14 5.201 4.246 2.972 6.015-2.299 12.79-8.862 11.392-4.051-.867-6.829-4.918-6.192-9.04.708-4.635 5.378-7.748 9.853-6.599zm16.098.248c1.469.478 2.672 1.008 2.831 1.238.088.159-1.433 3.326-1.769 3.697-.018.018-.513-.194-1.079-.478-2.265-1.114-4.14-1.238-4.14-.265 0 .495.443.743 2.282 1.291 2.742.832 4.122 1.698 4.83 3.078.283.584.336.973.283 2.247-.053 1.344-.124 1.645-.584 2.406-1.592 2.565-5.944 3.114-10.72 1.327-1.769-.672-1.752-.566-.69-2.689l.99-1.911c.036-.035.69.212 1.433.566 1.663.761 2.53 1.008 3.609 1.008 1.38 0 1.592-.778.372-1.291a30.62 30.62 0 0 0-1.893-.654c-3.467-1.114-4.688-2.353-4.688-4.812.018-2.406 1.557-4.334 4.051-5.042 1.079-.301 3.538-.177 4.882.283zm-79.34 1.61v1.946H42.16h-3.361v.973.973h2.83 2.83v1.857 1.858h-2.83-2.83v1.15 1.15h3.45 3.45v1.946 1.946h-5.661-5.661v-7.872-7.872h5.572 5.572v1.946zm8.474 1.875l3.025 3.803v-3.803-3.821h2.3 2.3v7.872 7.872h-1.84-1.84l-2.99-3.662-2.972-3.68-.053 3.68-.035 3.662h-2.211-2.211v-7.872-7.872h1.751 1.769l3.007 3.821zm22.484-3.75c0 .035.478 1.433 1.079 3.131l1.309 3.786c.124.389.831 2.459 1.574 4.582l1.344 4.016c0 .088-1.026.159-2.264.159h-2.264l-.425-1.468-.442-1.451-1.999-.053c-1.504-.035-1.999.018-2.07.177l-.442 1.504-.389 1.291h-2.282c-1.256 0-2.282-.071-2.282-.159 0-.124 1.291-3.857 2.919-8.509l1.539-4.387.92-2.689h2.087c1.15 0 2.087.035 2.087.071zm17.336 1.875v1.946h-3.184-3.184v1.15 1.15h2.565 2.565v1.946 1.946h-2.565-2.565v2.83 2.83h-2.3-2.3v-7.872-7.872h5.484 5.484v1.946z"/><path d="M63.742 8.41c0 .088.088.177.195.177.088 0 .124-.088.071-.177-.053-.106-.141-.177-.195-.177-.035 0-.071.071-.071.177zm.972 0c-.053.088-.018.177.071.177.106 0 .195-.088.195-.177 0-.106-.035-.177-.071-.177-.053 0-.142.071-.195.177z"/><use href="#B"/><use href="#B" x="6.015"/><path d="M89.393 8.41c0 .088.124.177.265.177s.265-.088.265-.177c0-.106-.124-.177-.265-.177s-.265.071-.265.177zm16.222 11.923c-.973.354-1.486.902-1.893 1.999-.796 2.123-.159 4.369 1.503 5.307 1.327.743 3.238.389 4.14-.761.531-.672.955-2.264.867-3.237-.124-1.256-.708-2.406-1.522-2.937-.849-.566-2.158-.725-3.095-.371zm-31.312 1.522c-.053.142-.336 1.079-.619 2.07l-.513 1.787 1.203.071c1.15.053 1.203.035 1.097-.301l-.584-2.123c-.265-.973-.531-1.645-.584-1.504z"/></g><defs ><path id="B" d="M74.002 8.764c0 .283.088.531.177.531.106 0 .177-.248.177-.531 0-.301-.071-.531-.177-.531-.088 0-.177.23-.177.531z"/></defs></svg>