<svg width="60" height="60" viewBox="0 0 60 60" fill="none" xmlns="http://www.w3.org/2000/svg">
<rect width="60" height="60" rx="10" fill="#171777"/>
<path d="M52.8571 0H7.14286C3.2 0 0 3.2 0 7.14286V52.8571C0 56.8 3.2 60 7.14286 60H52.8571C56.8 60 60 56.8 60 52.8571V7.14286C60 3.2 56.8 0 52.8571 0ZM47.1429 21.4286H44.2857C41.2286 21.4286 40 22.1429 40 24.2857V28.5714H47.1429L45.7143 35.7143H40V57.1429H32.8571V35.7143H27.1429V28.5714H32.8571V24.2857C32.8571 18.5714 35.7143 14.2857 41.4286 14.2857C45.5714 14.2857 47.1429 15.7143 47.1429 15.7143V21.4286Z" fill="#FF7777"/>
</svg>
