<svg width="60" height="60" viewBox="0 0 60 60" fill="none" xmlns="http://www.w3.org/2000/svg">
<mask id="mask0_211_1175" style="mask-type:alpha" maskUnits="userSpaceOnUse" x="0" y="0" width="60" height="60">
<path d="M46.687 59.9683L13.3713 60C6.04182 60.0067 0.0399845 54.0165 0.0316556 46.687L5.55342e-06 13.3713C-0.0066576 6.04182 5.98351 0.0399845 13.313 0.0316556L46.6287 5.55342e-06C53.9582 -0.0066576 59.96 5.98351 59.9683 13.313L60 46.6287C60.0083 53.9599 54.0165 59.9617 46.687 59.9683Z" fill="url(#paint0_radial_211_1175)"/>
</mask>
<g mask="url(#mask0_211_1175)">
<path d="M46.687 59.9683L13.3713 60C6.04182 60.0067 0.0399845 54.0165 0.0316556 46.687L5.55342e-06 13.3713C-0.0066576 6.04182 5.98351 0.0399845 13.313 0.0316556L46.6287 5.55342e-06C53.9582 -0.0066576 59.96 5.98351 59.9683 13.313L60 46.6287C60.0083 53.9599 54.0165 59.9617 46.687 59.9683Z" fill="#FF7777"/>
<path d="M29.9847 41.6448C23.5565 41.6448 18.3242 36.4142 18.3242 29.9842C18.3242 23.5543 23.5565 18.3237 29.9847 18.3237C36.413 18.3237 41.6452 23.5543 41.6452 29.9842C41.6452 36.4142 36.413 41.6448 29.9847 41.6448ZM29.9847 21.6553C25.3922 21.6553 21.6558 25.3917 21.6558 29.9842C21.6558 34.5768 25.3922 38.3132 29.9847 38.3132C34.5773 38.3132 38.3137 34.5768 38.3137 29.9842C38.3137 25.3917 34.5773 21.6553 29.9847 21.6553Z" fill="#171777"/>
<path d="M42.4948 20.0062C43.8748 20.0062 44.9935 18.8875 44.9935 17.5075C44.9935 16.1275 43.8748 15.0088 42.4948 15.0088C41.1148 15.0088 39.9961 16.1275 39.9961 17.5075C39.9961 18.8875 41.1148 20.0062 42.4948 20.0062Z" fill="#171777"/>
<path d="M39.9957 51.6562H20.0062C13.5779 51.6562 8.3457 46.4256 8.3457 39.9957V20.0062C8.3457 13.5763 13.5779 8.3457 20.0062 8.3457H39.9957C46.4239 8.3457 51.6562 13.5763 51.6562 20.0062V39.9957C51.6562 46.4256 46.4239 51.6562 39.9957 51.6562ZM20.0062 11.6773C15.4136 11.6773 11.6773 15.4136 11.6773 20.0062V39.9957C11.6773 44.5882 15.4136 48.3246 20.0062 48.3246H39.9957C44.5882 48.3246 48.3246 44.5882 48.3246 39.9957V20.0062C48.3246 15.4136 44.5882 11.6773 39.9957 11.6773H20.0062Z" fill="#171777"/>
</g>
<defs>
<radialGradient id="paint0_radial_211_1175" cx="0" cy="0" r="1" gradientUnits="userSpaceOnUse" gradientTransform="translate(22.3049 60.0433) scale(74.7922 74.7922)">
<stop stop-color="#FFDD55"/>
<stop offset="0.328" stop-color="#FF543F"/>
<stop offset="0.348" stop-color="#FC5245"/>
<stop offset="0.504" stop-color="#E64771"/>
<stop offset="0.643" stop-color="#D53E91"/>
<stop offset="0.761" stop-color="#CC39A4"/>
<stop offset="0.841" stop-color="#C837AB"/>
</radialGradient>
</defs>
</svg>
