<svg width="60" height="60" viewBox="0 0 60 60" fill="none" xmlns="http://www.w3.org/2000/svg">
<rect width="60" height="60" rx="10" fill="#171777"/>
<path d="M52.8571 0H7.14286C3.20429 0 0 3.20429 0 7.14286V52.8571C0 56.7957 3.20429 60 7.14286 60H52.8571C56.7957 60 60 56.7957 60 52.8571V7.14286C60 3.20429 56.7957 0 52.8571 0ZM47.1514 26.1757C46.8271 26.2057 46.4986 26.2257 46.1657 26.2257C42.4186 26.2257 39.1257 24.2986 37.21 21.3857C37.21 29.0271 37.21 37.7214 37.21 37.8671C37.21 44.5943 31.7557 50.0486 25.0286 50.0486C18.3014 50.0486 12.8471 44.5943 12.8471 37.8671C12.8471 31.14 18.3014 25.6857 25.0286 25.6857C25.2829 25.6857 25.5314 25.7086 25.7814 25.7243V31.7271C25.5314 31.6971 25.2857 31.6514 25.0286 31.6514C21.5943 31.6514 18.8114 34.4343 18.8114 37.8686C18.8114 41.3029 21.5943 44.0857 25.0286 44.0857C28.4629 44.0857 31.4957 41.38 31.4957 37.9457C31.4957 37.81 31.5557 9.95429 31.5557 9.95429H37.2929C37.8329 15.0843 41.9743 19.1329 47.1514 19.5043V26.1757Z" fill="#FF7777"/>
</svg>
