<svg width="360" height="343" fill="none" xmlns="http://www.w3.org/2000/svg"><rect width="360" height="343" rx="2" fill="#F5F5F5"/><path d="M21.232 32V20.72h1.536l6.48 8.416h-.416V20.72h1.904V32h-1.52l-6.48-8.432h.4V32h-1.904zm15.345.16c-.81 0-1.515-.165-2.112-.496a3.469 3.469 0 0 1-1.392-1.408c-.33-.619-.496-1.344-.496-2.176 0-.832.165-1.552.496-2.16a3.469 3.469 0 0 1 1.392-1.408c.597-.33 1.301-.496 2.112-.496.81 0 1.514.165 2.112.496.597.33 1.061.8 1.392 1.408.33.608.496 1.328.496 2.16 0 .832-.166 1.557-.496 2.176a3.47 3.47 0 0 1-1.392 1.408c-.598.33-1.302.496-2.112.496zm0-1.52c.597 0 1.077-.213 1.44-.64.362-.437.544-1.077.544-1.92 0-.853-.182-1.488-.544-1.904-.363-.427-.843-.64-1.44-.64-.598 0-1.078.213-1.44.64-.363.416-.544 1.05-.544 1.904 0 .843.181 1.483.544 1.92.362.427.842.64 1.44.64zM44.375 32l-3.392-7.824h2.128l2.416 6.064h-.48l2.496-6.064h2L46.103 32h-1.728zm9.834.16c-.886 0-1.649-.165-2.289-.496-.64-.33-1.136-.8-1.488-1.408-.34-.608-.512-1.328-.512-2.16 0-.81.166-1.52.496-2.128a3.72 3.72 0 0 1 1.393-1.424c.597-.352 1.274-.528 2.032-.528.746 0 1.386.16 1.92.48.533.32.944.773 1.231 1.36.3.587.449 1.285.449 2.096v.592h-5.905v-1.152h4.496l-.255.24c0-.725-.16-1.28-.48-1.664-.32-.395-.78-.592-1.377-.592-.448 0-.831.107-1.151.32a1.98 1.98 0 0 0-.72.88c-.16.373-.24.821-.24 1.344v.112c0 .587.09 1.072.272 1.456.18.384.453.672.816.864.362.192.81.288 1.343.288a4.65 4.65 0 0 0 1.313-.192 3.727 3.727 0 0 0 1.2-.64l.56 1.344c-.374.31-.843.555-1.409.736a5.527 5.527 0 0 1-1.696.272zm4.847-.16v-7.824h1.952v1.568h-.176c.139-.363.331-.672.576-.928.246-.256.539-.453.88-.592.342-.139.72-.208 1.136-.208.63 0 1.147.15 1.552.448.406.299.688.757.848 1.376H65.6a2.664 2.664 0 0 1 1.056-1.328c.491-.33 1.056-.496 1.696-.496.598 0 1.088.117 1.472.352.395.235.688.592.88 1.072.192.47.288 1.067.288 1.792V32h-2v-4.688c0-.597-.101-1.035-.304-1.312-.192-.277-.522-.416-.992-.416-.341 0-.64.085-.896.256a1.55 1.55 0 0 0-.592.704c-.128.31-.192.683-.192 1.12V32h-2v-4.688c0-.597-.101-1.035-.304-1.312-.192-.277-.517-.416-.976-.416-.352 0-.656.085-.912.256-.245.16-.437.395-.576.704-.128.31-.192.683-.192 1.12V32h-2zm18.512.16c-.662 0-1.243-.165-1.744-.496a2.344 2.344 0 0 1-.976-1.328h.16V32h-1.952V20.72h2v5.04h-.192c.17-.523.501-.944.992-1.264.49-.32 1.061-.48 1.712-.48.693 0 1.296.165 1.808.496.512.33.912.8 1.2 1.408.288.597.432 1.317.432 2.16 0 .832-.144 1.557-.432 2.176-.288.608-.694 1.077-1.216 1.408-.512.33-1.11.496-1.792.496zm-.56-1.52c.597 0 1.077-.213 1.44-.64.362-.437.544-1.077.544-1.92 0-.853-.182-1.488-.544-1.904-.363-.427-.843-.64-1.44-.64-.598 0-1.078.213-1.44.64-.363.416-.544 1.05-.544 1.904 0 .843.181 1.483.544 1.92.362.427.842.64 1.44.64zm9.497 1.52c-.885 0-1.648-.165-2.288-.496-.64-.33-1.136-.8-1.488-1.408-.341-.608-.512-1.328-.512-2.16 0-.81.166-1.52.496-2.128a3.72 3.72 0 0 1 1.392-1.424c.598-.352 1.275-.528 2.032-.528.747 0 1.387.16 1.92.48.534.32.944.773 1.232 1.36.299.587.448 1.285.448 2.096v.592h-5.904v-1.152h4.496l-.256.24c0-.725-.16-1.28-.48-1.664-.32-.395-.778-.592-1.376-.592-.448 0-.832.107-1.152.32-.309.203-.549.496-.72.88-.16.373-.24.821-.24 1.344v.112c0 .587.091 1.072.272 1.456.182.384.454.672.816.864.363.192.811.288 1.344.288.438 0 .875-.064 1.312-.192a3.727 3.727 0 0 0 1.2-.64l.56 1.344c-.373.31-.842.555-1.408.736a5.527 5.527 0 0 1-1.696.272zm4.816-.16v-7.824h1.952v1.888h-.16c.15-.64.443-1.125.88-1.456.438-.341 1.019-.539 1.744-.592l.608-.048.128 1.696-1.152.112c-.65.064-1.141.267-1.472.608-.33.33-.496.8-.496 1.408V32h-2.032zm10.818 0v-1.52l3.648-3.888a6.94 6.94 0 0 0 .784-.976c.203-.299.352-.587.448-.864a2.53 2.53 0 0 0 .144-.832c0-.533-.17-.939-.512-1.216-.33-.277-.816-.416-1.456-.416-.501 0-.992.096-1.472.288-.469.181-.922.47-1.36.864l-.688-1.536c.448-.405 1.008-.73 1.68-.976a6.067 6.067 0 0 1 2.096-.368c.811 0 1.494.123 2.048.368.555.245.976.603 1.264 1.072.288.47.432 1.04.432 1.712 0 .341-.042.677-.128 1.008-.074.32-.197.64-.368.96-.16.32-.368.65-.624.992-.245.33-.544.677-.896 1.04l-3.008 3.136v-.544h5.456V32h-7.488zm13.114.16c-.885 0-1.637-.224-2.256-.672-.608-.459-1.072-1.12-1.392-1.984-.309-.864-.464-1.92-.464-3.168 0-1.259.155-2.315.464-3.168.32-.864.784-1.515 1.392-1.952.619-.437 1.371-.656 2.256-.656.896 0 1.648.219 2.256.656.619.437 1.083 1.083 1.392 1.936.309.853.464 1.91.464 3.168 0 1.248-.16 2.31-.48 3.184-.309.864-.768 1.525-1.376 1.984-.608.448-1.36.672-2.256.672zm0-1.68c.725 0 1.259-.33 1.6-.992.352-.672.528-1.728.528-3.168 0-1.43-.176-2.464-.528-3.104-.341-.65-.875-.976-1.6-.976-.715 0-1.248.325-1.6.976-.352.64-.528 1.68-.528 3.12 0 1.43.176 2.48.528 3.152.352.661.885.992 1.6.992zm6.074 1.52v-1.52l3.648-3.888a6.94 6.94 0 0 0 .784-.976c.203-.299.352-.587.448-.864a2.53 2.53 0 0 0 .144-.832c0-.533-.171-.939-.512-1.216-.331-.277-.816-.416-1.456-.416-.501 0-.992.096-1.472.288-.469.181-.923.47-1.36.864l-.688-1.536c.448-.405 1.008-.73 1.68-.976a6.067 6.067 0 0 1 2.096-.368c.811 0 1.493.123 2.048.368.555.245.976.603 1.264 1.072.288.47.432 1.04.432 1.712 0 .341-.043.677-.128 1.008-.075.32-.197.64-.368.96-.16.32-.368.65-.624.992-.245.33-.544.677-.896 1.04l-3.008 3.136v-.544h5.456V32h-7.488zm13.898 0v-2.144h-4.912v-1.504l5.264-7.632h1.696v7.44h1.584v1.696h-1.584V32h-2.048zm0-3.84v-4.992h.464l-3.776 5.536v-.544h3.312zM20 56a2 2 0 0 1 2-2h316a2 2 0 0 1 2 2v42H20V56z" fill="#171777"/><path d="M36.264 81V69.72h1.712l4.256 7.856h-.512l4.24-7.856h1.68V81h-1.856v-8.24h.352l-3.584 6.528h-1.2l-3.616-6.544h.384V81h-1.856zM86.952 81v-9.568H83.08V69.72h9.792v1.712H89V81h-2.048zM133.788 81.16c-.821 0-1.568-.133-2.24-.4a4.935 4.935 0 0 1-1.712-1.184 5.367 5.367 0 0 1-1.088-1.84c-.256-.715-.384-1.51-.384-2.384 0-.885.128-1.68.384-2.384a5.196 5.196 0 0 1 1.088-1.824 4.757 4.757 0 0 1 1.712-1.168c.672-.277 1.419-.416 2.24-.416.821 0 1.563.139 2.224.416.672.267 1.243.65 1.712 1.152a5.07 5.07 0 0 1 1.104 1.824c.256.704.384 1.499.384 2.384 0 .885-.128 1.685-.384 2.4a5.232 5.232 0 0 1-1.104 1.84 4.739 4.739 0 0 1-1.712 1.184c-.661.267-1.403.4-2.224.4zm0-1.76c.693 0 1.28-.16 1.76-.48.491-.32.864-.784 1.12-1.392.267-.608.4-1.333.4-2.176 0-.853-.128-1.579-.384-2.176-.256-.608-.629-1.067-1.12-1.376-.491-.32-1.083-.48-1.776-.48-.683 0-1.269.16-1.76.48-.491.31-.869.768-1.136 1.376-.256.597-.384 1.323-.384 2.176 0 .843.128 1.568.384 2.176.267.608.645 1.072 1.136 1.392.491.32 1.077.48 1.76.48zM178.952 81v-9.568h-3.872V69.72h9.792v1.712H181V81h-2.048zM222.732 81V69.72h7.376v1.632h-5.328v3.184h4.992v1.632h-4.992V81h-2.048zM268.732 81V69.72h2.048v9.536h5.408V81h-7.456z" fill="#D2DFFF"/><rect x="296.5" y="54.5" width="43" height="43" rx=".5" stroke="#171777"/><path d="M317.62 81.16a8.792 8.792 0 0 1-1.696-.16 7.11 7.11 0 0 1-1.488-.432 5.684 5.684 0 0 1-1.2-.688l.624-1.616c.352.245.72.459 1.104.64.395.17.811.304 1.248.4.448.085.917.128 1.408.128.843 0 1.456-.139 1.84-.416.384-.288.576-.656.576-1.104 0-.245-.059-.453-.176-.624-.117-.181-.309-.336-.576-.464-.267-.128-.619-.235-1.056-.32l-1.76-.368c-1.013-.213-1.771-.57-2.272-1.072-.491-.512-.736-1.184-.736-2.016 0-.704.187-1.317.56-1.84.373-.523.891-.928 1.552-1.216.661-.288 1.424-.432 2.288-.432a6.62 6.62 0 0 1 1.472.16c.48.096.917.245 1.312.448a4.16 4.16 0 0 1 1.056.704l-.624 1.536a4.6 4.6 0 0 0-1.472-.832 5.161 5.161 0 0 0-1.76-.288c-.491 0-.912.07-1.264.208-.352.139-.624.336-.816.592a1.441 1.441 0 0 0-.272.88c0 .384.128.693.384.928.256.224.693.4 1.312.528l1.744.368c1.056.224 1.84.576 2.352 1.056.523.48.784 1.12.784 1.92 0 .672-.181 1.264-.544 1.776-.363.512-.88.912-1.552 1.2-.661.277-1.445.416-2.352.416z" fill="#D2DFFF"/><path d="M33.28 127v-1.52l3.648-3.888c.33-.352.592-.677.784-.976.203-.299.352-.587.448-.864a2.53 2.53 0 0 0 .144-.832c0-.533-.17-.939-.512-1.216-.33-.277-.816-.416-1.456-.416-.501 0-.992.096-1.472.288-.47.181-.923.469-1.36.864l-.688-1.536c.448-.405 1.008-.731 1.68-.976a6.072 6.072 0 0 1 2.096-.368c.81 0 1.493.123 2.048.368.555.245.976.603 1.264 1.072.288.469.432 1.04.432 1.712 0 .341-.043.677-.128 1.008-.075.32-.197.64-.368.96-.16.32-.368.651-.624.992-.245.331-.544.677-.896 1.04l-3.008 3.136v-.544h5.456V127H33.28zm13.114.16c-1.312 0-2.342-.283-3.088-.848-.736-.565-1.104-1.349-1.104-2.352 0-.533.106-1.003.32-1.408.224-.416.528-.752.912-1.008a3.038 3.038 0 0 1 1.312-.48v.336a2.99 2.99 0 0 1-1.184-.528 2.834 2.834 0 0 1-.8-.976 3.068 3.068 0 0 1-.272-1.296c0-.949.352-1.691 1.056-2.224.704-.544 1.658-.816 2.864-.816 1.194 0 2.144.272 2.848.816.704.533 1.056 1.275 1.056 2.224 0 .469-.096.901-.288 1.296-.182.395-.443.72-.784.976-.33.256-.72.427-1.168.512v-.32c.501.064.938.229 1.312.496.373.256.666.592.88 1.008.213.405.32.869.32 1.392 0 1.003-.374 1.787-1.12 2.352-.736.565-1.76.848-3.072.848zm0-1.6c.757 0 1.328-.144 1.712-.432.384-.299.576-.736.576-1.312 0-.576-.192-1.008-.576-1.296-.384-.288-.955-.432-1.712-.432-.747 0-1.318.144-1.712.432-.384.288-.576.72-.576 1.296 0 .576.192 1.013.576 1.312.394.288.965.432 1.712.432zm0-5.072c.63 0 1.12-.149 1.472-.448.362-.299.544-.709.544-1.232 0-.512-.182-.912-.544-1.2-.352-.299-.843-.448-1.472-.448-.63 0-1.12.149-1.472.448-.352.288-.528.693-.528 1.216 0 .512.176.917.528 1.216.352.299.842.448 1.472.448zM79.28 127v-1.52l3.648-3.888c.33-.352.592-.677.784-.976.203-.299.352-.587.448-.864a2.53 2.53 0 0 0 .144-.832c0-.533-.17-.939-.512-1.216-.33-.277-.816-.416-1.456-.416-.501 0-.992.096-1.472.288-.47.181-.923.469-1.36.864l-.688-1.536c.448-.405 1.008-.731 1.68-.976a6.072 6.072 0 0 1 2.096-.368c.81 0 1.493.123 2.048.368.555.245.976.603 1.264 1.072.288.469.432 1.04.432 1.712 0 .341-.043.677-.128 1.008-.075.32-.197.64-.368.96-.16.32-.368.651-.624.992-.245.331-.544.677-.896 1.04l-3.008 3.136v-.544h5.456V127H79.28zm12.25.16c-.395 0-.795-.053-1.2-.16a4.887 4.887 0 0 1-1.136-.432 4.751 4.751 0 0 1-.96-.688l.688-1.536c.384.363.8.635 1.248.816.458.181.917.272 1.376.272.47 0 .88-.08 1.232-.24a2.45 2.45 0 0 0 .912-.736c.245-.331.426-.736.544-1.216a6.75 6.75 0 0 0 .192-1.696v-1.2h.176c-.075.533-.25.997-.528 1.392-.278.395-.63.699-1.056.912-.416.203-.89.304-1.424.304-.64 0-1.21-.155-1.712-.464a3.382 3.382 0 0 1-1.2-1.28c-.288-.555-.432-1.179-.432-1.872 0-.736.16-1.387.48-1.952a3.489 3.489 0 0 1 1.312-1.328c.565-.331 1.21-.496 1.936-.496.938 0 1.733.219 2.384.656.65.437 1.146 1.077 1.488 1.92.341.832.512 1.84.512 3.024 0 1.269-.192 2.352-.576 3.248-.384.896-.939 1.579-1.664 2.048-.715.469-1.579.704-2.592.704zm.576-5.84c.384 0 .72-.085 1.008-.256.298-.171.528-.411.688-.72a2.4 2.4 0 0 0 .24-1.088c0-.416-.08-.779-.24-1.088a1.727 1.727 0 0 0-.688-.72 1.855 1.855 0 0 0-1.008-.272c-.384 0-.72.091-1.008.272a1.868 1.868 0 0 0-.688.72c-.16.309-.24.672-.24 1.088 0 .405.08.768.24 1.088.17.309.4.549.688.72.288.171.624.256 1.008.256zM128.576 127.16a7.04 7.04 0 0 1-1.504-.16 6.005 6.005 0 0 1-1.344-.432 4.6 4.6 0 0 1-1.088-.688l.672-1.568a5.477 5.477 0 0 0 1.536.848 5.05 5.05 0 0 0 1.664.272c.469 0 .864-.064 1.184-.192.32-.128.56-.32.72-.576.171-.256.256-.565.256-.928 0-.533-.181-.928-.544-1.184-.352-.267-.869-.4-1.552-.4h-1.808v-1.696h1.616c.405 0 .752-.064 1.04-.192.288-.139.512-.331.672-.576.16-.245.24-.544.24-.896 0-.491-.165-.864-.496-1.12-.32-.256-.789-.384-1.408-.384-.555 0-1.072.096-1.552.288-.48.181-.939.469-1.376.864l-.672-1.536c.448-.427 1.008-.757 1.68-.992a6.305 6.305 0 0 1 2.096-.352c.779 0 1.445.123 2 .368.555.235.976.576 1.264 1.024.299.437.448.971.448 1.6 0 .672-.187 1.253-.56 1.744-.373.48-.885.8-1.536.96v-.192c.512.085.949.256 1.312.512.363.256.64.581.832.976.192.395.288.848.288 1.36 0 .661-.165 1.237-.496 1.728-.331.491-.8.869-1.408 1.136-.608.256-1.333.384-2.176.384zm9.818 0c-.886 0-1.638-.224-2.256-.672-.608-.459-1.072-1.12-1.392-1.984-.31-.864-.464-1.92-.464-3.168 0-1.259.154-2.315.464-3.168.32-.864.784-1.515 1.392-1.952.618-.437 1.37-.656 2.256-.656.896 0 1.648.219 2.256.656.618.437 1.082 1.083 1.392 1.936.309.853.464 1.909.464 3.168 0 1.248-.16 2.309-.48 3.184-.31.864-.768 1.525-1.376 1.984-.608.448-1.36.672-2.256.672zm0-1.68c.725 0 1.258-.331 1.6-.992.352-.672.528-1.728.528-3.168 0-1.429-.176-2.464-.528-3.104-.342-.651-.875-.976-1.6-.976-.715 0-1.248.325-1.6.976-.352.64-.528 1.68-.528 3.12 0 1.429.176 2.48.528 3.152.352.661.885.992 1.6.992z" fill="#171777" fill-opacity=".5"/><path fill="#F5F5F5" d="M158 100h44v44h-44z"/><path d="M174.576 127.16a7.04 7.04 0 0 1-1.504-.16 6.005 6.005 0 0 1-1.344-.432 4.6 4.6 0 0 1-1.088-.688l.672-1.568a5.477 5.477 0 0 0 1.536.848 5.05 5.05 0 0 0 1.664.272c.469 0 .864-.064 1.184-.192.32-.128.56-.32.72-.576.171-.256.256-.565.256-.928 0-.533-.181-.928-.544-1.184-.352-.267-.869-.4-1.552-.4h-1.808v-1.696h1.616c.405 0 .752-.064 1.04-.192.288-.139.512-.331.672-.576.16-.245.24-.544.24-.896 0-.491-.165-.864-.496-1.12-.32-.256-.789-.384-1.408-.384-.555 0-1.072.096-1.552.288-.48.181-.939.469-1.376.864l-.672-1.536c.448-.427 1.008-.757 1.68-.992a6.305 6.305 0 0 1 2.096-.352c.779 0 1.445.123 2 .368.555.235.976.576 1.264 1.024.299.437.448.971.448 1.6 0 .672-.187 1.253-.56 1.744-.373.48-.885.8-1.536.96v-.192c.512.085.949.256 1.312.512.363.256.64.581.832.976.192.395.288.848.288 1.36 0 .661-.165 1.237-.496 1.728-.331.491-.8.869-1.408 1.136-.608.256-1.333.384-2.176.384zm6.762-.16v-1.696h2.544v-7.856h.992l-2.96 1.792-.8-1.504 3.36-2.016h1.456v9.584h2.384V127h-6.976z" fill="#171777" fill-opacity=".5"/><rect x="204" y="100" width="44" height="44" rx="22" fill="#D2DFFF"/><path d="M222.744 127v-1.696h2.544v-7.856h.992l-2.96 1.792-.8-1.504 3.36-2.016h1.456v9.584h2.384V127h-6.976zM268.28 127v-1.52l3.648-3.888c.331-.352.592-.677.784-.976.203-.299.352-.587.448-.864a2.53 2.53 0 0 0 .144-.832c0-.533-.171-.939-.512-1.216-.331-.277-.816-.416-1.456-.416-.501 0-.992.096-1.472.288a4.405 4.405 0 0 0-1.36.864l-.688-1.536c.448-.405 1.008-.731 1.68-.976a6.074 6.074 0 0 1 2.096-.368c.811 0 1.493.123 2.048.368.555.245.976.603 1.264 1.072.288.469.432 1.04.432 1.712 0 .341-.043.677-.128 1.008-.075.32-.197.64-.368.96-.16.32-.368.651-.624.992-.245.331-.544.677-.896 1.04l-3.008 3.136v-.544h5.456V127h-7.488zM317.576 127.16a7.04 7.04 0 0 1-1.504-.16 6.005 6.005 0 0 1-1.344-.432 4.6 4.6 0 0 1-1.088-.688l.672-1.568a5.477 5.477 0 0 0 1.536.848 5.05 5.05 0 0 0 1.664.272c.469 0 .864-.064 1.184-.192.32-.128.56-.32.72-.576.171-.256.256-.565.256-.928 0-.533-.181-.928-.544-1.184-.352-.267-.869-.4-1.552-.4h-1.808v-1.696h1.616c.405 0 .752-.064 1.04-.192.288-.139.512-.331.672-.576.16-.245.24-.544.24-.896 0-.491-.165-.864-.496-1.12-.32-.256-.789-.384-1.408-.384-.555 0-1.072.096-1.552.288-.48.181-.939.469-1.376.864l-.672-1.536c.448-.427 1.008-.757 1.68-.992a6.305 6.305 0 0 1 2.096-.352c.779 0 1.445.123 2 .368.555.235.976.576 1.264 1.024.299.437.448.971.448 1.6 0 .672-.187 1.253-.56 1.744-.373.48-.885.8-1.536.96v-.192c.512.085.949.256 1.312.512.363.256.64.581.832.976.192.395.288.848.288 1.36 0 .661-.165 1.237-.496 1.728-.331.491-.8.869-1.408 1.136-.608.256-1.333.384-2.176.384zM42.584 173v-2.144h-4.912v-1.504l5.264-7.632h1.696v7.44h1.584v1.696h-1.584V173h-2.048zm0-3.84v-4.992h.464l-3.776 5.536v-.544h3.312z" fill="#171777"/><path fill="#F5F5F5" d="M66 146h44v44H66z"/><path d="M87.896 173.16a6.671 6.671 0 0 1-2.784-.608 4.711 4.711 0 0 1-1.056-.672l.672-1.568c.49.373.997.656 1.52.848a4.905 4.905 0 0 0 1.616.272c.672 0 1.195-.171 1.568-.512.384-.352.576-.821.576-1.408 0-.597-.181-1.077-.544-1.44-.363-.373-.859-.56-1.488-.56-.459 0-.87.091-1.232.272a2.886 2.886 0 0 0-.992.8h-1.376v-6.864h6.928v1.696h-4.928V167h-.528c.277-.373.64-.661 1.088-.864a3.714 3.714 0 0 1 1.52-.304c.715 0 1.333.155 1.856.464.533.299.944.72 1.232 1.264.299.533.448 1.157.448 1.872 0 .736-.165 1.387-.496 1.952-.33.555-.805.992-1.424 1.312-.608.309-1.333.464-2.176.464zM134.216 173.16c-.928 0-1.723-.219-2.384-.656-.651-.448-1.147-1.088-1.488-1.92-.341-.832-.512-1.84-.512-3.024 0-1.28.192-2.363.576-3.248.384-.896.939-1.579 1.664-2.048.725-.469 1.595-.704 2.608-.704.395 0 .789.053 1.184.16.405.096.784.24 1.136.432.363.181.683.405.96.672l-.672 1.536a3.946 3.946 0 0 0-1.264-.8 3.644 3.644 0 0 0-1.376-.272c-.459 0-.869.085-1.232.256-.352.16-.651.405-.896.736-.245.32-.432.725-.56 1.216a7.144 7.144 0 0 0-.176 1.68v1.2h-.192c.085-.544.261-1.008.528-1.392a2.672 2.672 0 0 1 1.056-.896c.427-.213.901-.32 1.424-.32.651 0 1.227.155 1.728.464.501.309.896.736 1.184 1.28.288.544.432 1.168.432 1.872 0 .725-.16 1.376-.48 1.952a3.457 3.457 0 0 1-1.312 1.344c-.555.32-1.2.48-1.936.48zm-.112-1.632c.384 0 .72-.085 1.008-.256.299-.171.528-.411.688-.72a2.4 2.4 0 0 0 .24-1.088c0-.416-.08-.779-.24-1.088a1.725 1.725 0 0 0-.688-.72 1.855 1.855 0 0 0-1.008-.272c-.384 0-.72.091-1.008.272a1.87 1.87 0 0 0-.688.72c-.16.309-.24.672-.24 1.088 0 .405.08.768.24 1.088.171.309.4.549.688.72.288.171.624.256 1.008.256zM176.376 173l5.456-10.272v.704h-5.952v-1.712h7.856v1.536L178.632 173h-2.256zM225.8 173.16c-1.312 0-2.341-.283-3.088-.848-.736-.565-1.104-1.349-1.104-2.352 0-.533.107-1.003.32-1.408.224-.416.528-.752.912-1.008a3.037 3.037 0 0 1 1.312-.48v.336a2.988 2.988 0 0 1-1.184-.528 2.838 2.838 0 0 1-.8-.976 3.074 3.074 0 0 1-.272-1.296c0-.949.352-1.691 1.056-2.224.704-.544 1.659-.816 2.864-.816 1.195 0 2.144.272 2.848.816.704.533 1.056 1.275 1.056 2.224 0 .469-.096.901-.288 1.296-.181.395-.443.72-.784.976a2.7 2.7 0 0 1-1.168.512v-.32c.501.064.939.229 1.312.496.373.256.667.592.88 1.008.213.405.32.869.32 1.392 0 1.003-.373 1.787-1.12 2.352-.736.565-1.76.848-3.072.848zm0-1.6c.757 0 1.328-.144 1.712-.432.384-.299.576-.736.576-1.312 0-.576-.192-1.008-.576-1.296-.384-.288-.955-.432-1.712-.432-.747 0-1.317.144-1.712.432-.384.288-.576.72-.576 1.296 0 .576.192 1.013.576 1.312.395.288.965.432 1.712.432zm0-5.072c.629 0 1.12-.149 1.472-.448.363-.299.544-.709.544-1.232 0-.512-.181-.912-.544-1.2-.352-.299-.843-.448-1.472-.448s-1.12.149-1.472.448c-.352.288-.528.693-.528 1.216 0 .512.176.917.528 1.216.352.299.843.448 1.472.448zM270.936 173.16c-.395 0-.795-.053-1.2-.16a4.889 4.889 0 0 1-1.136-.432 4.751 4.751 0 0 1-.96-.688l.688-1.536c.384.363.8.635 1.248.816.459.181.917.272 1.376.272.469 0 .88-.08 1.232-.24.363-.171.667-.416.912-.736.245-.331.427-.736.544-1.216a6.75 6.75 0 0 0 .192-1.696v-1.2h.176a3.149 3.149 0 0 1-.528 1.392 2.797 2.797 0 0 1-1.056.912c-.416.203-.891.304-1.424.304-.64 0-1.211-.155-1.712-.464a3.388 3.388 0 0 1-1.2-1.28c-.288-.555-.432-1.179-.432-1.872 0-.736.16-1.387.48-1.952a3.487 3.487 0 0 1 1.312-1.328c.565-.331 1.211-.496 1.936-.496.939 0 1.733.219 2.384.656.651.437 1.147 1.077 1.488 1.92.341.832.512 1.84.512 3.024 0 1.269-.192 2.352-.576 3.248-.384.896-.939 1.579-1.664 2.048-.715.469-1.579.704-2.592.704zm.576-5.84c.384 0 .72-.085 1.008-.256.299-.171.528-.411.688-.72a2.4 2.4 0 0 0 .24-1.088c0-.416-.08-.779-.24-1.088a1.725 1.725 0 0 0-.688-.72 1.855 1.855 0 0 0-1.008-.272c-.384 0-.72.091-1.008.272a1.87 1.87 0 0 0-.688.72c-.16.309-.24.672-.24 1.088 0 .405.08.768.24 1.088.171.309.4.549.688.72.288.171.624.256 1.008.256zM309.744 173v-1.696h2.544v-7.856h.992l-2.96 1.792-.8-1.504 3.36-2.016h1.456v9.584h2.384V173h-6.976zm12.65.16c-.886 0-1.638-.224-2.256-.672-.608-.459-1.072-1.12-1.392-1.984-.31-.864-.464-1.92-.464-3.168 0-1.259.154-2.315.464-3.168.32-.864.784-1.515 1.392-1.952.618-.437 1.37-.656 2.256-.656.896 0 1.648.219 2.256.656.618.437 1.082 1.083 1.392 1.936.309.853.464 1.909.464 3.168 0 1.248-.16 2.309-.48 3.184-.31.864-.768 1.525-1.376 1.984-.608.448-1.36.672-2.256.672zm0-1.68c.725 0 1.258-.331 1.6-.992.352-.672.528-1.728.528-3.168 0-1.429-.176-2.464-.528-3.104-.342-.651-.875-.976-1.6-.976-.715 0-1.248.325-1.6.976-.352.64-.528 1.68-.528 3.12 0 1.429.176 2.48.528 3.152.352.661.885.992 1.6.992zM33.744 219v-1.696h2.544v-7.856h.992l-2.96 1.792-.8-1.504 3.36-2.016h1.456v9.584h2.384V219h-6.976zm9.594 0v-1.696h2.544v-7.856h.992l-2.96 1.792-.8-1.504 3.36-2.016h1.456v9.584h2.384V219h-6.976z" fill="#171777"/><rect x="66" y="192" width="44" height="44" rx="22" fill="#D2DFFF"/><path d="M79.744 219v-1.696h2.544v-7.856h.992l-2.96 1.792-.8-1.504 3.36-2.016h1.456v9.584h2.384V219h-6.976zm9.13 0v-1.52l3.648-3.888c.33-.352.592-.677.784-.976.202-.299.352-.587.448-.864a2.53 2.53 0 0 0 .144-.832c0-.533-.17-.939-.512-1.216-.33-.277-.816-.416-1.456-.416a3.93 3.93 0 0 0-1.472.288c-.47.181-.923.469-1.36.864l-.688-1.536c.448-.405 1.008-.731 1.68-.976a6.072 6.072 0 0 1 2.096-.368c.81 0 1.493.123 2.048.368.554.245.976.603 1.264 1.072.288.469.432 1.04.432 1.712 0 .341-.043.677-.128 1.008a3.95 3.95 0 0 1-.368.96c-.16.32-.368.651-.624.992-.246.331-.544.677-.896 1.04l-3.008 3.136v-.544h5.456V219h-7.488z" fill="#171777"/><rect x="112" y="192" width="44" height="44" rx="22" fill="#D2DFFF"/><path d="M125.744 219v-1.696h2.544v-7.856h.992l-2.96 1.792-.8-1.504 3.36-2.016h1.456v9.584h2.384V219h-6.976zm12.426.16a7.034 7.034 0 0 1-1.504-.16 6.005 6.005 0 0 1-1.344-.432 4.6 4.6 0 0 1-1.088-.688l.672-1.568a5.477 5.477 0 0 0 1.536.848 5.045 5.045 0 0 0 1.664.272c.469 0 .864-.064 1.184-.192.32-.128.56-.32.72-.576.17-.256.256-.565.256-.928 0-.533-.182-.928-.544-1.184-.352-.267-.87-.4-1.552-.4h-1.808v-1.696h1.616c.405 0 .752-.064 1.04-.192.288-.139.512-.331.672-.576.16-.245.24-.544.24-.896 0-.491-.166-.864-.496-1.12-.32-.256-.79-.384-1.408-.384-.555 0-1.072.096-1.552.288-.48.181-.939.469-1.376.864l-.672-1.536c.448-.427 1.008-.757 1.68-.992a6.3 6.3 0 0 1 2.096-.352c.778 0 1.445.123 2 .368.554.235.976.576 1.264 1.024.298.437.448.971.448 1.6 0 .672-.187 1.253-.56 1.744-.374.48-.886.8-1.536.96v-.192c.512.085.949.256 1.312.512.362.256.64.581.832.976.192.395.288.848.288 1.36 0 .661-.166 1.237-.496 1.728-.331.491-.8.869-1.408 1.136-.608.256-1.334.384-2.176.384zM171.744 219v-1.696h2.544v-7.856h.992l-2.96 1.792-.8-1.504 3.36-2.016h1.456v9.584h2.384V219h-6.976zm13.434 0v-2.144h-4.912v-1.504l5.264-7.632h1.696v7.44h1.584v1.696h-1.584V219h-2.048zm0-3.84v-4.992h.464l-3.776 5.536v-.544h3.312zM217.744 219v-1.696h2.544v-7.856h.992l-2.96 1.792-.8-1.504 3.36-2.016h1.456v9.584h2.384V219h-6.976zm12.746.16a6.67 6.67 0 0 1-2.784-.608 4.68 4.68 0 0 1-1.056-.672l.672-1.568c.49.373.997.656 1.52.848a4.9 4.9 0 0 0 1.616.272c.672 0 1.194-.171 1.568-.512.384-.352.576-.821.576-1.408 0-.597-.182-1.077-.544-1.44-.363-.373-.859-.56-1.488-.56-.459 0-.87.091-1.232.272a2.876 2.876 0 0 0-.992.8h-1.376v-6.864h6.928v1.696h-4.928V213h-.528c.277-.373.64-.661 1.088-.864a3.711 3.711 0 0 1 1.52-.304c.714 0 1.333.155 1.856.464.533.299.944.72 1.232 1.264.298.533.448 1.157.448 1.872 0 .736-.166 1.387-.496 1.952-.331.555-.806.992-1.424 1.312-.608.309-1.334.464-2.176.464zM263.744 219v-1.696h2.544v-7.856h.992l-2.96 1.792-.8-1.504 3.36-2.016h1.456v9.584h2.384V219h-6.976zm13.066.16c-.928 0-1.723-.219-2.384-.656-.651-.448-1.147-1.088-1.488-1.92-.342-.832-.512-1.84-.512-3.024 0-1.28.192-2.363.576-3.248.384-.896.938-1.579 1.664-2.048.725-.469 1.594-.704 2.608-.704.394 0 .789.053 1.184.16.405.096.784.24 1.136.432.362.181.682.405.96.672l-.672 1.536a3.946 3.946 0 0 0-1.264-.8 3.644 3.644 0 0 0-1.376-.272c-.459 0-.87.085-1.232.256-.352.16-.651.405-.896.736-.246.32-.432.725-.56 1.216-.118.48-.176 1.04-.176 1.68v1.2h-.192c.085-.544.261-1.008.528-1.392a2.672 2.672 0 0 1 1.056-.896 3.14 3.14 0 0 1 1.424-.32c.65 0 1.226.155 1.728.464.501.309.896.736 1.184 1.28.288.544.432 1.168.432 1.872 0 .725-.16 1.376-.48 1.952a3.464 3.464 0 0 1-1.312 1.344c-.555.32-1.2.48-1.936.48zm-.112-1.632c.384 0 .72-.085 1.008-.256a1.73 1.73 0 0 0 .688-.72 2.4 2.4 0 0 0 .24-1.088c0-.416-.08-.779-.24-1.088a1.73 1.73 0 0 0-.688-.72 1.855 1.855 0 0 0-1.008-.272c-.384 0-.72.091-1.008.272a1.863 1.863 0 0 0-.688.72c-.16.309-.24.672-.24 1.088 0 .405.08.768.24 1.088.17.309.4.549.688.72.288.171.624.256 1.008.256zM309.744 219v-1.696h2.544v-7.856h.992l-2.96 1.792-.8-1.504 3.36-2.016h1.456v9.584h2.384V219h-6.976zm9.226 0 5.456-10.272v.704h-5.952v-1.712h7.856v1.536L321.226 219h-2.256zM33.744 265v-1.696h2.544v-7.856h.992l-2.96 1.792-.8-1.504 3.36-2.016h1.456v9.584h2.384V265h-6.976zm12.65.16c-1.312 0-2.342-.283-3.088-.848-.736-.565-1.104-1.349-1.104-2.352 0-.533.106-1.003.32-1.408.224-.416.528-.752.912-1.008a3.038 3.038 0 0 1 1.312-.48v.336a2.99 2.99 0 0 1-1.184-.528 2.834 2.834 0 0 1-.8-.976 3.068 3.068 0 0 1-.272-1.296c0-.949.352-1.691 1.056-2.224.704-.544 1.658-.816 2.864-.816 1.194 0 2.144.272 2.848.816.704.533 1.056 1.275 1.056 2.224 0 .469-.096.901-.288 1.296-.182.395-.443.72-.784.976-.33.256-.72.427-1.168.512v-.32c.501.064.938.229 1.312.496.373.256.666.592.88 1.008.213.405.32.869.32 1.392 0 1.003-.374 1.787-1.12 2.352-.736.565-1.76.848-3.072.848zm0-1.6c.757 0 1.328-.144 1.712-.432.384-.299.576-.736.576-1.312 0-.576-.192-1.008-.576-1.296-.384-.288-.955-.432-1.712-.432-.747 0-1.318.144-1.712.432-.384.288-.576.72-.576 1.296 0 .576.192 1.013.576 1.312.394.288.965.432 1.712.432zm0-5.072c.63 0 1.12-.149 1.472-.448.362-.299.544-.709.544-1.232 0-.512-.182-.912-.544-1.2-.352-.299-.843-.448-1.472-.448-.63 0-1.12.149-1.472.448-.352.288-.528.693-.528 1.216 0 .512.176.917.528 1.216.352.299.842.448 1.472.448zM79.744 265v-1.696h2.544v-7.856h.992l-2.96 1.792-.8-1.504 3.36-2.016h1.456v9.584h2.384V265h-6.976zm11.786.16c-.395 0-.795-.053-1.2-.16a4.887 4.887 0 0 1-1.136-.432 4.751 4.751 0 0 1-.96-.688l.688-1.536c.384.363.8.635 1.248.816.458.181.917.272 1.376.272.47 0 .88-.08 1.232-.24a2.45 2.45 0 0 0 .912-.736c.245-.331.426-.736.544-1.216a6.75 6.75 0 0 0 .192-1.696v-1.2h.176c-.075.533-.25.997-.528 1.392-.278.395-.63.699-1.056.912-.416.203-.89.304-1.424.304-.64 0-1.21-.155-1.712-.464a3.382 3.382 0 0 1-1.2-1.28c-.288-.555-.432-1.179-.432-1.872 0-.736.16-1.387.48-1.952a3.489 3.489 0 0 1 1.312-1.328c.565-.331 1.21-.496 1.936-.496.938 0 1.733.219 2.384.656.65.437 1.146 1.077 1.488 1.92.341.832.512 1.84.512 3.024 0 1.269-.192 2.352-.576 3.248-.384.896-.939 1.579-1.664 2.048-.715.469-1.579.704-2.592.704zm.576-5.84c.384 0 .72-.085 1.008-.256.298-.171.528-.411.688-.72a2.4 2.4 0 0 0 .24-1.088c0-.416-.08-.779-.24-1.088a1.727 1.727 0 0 0-.688-.72 1.855 1.855 0 0 0-1.008-.272c-.384 0-.72.091-1.008.272a1.868 1.868 0 0 0-.688.72c-.16.309-.24.672-.24 1.088 0 .405.08.768.24 1.088.17.309.4.549.688.72.288.171.624.256 1.008.256zM125.28 265v-1.52l3.648-3.888c.331-.352.592-.677.784-.976.203-.299.352-.587.448-.864a2.53 2.53 0 0 0 .144-.832c0-.533-.171-.939-.512-1.216-.331-.277-.816-.416-1.456-.416-.501 0-.992.096-1.472.288a4.405 4.405 0 0 0-1.36.864l-.688-1.536c.448-.405 1.008-.731 1.68-.976a6.074 6.074 0 0 1 2.096-.368c.811 0 1.493.123 2.048.368.555.245.976.603 1.264 1.072.288.469.432 1.04.432 1.712 0 .341-.043.677-.128 1.008-.075.32-.197.64-.368.96-.16.32-.368.651-.624.992-.245.331-.544.677-.896 1.04l-3.008 3.136v-.544h5.456V265h-7.488zm13.114.16c-.886 0-1.638-.224-2.256-.672-.608-.459-1.072-1.12-1.392-1.984-.31-.864-.464-1.92-.464-3.168 0-1.259.154-2.315.464-3.168.32-.864.784-1.515 1.392-1.952.618-.437 1.37-.656 2.256-.656.896 0 1.648.219 2.256.656.618.437 1.082 1.083 1.392 1.936.309.853.464 1.909.464 3.168 0 1.248-.16 2.309-.48 3.184-.31.864-.768 1.525-1.376 1.984-.608.448-1.36.672-2.256.672zm0-1.68c.725 0 1.258-.331 1.6-.992.352-.672.528-1.728.528-3.168 0-1.429-.176-2.464-.528-3.104-.342-.651-.875-.976-1.6-.976-.715 0-1.248.325-1.6.976-.352.64-.528 1.68-.528 3.12 0 1.429.176 2.48.528 3.152.352.661.885.992 1.6.992zM171.28 265v-1.52l3.648-3.888c.331-.352.592-.677.784-.976.203-.299.352-.587.448-.864a2.53 2.53 0 0 0 .144-.832c0-.533-.171-.939-.512-1.216-.331-.277-.816-.416-1.456-.416-.501 0-.992.096-1.472.288a4.405 4.405 0 0 0-1.36.864l-.688-1.536c.448-.405 1.008-.731 1.68-.976a6.074 6.074 0 0 1 2.096-.368c.811 0 1.493.123 2.048.368.555.245.976.603 1.264 1.072.288.469.432 1.04.432 1.712 0 .341-.043.677-.128 1.008-.075.32-.197.64-.368.96-.16.32-.368.651-.624.992-.245.331-.544.677-.896 1.04l-3.008 3.136v-.544h5.456V265h-7.488zm10.058 0v-1.696h2.544v-7.856h.992l-2.96 1.792-.8-1.504 3.36-2.016h1.456v9.584h2.384V265h-6.976zM217.28 265v-1.52l3.648-3.888c.331-.352.592-.677.784-.976.203-.299.352-.587.448-.864a2.53 2.53 0 0 0 .144-.832c0-.533-.171-.939-.512-1.216-.331-.277-.816-.416-1.456-.416-.501 0-.992.096-1.472.288a4.405 4.405 0 0 0-1.36.864l-.688-1.536c.448-.405 1.008-.731 1.68-.976a6.074 6.074 0 0 1 2.096-.368c.811 0 1.493.123 2.048.368.555.245.976.603 1.264 1.072.288.469.432 1.04.432 1.712 0 .341-.043.677-.128 1.008-.075.32-.197.64-.368.96-.16.32-.368.651-.624.992-.245.331-.544.677-.896 1.04l-3.008 3.136v-.544h5.456V265h-7.488zm9.594 0v-1.52l3.648-3.888c.33-.352.592-.677.784-.976.202-.299.352-.587.448-.864a2.53 2.53 0 0 0 .144-.832c0-.533-.171-.939-.512-1.216-.331-.277-.816-.416-1.456-.416-.502 0-.992.096-1.472.288-.47.181-.923.469-1.36.864l-.688-1.536c.448-.405 1.008-.731 1.68-.976a6.07 6.07 0 0 1 2.096-.368c.81 0 1.493.123 2.048.368.554.245.976.603 1.264 1.072.288.469.432 1.04.432 1.712 0 .341-.043.677-.128 1.008-.075.32-.198.64-.368.96-.16.32-.368.651-.624.992-.246.331-.544.677-.896 1.04l-3.008 3.136v-.544h5.456V265h-7.488z" fill="#171777"/><rect x="250" y="238" width="44" height="44" rx="22" fill="#F77"/><path d="M263.28 265v-1.52l3.648-3.888c.331-.352.592-.677.784-.976.203-.299.352-.587.448-.864a2.53 2.53 0 0 0 .144-.832c0-.533-.171-.939-.512-1.216-.331-.277-.816-.416-1.456-.416-.501 0-.992.096-1.472.288a4.405 4.405 0 0 0-1.36.864l-.688-1.536c.448-.405 1.008-.731 1.68-.976a6.074 6.074 0 0 1 2.096-.368c.811 0 1.493.123 2.048.368.555.245.976.603 1.264 1.072.288.469.432 1.04.432 1.712 0 .341-.043.677-.128 1.008-.075.32-.197.64-.368.96-.16.32-.368.651-.624.992-.245.331-.544.677-.896 1.04l-3.008 3.136v-.544h5.456V265h-7.488zm12.89.16a7.034 7.034 0 0 1-1.504-.16 6.005 6.005 0 0 1-1.344-.432 4.6 4.6 0 0 1-1.088-.688l.672-1.568a5.477 5.477 0 0 0 1.536.848 5.045 5.045 0 0 0 1.664.272c.469 0 .864-.064 1.184-.192.32-.128.56-.32.72-.576.17-.256.256-.565.256-.928 0-.533-.182-.928-.544-1.184-.352-.267-.87-.4-1.552-.4h-1.808v-1.696h1.616c.405 0 .752-.064 1.04-.192.288-.139.512-.331.672-.576.16-.245.24-.544.24-.896 0-.491-.166-.864-.496-1.12-.32-.256-.79-.384-1.408-.384-.555 0-1.072.096-1.552.288-.48.181-.939.469-1.376.864l-.672-1.536c.448-.427 1.008-.757 1.68-.992a6.3 6.3 0 0 1 2.096-.352c.778 0 1.445.123 2 .368.554.235.976.576 1.264 1.024.298.437.448.971.448 1.6 0 .672-.187 1.253-.56 1.744-.374.48-.886.8-1.536.96v-.192c.512.085.949.256 1.312.512.362.256.64.581.832.976.192.395.288.848.288 1.36 0 .661-.166 1.237-.496 1.728-.331.491-.8.869-1.408 1.136-.608.256-1.334.384-2.176.384zM309.28 265v-1.52l3.648-3.888c.331-.352.592-.677.784-.976.203-.299.352-.587.448-.864a2.53 2.53 0 0 0 .144-.832c0-.533-.171-.939-.512-1.216-.331-.277-.816-.416-1.456-.416-.501 0-.992.096-1.472.288a4.405 4.405 0 0 0-1.36.864l-.688-1.536c.448-.405 1.008-.731 1.68-.976a6.074 6.074 0 0 1 2.096-.368c.811 0 1.493.123 2.048.368.555.245.976.603 1.264 1.072.288.469.432 1.04.432 1.712 0 .341-.043.677-.128 1.008-.075.32-.197.64-.368.96-.16.32-.368.651-.624.992-.245.331-.544.677-.896 1.04l-3.008 3.136v-.544h5.456V265h-7.488zm13.898 0v-2.144h-4.912v-1.504l5.264-7.632h1.696v7.44h1.584v1.696h-1.584V265h-2.048zm0-3.84v-4.992h.464l-3.776 5.536v-.544h3.312z" fill="#171777"/><rect x="20" y="284" width="44" height="44" rx="22" fill="#D2DFFF"/><path d="M33.28 311v-1.52l3.648-3.888c.33-.352.592-.677.784-.976.203-.299.352-.587.448-.864a2.53 2.53 0 0 0 .144-.832c0-.533-.17-.939-.512-1.216-.33-.277-.816-.416-1.456-.416-.501 0-.992.096-1.472.288-.47.181-.923.469-1.36.864l-.688-1.536c.448-.405 1.008-.731 1.68-.976a6.072 6.072 0 0 1 2.096-.368c.81 0 1.493.123 2.048.368.555.245.976.603 1.264 1.072.288.469.432 1.04.432 1.712 0 .341-.043.677-.128 1.008-.075.32-.197.64-.368.96-.16.32-.368.651-.624.992-.245.331-.544.677-.896 1.04l-3.008 3.136v-.544h5.456V311H33.28zm13.21.16a6.671 6.671 0 0 1-2.784-.608 4.711 4.711 0 0 1-1.056-.672l.672-1.568c.49.373.997.656 1.52.848a4.904 4.904 0 0 0 1.616.272c.672 0 1.194-.171 1.568-.512.384-.352.576-.821.576-1.408 0-.597-.182-1.077-.544-1.44-.363-.373-.859-.56-1.488-.56-.459 0-.87.091-1.232.272a2.885 2.885 0 0 0-.992.8H42.97v-6.864h6.928v1.696H44.97V305h-.528c.277-.373.64-.661 1.088-.864a3.714 3.714 0 0 1 1.52-.304c.714 0 1.333.155 1.856.464.533.299.944.72 1.232 1.264.298.533.448 1.157.448 1.872 0 .736-.166 1.387-.496 1.952-.33.555-.806.992-1.424 1.312-.608.309-1.334.464-2.176.464z" fill="#171777"/><path fill="#F5F5F5" d="M66 284h44v44H66z"/><path d="M79.28 311v-1.52l3.648-3.888c.33-.352.592-.677.784-.976.203-.299.352-.587.448-.864a2.53 2.53 0 0 0 .144-.832c0-.533-.17-.939-.512-1.216-.33-.277-.816-.416-1.456-.416-.501 0-.992.096-1.472.288-.47.181-.923.469-1.36.864l-.688-1.536c.448-.405 1.008-.731 1.68-.976a6.072 6.072 0 0 1 2.096-.368c.81 0 1.493.123 2.048.368.555.245.976.603 1.264 1.072.288.469.432 1.04.432 1.712 0 .341-.043.677-.128 1.008-.075.32-.197.64-.368.96-.16.32-.368.651-.624.992-.245.331-.544.677-.896 1.04l-3.008 3.136v-.544h5.456V311H79.28zm13.53.16c-.928 0-1.723-.219-2.384-.656-.65-.448-1.147-1.088-1.488-1.92-.342-.832-.512-1.84-.512-3.024 0-1.28.192-2.363.576-3.248.384-.896.938-1.579 1.664-2.048.725-.469 1.594-.704 2.608-.704.394 0 .79.053 1.184.16.405.096.784.24 1.136.432.362.181.682.405.96.672l-.672 1.536a3.943 3.943 0 0 0-1.264-.8 3.643 3.643 0 0 0-1.376-.272c-.459 0-.87.085-1.232.256a2.28 2.28 0 0 0-.896.736c-.246.32-.432.725-.56 1.216-.118.48-.176 1.04-.176 1.68v1.2h-.192c.085-.544.261-1.008.528-1.392.277-.395.63-.693 1.056-.896.426-.213.901-.32 1.424-.32.65 0 1.226.155 1.728.464.501.309.896.736 1.184 1.28.288.544.432 1.168.432 1.872 0 .725-.16 1.376-.48 1.952a3.458 3.458 0 0 1-1.312 1.344c-.555.32-1.2.48-1.936.48zm-.112-1.632c.384 0 .72-.085 1.008-.256.298-.171.528-.411.688-.72a2.4 2.4 0 0 0 .24-1.088c0-.416-.08-.779-.24-1.088a1.727 1.727 0 0 0-.688-.72 1.855 1.855 0 0 0-1.008-.272c-.384 0-.72.091-1.008.272a1.868 1.868 0 0 0-.688.72c-.16.309-.24.672-.24 1.088 0 .405.08.768.24 1.088.17.309.4.549.688.72.288.171.624.256 1.008.256zM125.28 311v-1.52l3.648-3.888c.331-.352.592-.677.784-.976.203-.299.352-.587.448-.864a2.53 2.53 0 0 0 .144-.832c0-.533-.171-.939-.512-1.216-.331-.277-.816-.416-1.456-.416-.501 0-.992.096-1.472.288a4.405 4.405 0 0 0-1.36.864l-.688-1.536c.448-.405 1.008-.731 1.68-.976a6.074 6.074 0 0 1 2.096-.368c.811 0 1.493.123 2.048.368.555.245.976.603 1.264 1.072.288.469.432 1.04.432 1.712 0 .341-.043.677-.128 1.008-.075.32-.197.64-.368.96-.16.32-.368.651-.624.992-.245.331-.544.677-.896 1.04l-3.008 3.136v-.544h5.456V311h-7.488zm9.69 0 5.456-10.272v.704h-5.952v-1.712h7.856v1.536L137.226 311h-2.256zM171.28 311v-1.52l3.648-3.888c.331-.352.592-.677.784-.976.203-.299.352-.587.448-.864a2.53 2.53 0 0 0 .144-.832c0-.533-.171-.939-.512-1.216-.331-.277-.816-.416-1.456-.416-.501 0-.992.096-1.472.288a4.405 4.405 0 0 0-1.36.864l-.688-1.536c.448-.405 1.008-.731 1.68-.976a6.074 6.074 0 0 1 2.096-.368c.811 0 1.493.123 2.048.368.555.245.976.603 1.264 1.072.288.469.432 1.04.432 1.712 0 .341-.043.677-.128 1.008-.075.32-.197.64-.368.96-.16.32-.368.651-.624.992-.245.331-.544.677-.896 1.04l-3.008 3.136v-.544h5.456V311h-7.488zm13.114.16c-1.312 0-2.342-.283-3.088-.848-.736-.565-1.104-1.349-1.104-2.352 0-.533.106-1.003.32-1.408.224-.416.528-.752.912-1.008a3.037 3.037 0 0 1 1.312-.48v.336a2.988 2.988 0 0 1-1.184-.528 2.827 2.827 0 0 1-.8-.976 3.059 3.059 0 0 1-.272-1.296c0-.949.352-1.691 1.056-2.224.704-.544 1.658-.816 2.864-.816 1.194 0 2.144.272 2.848.816.704.533 1.056 1.275 1.056 2.224 0 .469-.096.901-.288 1.296-.182.395-.443.72-.784.976a2.7 2.7 0 0 1-1.168.512v-.32c.501.064.938.229 1.312.496.373.256.666.592.88 1.008.213.405.32.869.32 1.392 0 1.003-.374 1.787-1.12 2.352-.736.565-1.76.848-3.072.848zm0-1.6c.757 0 1.328-.144 1.712-.432.384-.299.576-.736.576-1.312 0-.576-.192-1.008-.576-1.296-.384-.288-.955-.432-1.712-.432-.747 0-1.318.144-1.712.432-.384.288-.576.72-.576 1.296 0 .576.192 1.013.576 1.312.394.288.965.432 1.712.432zm0-5.072c.629 0 1.12-.149 1.472-.448.362-.299.544-.709.544-1.232 0-.512-.182-.912-.544-1.2-.352-.299-.843-.448-1.472-.448-.63 0-1.12.149-1.472.448-.352.288-.528.693-.528 1.216 0 .512.176.917.528 1.216.352.299.842.448 1.472.448z" fill="#171777"/><rect x="204" y="284" width="44" height="44" rx="22" fill="#D2DFFF"/><path d="M217.28 311v-1.52l3.648-3.888c.331-.352.592-.677.784-.976.203-.299.352-.587.448-.864a2.53 2.53 0 0 0 .144-.832c0-.533-.171-.939-.512-1.216-.331-.277-.816-.416-1.456-.416-.501 0-.992.096-1.472.288a4.405 4.405 0 0 0-1.36.864l-.688-1.536c.448-.405 1.008-.731 1.68-.976a6.074 6.074 0 0 1 2.096-.368c.811 0 1.493.123 2.048.368.555.245.976.603 1.264 1.072.288.469.432 1.04.432 1.712 0 .341-.043.677-.128 1.008-.075.32-.197.64-.368.96-.16.32-.368.651-.624.992-.245.331-.544.677-.896 1.04l-3.008 3.136v-.544h5.456V311h-7.488zm12.25.16c-.395 0-.795-.053-1.2-.16a4.872 4.872 0 0 1-1.136-.432 4.751 4.751 0 0 1-.96-.688l.688-1.536c.384.363.8.635 1.248.816.458.181.917.272 1.376.272.469 0 .88-.08 1.232-.24a2.46 2.46 0 0 0 .912-.736c.245-.331.426-.736.544-1.216a6.75 6.75 0 0 0 .192-1.696v-1.2h.176a3.149 3.149 0 0 1-.528 1.392c-.278.395-.63.699-1.056.912-.416.203-.891.304-1.424.304-.64 0-1.211-.155-1.712-.464a3.372 3.372 0 0 1-1.2-1.28c-.288-.555-.432-1.179-.432-1.872 0-.736.16-1.387.48-1.952a3.487 3.487 0 0 1 1.312-1.328c.565-.331 1.21-.496 1.936-.496.938 0 1.733.219 2.384.656.65.437 1.146 1.077 1.488 1.92.341.832.512 1.84.512 3.024 0 1.269-.192 2.352-.576 3.248-.384.896-.939 1.579-1.664 2.048-.715.469-1.579.704-2.592.704zm.576-5.84c.384 0 .72-.085 1.008-.256a1.73 1.73 0 0 0 .688-.72 2.4 2.4 0 0 0 .24-1.088c0-.416-.08-.779-.24-1.088a1.73 1.73 0 0 0-.688-.72 1.855 1.855 0 0 0-1.008-.272c-.384 0-.72.091-1.008.272a1.863 1.863 0 0 0-.688.72c-.16.309-.24.672-.24 1.088 0 .405.08.768.24 1.088.17.309.4.549.688.72.288.171.624.256 1.008.256zM266.576 311.16a7.04 7.04 0 0 1-1.504-.16 6.005 6.005 0 0 1-1.344-.432 4.6 4.6 0 0 1-1.088-.688l.672-1.568a5.477 5.477 0 0 0 1.536.848 5.05 5.05 0 0 0 1.664.272c.469 0 .864-.064 1.184-.192.32-.128.56-.32.72-.576.171-.256.256-.565.256-.928 0-.533-.181-.928-.544-1.184-.352-.267-.869-.4-1.552-.4h-1.808v-1.696h1.616c.405 0 .752-.064 1.04-.192.288-.139.512-.331.672-.576.16-.245.24-.544.24-.896 0-.491-.165-.864-.496-1.12-.32-.256-.789-.384-1.408-.384-.555 0-1.072.096-1.552.288-.48.181-.939.469-1.376.864l-.672-1.536c.448-.427 1.008-.757 1.68-.992a6.305 6.305 0 0 1 2.096-.352c.779 0 1.445.123 2 .368.555.235.976.576 1.264 1.024.299.437.448.971.448 1.6 0 .672-.187 1.253-.56 1.744-.373.48-.885.8-1.536.96v-.192c.512.085.949.256 1.312.512.363.256.64.581.832.976.192.395.288.848.288 1.36 0 .661-.165 1.237-.496 1.728-.331.491-.8.869-1.408 1.136-.608.256-1.333.384-2.176.384zm9.818 0c-.886 0-1.638-.224-2.256-.672-.608-.459-1.072-1.12-1.392-1.984-.31-.864-.464-1.92-.464-3.168 0-1.259.154-2.315.464-3.168.32-.864.784-1.515 1.392-1.952.618-.437 1.37-.656 2.256-.656.896 0 1.648.219 2.256.656.618.437 1.082 1.083 1.392 1.936.309.853.464 1.909.464 3.168 0 1.248-.16 2.309-.48 3.184-.31.864-.768 1.525-1.376 1.984-.608.448-1.36.672-2.256.672zm0-1.68c.725 0 1.258-.331 1.6-.992.352-.672.528-1.728.528-3.168 0-1.429-.176-2.464-.528-3.104-.342-.651-.875-.976-1.6-.976-.715 0-1.248.325-1.6.976-.352.64-.528 1.68-.528 3.12 0 1.429.176 2.48.528 3.152.352.661.885.992 1.6.992z" fill="#171777"/><path d="M314.744 311v-1.696h2.544v-7.856h.992l-2.96 1.792-.8-1.504 3.36-2.016h1.456v9.584h2.384V311h-6.976z" fill="#171777" fill-opacity=".5"/></svg>